<svg xmlns="http://www.w3.org/2000/svg" xmlns:xlink="http://www.w3.org/1999/xlink" width="940" zoomAndPan="magnify" viewBox="0 0 705 591.000005" height="788" preserveAspectRatio="xMidYMid meet" version="1.2"><defs><clipPath id="89c9579e58"><path d="M 0.59375 100 L 704.402344 100 L 704.402344 488 L 0.59375 488 Z M 0.59375 100 "/></clipPath><filter x="0%" y="0%" width="100%" filterUnits="objectBoundingBox" id="e898babc15" height="100%"><feColorMatrix values="0 0 0 0 1 0 0 0 0 1 0 0 0 0 1 0 0 0 1 0" type="matrix" in="SourceGraphic"/></filter><clipPath id="132371d920"><path d="M 1 0.871094 L 704 0.871094 L 704 387.816406 L 1 387.816406 Z M 1 0.871094 "/></clipPath><clipPath id="5ed67402df"><rect x="0" width="705" y="0" height="388"/></clipPath></defs><g id="1fb8848648"><g clip-rule="nonzero" clip-path="url(#89c9579e58)"><g mask="url(#897947ce87)" transform="matrix(1,0,0,1,0.000000000000000111,100)"><g clip-path="url(#5ed67402df)"><g clip-rule="nonzero" clip-path="url(#132371d920)"><path style=" stroke:none;fill-rule:nonzero;fill:#f4b8c4;fill-opacity:1;" d="M 64.839844 265.289062 C 65.875 264.710938 65.992188 263.675781 66.222656 262.753906 C 67.371094 258.378906 68.640625 254.003906 70.367188 249.859375 C 71.515625 247.097656 72.898438 244.332031 74.742188 242.03125 C 80.039062 235.46875 87.289062 236.160156 91.320312 243.644531 C 93.277344 247.210938 94.082031 251.125 94.3125 255.15625 C 94.773438 262.523438 94.082031 269.894531 92.703125 277.148438 C 91.089844 285.667969 89.476562 294.1875 87.867188 302.707031 C 87.519531 304.546875 87.289062 306.390625 86.945312 308.117188 C 86.601562 309.960938 86.371094 311.800781 85.792969 313.527344 C 84.644531 316.984375 81.765625 318.480469 78.195312 317.445312 C 76.8125 316.984375 75.433594 316.40625 74.050781 315.601562 C 61.039062 308.691406 48.722656 300.632812 37.898438 290.503906 C 34.214844 287.046875 30.992188 283.132812 29.035156 278.527344 C 27.191406 274.269531 26.386719 269.894531 27.652344 265.289062 C 29.378906 259.53125 34.097656 255.617188 40.085938 255.273438 C 43.308594 255.042969 46.417969 255.730469 49.410156 256.769531 C 53.558594 258.265625 57.242188 260.335938 60.925781 262.871094 C 62.308594 263.792969 63.34375 265.058594 64.839844 265.289062 Z M 634.289062 208.871094 C 634.519531 215.433594 634.632812 221.882812 634.75 228.445312 C 634.75 230.75 634.980469 233.164062 635.441406 235.46875 C 636.476562 240.1875 640.046875 243.066406 645.109375 239.957031 C 649.140625 237.425781 653.515625 235.699219 657.777344 233.972656 C 662.609375 232.015625 667.332031 230.058594 672.050781 227.871094 C 677.808594 225.222656 683.449219 222.113281 688.515625 218.3125 C 693.007812 214.976562 696.921875 211.175781 699.914062 206.453125 C 701.640625 203.691406 702.90625 200.8125 703.367188 197.589844 C 704.40625 190.222656 699.339844 184.695312 691.96875 185.386719 C 689.4375 185.617188 687.019531 186.421875 684.832031 187.457031 C 681.148438 189.183594 677.925781 191.488281 674.816406 194.136719 C 672.511719 196.09375 670.441406 198.28125 668.136719 200.238281 C 667.675781 200.699219 667.101562 201.273438 666.410156 200.8125 C 666.066406 200.582031 665.949219 200.007812 665.949219 199.546875 C 665.835938 196.667969 665.835938 193.789062 665.605469 191.027344 C 665.144531 185.847656 663.878906 180.78125 660.769531 176.40625 C 655.011719 168.347656 644.765625 168.117188 638.546875 175.828125 C 636.589844 178.363281 635.324219 181.242188 634.402344 184.347656 C 633.367188 188.148438 633.253906 191.949219 633.367188 197.589844 C 633.710938 200.121094 634.171875 204.496094 634.289062 208.871094 Z M 275.535156 324.582031 C 272.078125 316.40625 263.675781 315.027344 257.804688 321.472656 C 256.765625 322.738281 255.730469 324.121094 255.039062 325.503906 C 254.003906 327.460938 253.199219 329.648438 252.621094 331.71875 C 251.929688 334.023438 251.355469 336.324219 251.011719 338.742188 C 250.433594 343.234375 249.972656 343.117188 246.75 340.46875 C 244.5625 338.628906 242.261719 337.015625 239.84375 335.402344 C 238.113281 334.253906 236.15625 333.332031 234.199219 332.527344 C 225.910156 329.417969 220.382812 333.792969 221.421875 342.542969 C 221.882812 345.996094 223.148438 349.21875 224.875 352.214844 C 228.097656 358.085938 232.242188 363.265625 237.195312 367.640625 C 242.835938 372.59375 249.28125 376.507812 255.269531 380.996094 C 255.960938 381.574219 256.765625 381.917969 257.574219 382.378906 C 258.148438 382.609375 258.609375 382.953125 259.183594 383.070312 C 260.566406 383.414062 261.832031 383.070312 262.753906 381.804688 C 264.136719 379.960938 264.941406 377.886719 265.632812 375.699219 C 267.703125 369.253906 269.777344 362.804688 271.847656 356.359375 C 272.769531 353.480469 273.691406 350.601562 274.382812 347.722656 C 275.648438 342.886719 276.683594 338.050781 276.683594 333.101562 C 277.03125 329.53125 276.683594 327.113281 275.535156 324.582031 Z M 312.261719 168.230469 C 312.261719 168.230469 312.375 168.117188 312.375 168.117188 C 311.453125 168.921875 310.535156 168.578125 309.613281 168.347656 C 305.351562 166.964844 300.976562 167.425781 296.71875 168.117188 C 291.652344 168.921875 287.277344 171.453125 283.59375 175.140625 C 280.253906 178.476562 277.144531 181.933594 273.921875 185.386719 C 271.042969 188.496094 268.164062 191.488281 264.824219 194.019531 C 261.140625 196.898438 257.113281 198.742188 252.621094 199.546875 C 251.242188 199.777344 250.089844 199.546875 248.824219 198.742188 C 246.636719 197.246094 244.332031 195.746094 242.03125 194.480469 C 240.417969 193.675781 239.496094 192.523438 238.921875 190.796875 C 237.308594 186.421875 235.699219 182.046875 233.855469 177.671875 C 224.875 155.222656 215.320312 133.113281 205.878906 111.007812 C 202.078125 102.257812 198.394531 93.394531 194.824219 84.644531 C 193.789062 81.996094 192.292969 79.464844 192.40625 76.585938 C 192.636719 68.410156 189.644531 61.15625 186.191406 54.019531 C 182.160156 45.84375 175.597656 40.433594 166.734375 37.667969 C 160.398438 35.710938 154.183594 35.710938 148.082031 38.128906 C 144.050781 39.742188 140.828125 42.160156 138.753906 46.191406 C 135.648438 52.523438 138.871094 59.316406 143.707031 61.734375 C 149.230469 64.378906 156.371094 61.734375 159.019531 56.089844 C 160.054688 53.902344 160.628906 53.789062 162.703125 54.941406 C 163.96875 55.746094 165.234375 56.667969 165.925781 58.046875 C 169.496094 63.804688 171.222656 69.90625 169.496094 76.699219 C 168.460938 81.074219 166.042969 84.644531 163.164062 87.984375 C 159.824219 91.78125 156.023438 95.007812 152.226562 98.34375 C 148.425781 101.683594 144.742188 105.023438 141.519531 108.9375 C 134.265625 117.34375 130.464844 127.242188 129.890625 138.296875 C 129.085938 152.113281 131.5 165.351562 137.488281 177.785156 C 139.675781 182.277344 141.519531 186.996094 142.667969 191.949219 C 142.898438 192.753906 143.015625 193.558594 143.015625 194.367188 C 143.015625 195.171875 142.554688 195.632812 141.75 195.515625 C 137.257812 194.597656 132.882812 193.675781 128.507812 192.871094 C 104.332031 188.148438 80.269531 182.96875 56.320312 177.554688 C 55.054688 177.328125 53.785156 176.867188 52.636719 176.519531 C 52.636719 175.023438 53.671875 174.679688 54.363281 173.988281 C 57.355469 171.339844 60.464844 168.691406 63.34375 166.042969 C 64.726562 164.777344 65.992188 163.511719 66.796875 161.785156 C 67.832031 159.480469 67.027344 157.410156 64.726562 156.488281 C 63.226562 155.910156 61.730469 155.796875 60.234375 155.910156 C 55.859375 156.257812 51.597656 156.601562 47.222656 157.179688 C 33.410156 159.019531 19.9375 162.242188 6.351562 165.007812 C 5.429688 165.238281 4.394531 165.46875 3.472656 165.929688 C 1.515625 166.847656 0.59375 168.921875 1.515625 170.992188 C 2.207031 172.375 3.128906 173.640625 4.164062 174.679688 C 7.042969 177.441406 9.921875 180.320312 13.03125 182.851562 C 22.816406 191.027344 33.179688 198.511719 43.539062 205.765625 C 44.460938 206.457031 45.496094 207.03125 46.535156 207.492188 C 49.066406 208.527344 51.371094 207.144531 51.714844 204.496094 C 51.945312 202.65625 51.597656 200.8125 51.140625 199.085938 C 50.21875 195.632812 49.410156 192.292969 48.375 188.953125 C 46.878906 183.773438 46.878906 183.3125 52.289062 184.464844 C 78.308594 189.761719 104.214844 195.863281 130.121094 201.964844 C 131.386719 202.308594 132.652344 202.769531 133.917969 203.117188 C 133.917969 203.460938 133.917969 203.578125 133.917969 203.808594 C 133.804688 204.152344 133.804688 204.496094 133.6875 204.726562 C 131.5 208.414062 130.695312 212.097656 132.769531 216.125 C 133.230469 217.046875 132.882812 217.738281 132.421875 218.429688 C 130.695312 221.191406 131.042969 223.839844 132.882812 226.375 C 133.6875 227.410156 134.035156 228.214844 133.460938 229.597656 C 132.421875 232.128906 133 234.664062 134.726562 236.621094 C 136.566406 238.578125 135.875 239.957031 134.609375 241.917969 C 129.890625 249.285156 125.746094 256.882812 122.636719 265.058594 C 118.492188 275.996094 117.570312 287.164062 120.105469 298.675781 C 121.484375 304.894531 123.902344 310.882812 126.667969 316.523438 C 128.625 320.550781 130.582031 324.695312 132.421875 328.839844 C 134.148438 332.527344 135.1875 336.441406 135.648438 340.355469 C 135.992188 343.234375 135.761719 345.996094 134.957031 348.875 C 134.378906 350.832031 133.460938 352.558594 131.730469 353.824219 C 130.695312 354.515625 129.542969 354.863281 128.394531 354.285156 C 127.242188 353.710938 126.667969 352.675781 126.78125 351.40625 C 126.78125 350.601562 126.898438 349.679688 126.898438 348.875 C 127.011719 348.070312 127.125 347.148438 127.125 346.34375 C 127.125 343.003906 125.167969 341.160156 121.714844 341.160156 C 118.261719 341.160156 115.613281 342.886719 113.425781 345.304688 C 107.324219 351.984375 106.75 362.804688 112.042969 370.519531 C 117.226562 378.003906 127.933594 382.378906 136.796875 380.421875 C 148.195312 377.886719 156.945312 368.332031 158.328125 356.703125 C 158.441406 355.550781 158.558594 354.402344 158.671875 353.25 C 158.789062 351.984375 159.25 351.0625 159.941406 350.140625 C 163.277344 345.996094 166.617188 341.738281 169.839844 337.476562 C 189.070312 311.6875 210.253906 287.394531 228.328125 260.796875 C 228.90625 259.875 229.710938 259.300781 230.746094 259.417969 C 236.734375 259.53125 242.835938 259.417969 248.824219 258.378906 C 249.972656 258.148438 250.78125 258.609375 251.355469 259.53125 C 252.046875 260.453125 252.621094 261.488281 253.3125 262.410156 C 259.183594 270.816406 265.863281 278.527344 273.460938 285.4375 C 282.441406 293.496094 292.6875 299.367188 304.777344 301.324219 C 306.621094 301.671875 307.195312 302.476562 307.886719 304.089844 C 314.449219 321.589844 325.617188 335.058594 341.964844 344.15625 C 343.117188 344.84375 344.269531 345.421875 345.074219 346.570312 C 349.679688 352.675781 355.550781 357.28125 361.308594 362.230469 C 364.53125 364.992188 368.101562 367.179688 371.898438 368.90625 C 378.117188 371.785156 384.335938 374.664062 390.667969 377.429688 C 403.675781 383.070312 416.570312 383.300781 429.582031 377.199219 C 433.496094 375.355469 437.640625 373.859375 441.671875 372.363281 C 446.96875 370.519531 452.261719 369.597656 457.90625 370.636719 C 461.703125 371.324219 465.503906 371.902344 469.1875 372.824219 C 479.433594 375.46875 489.679688 378.003906 499.238281 382.609375 C 501.65625 383.761719 504.1875 384.679688 506.722656 385.488281 C 518.234375 389.054688 528.136719 386.523438 536.539062 377.886719 C 539.765625 374.664062 542.296875 370.980469 544.601562 367.066406 C 546.441406 364.074219 548.167969 360.964844 550.011719 357.96875 C 553.925781 351.40625 559.566406 347.378906 567.050781 345.765625 C 570.851562 344.960938 574.535156 344.039062 578.332031 343.234375 C 587.429688 341.277344 594.566406 336.324219 599.402344 328.265625 C 601.707031 324.464844 604.699219 321.359375 608.152344 318.710938 C 611.378906 316.175781 614.484375 313.757812 618.285156 312.378906 C 621.277344 311.226562 623.925781 309.382812 626.34375 307.3125 C 628.300781 305.699219 630.027344 303.972656 631.410156 301.785156 C 634.519531 296.949219 633.941406 293.148438 629.453125 289.464844 C 628.1875 288.429688 626.574219 287.738281 625.769531 286.242188 C 625.882812 285.320312 626.460938 284.746094 627.035156 284.167969 C 628.53125 282.558594 630.144531 281.0625 631.410156 279.335938 C 634.863281 274.5 634.058594 269.203125 629.335938 265.632812 C 627.148438 264.023438 624.617188 263.101562 621.96875 262.523438 C 618.746094 261.835938 615.40625 261.375 611.953125 261.488281 C 607.578125 261.605469 603.203125 261.144531 598.941406 260.453125 C 593.875 259.648438 589.15625 258.148438 585.011719 255.15625 C 583.628906 254.234375 582.25 253.199219 580.980469 252.164062 C 575.570312 248.019531 569.582031 246.867188 562.90625 247.902344 C 557.265625 248.824219 551.851562 250.550781 546.671875 252.96875 C 540.683594 255.617188 535.042969 258.839844 529.402344 262.179688 C 523.644531 265.519531 517.890625 268.972656 511.785156 271.851562 C 503.957031 275.535156 495.898438 277.953125 487.261719 278.757812 C 482.886719 279.21875 478.628906 279.679688 474.367188 280.945312 C 464.121094 284.167969 456.636719 290.734375 451.226562 299.941406 C 449.382812 303.167969 447.773438 306.503906 446.160156 309.730469 C 444.894531 312.261719 443.511719 314.796875 441.785156 316.984375 C 438.792969 320.898438 434.992188 323.316406 430.042969 323.890625 C 428.660156 324.007812 427.394531 324.351562 426.128906 324.464844 C 417.261719 325.273438 409.316406 328.609375 401.835938 333.445312 C 397.804688 336.09375 393.660156 338.628906 389.515625 341.160156 C 386.0625 343.234375 382.492188 344.960938 378.578125 346.226562 C 375.125 347.261719 371.785156 347.722656 368.214844 347.261719 C 362.457031 346.457031 357.164062 344.84375 351.980469 342.195312 C 345.648438 338.972656 340.125 334.714844 334.941406 329.878906 C 327.113281 322.394531 321.125 313.527344 315.253906 304.546875 C 314.21875 302.9375 314.679688 302.246094 316.75 302.015625 C 322.851562 301.554688 328.609375 299.828125 334.25 297.753906 C 348.757812 292.574219 362.804688 286.355469 376.734375 279.679688 C 378.691406 278.757812 380.535156 277.605469 382.492188 276.570312 C 385.484375 274.730469 388.480469 272.773438 391.011719 270.46875 C 393.660156 268.050781 395.730469 265.171875 396.882812 261.832031 C 397.113281 261.144531 397 260.453125 396.308594 260.105469 C 395.960938 259.875 395.273438 259.875 394.925781 260.105469 C 392.164062 261.71875 389.746094 263.792969 387.328125 265.863281 C 382.378906 270.238281 376.964844 273.808594 370.980469 276.570312 C 359.8125 281.636719 348.527344 286.128906 336.667969 289.464844 C 329.300781 291.539062 321.703125 293.265625 313.988281 293.726562 C 300.171875 294.53125 287.96875 289.925781 277.375 281.175781 C 269.890625 275.074219 263.675781 267.820312 258.378906 259.875 C 255.730469 255.847656 253.199219 251.585938 250.664062 247.558594 C 249.511719 245.714844 248.476562 243.757812 247.09375 242.144531 C 243.410156 237.886719 238.921875 235.125 232.933594 236.964844 C 232.128906 237.195312 231.320312 237.425781 230.515625 237.539062 C 229.363281 237.65625 228.214844 237.65625 227.0625 237.65625 C 226.832031 237.65625 226.257812 237.425781 226.257812 237.195312 C 226.140625 236.734375 226.140625 236.160156 226.488281 235.8125 C 226.945312 235.125 227.636719 234.664062 228.328125 234.203125 C 230.515625 232.707031 233.050781 231.785156 235.582031 230.75 C 236.503906 230.402344 237.425781 229.941406 238.230469 229.367188 C 238.691406 229.019531 238.921875 228.214844 238.804688 227.523438 C 238.574219 226.601562 238.113281 225.914062 237.195312 225.796875 C 236.15625 225.683594 235.121094 225.683594 234.199219 225.914062 C 231.550781 226.601562 229.019531 227.292969 226.488281 228.101562 C 224.875 228.558594 223.378906 229.25 221.652344 229.597656 C 220.613281 229.828125 219.234375 230.289062 218.542969 228.90625 C 217.964844 227.640625 218.886719 226.601562 219.695312 225.796875 C 220.5 224.992188 221.535156 224.300781 222.457031 223.726562 C 224.53125 222.574219 226.71875 221.882812 229.132812 221.539062 C 230.402344 221.308594 231.78125 221.078125 233.050781 220.617188 C 233.855469 220.386719 234.316406 219.582031 234.199219 218.542969 C 234.085938 217.621094 233.507812 216.933594 232.703125 216.816406 C 231.4375 216.585938 230.054688 216.472656 228.675781 216.585938 C 224.875 216.933594 221.074219 217.507812 217.160156 217.96875 C 216.125 218.082031 215.203125 218.082031 214.167969 218.082031 C 213.476562 218.082031 213.132812 217.046875 213.476562 216.585938 C 213.9375 215.894531 214.511719 215.207031 215.089844 214.746094 C 216.929688 213.246094 219.117188 212.328125 221.421875 211.75 C 223.148438 211.289062 224.988281 210.945312 226.71875 210.371094 C 227.523438 210.140625 228.214844 209.5625 228.097656 208.527344 C 227.984375 207.605469 227.175781 207.144531 226.371094 207.03125 C 224.183594 206.570312 221.996094 206.570312 219.925781 207.144531 C 217.738281 207.722656 215.550781 207.261719 213.476562 206.683594 C 210.136719 205.765625 209.332031 203.460938 211.402344 200.699219 C 211.980469 199.890625 212.785156 199.203125 213.589844 198.625 C 215.433594 197.359375 217.507812 196.785156 219.695312 196.554688 C 227.175781 195.746094 233.96875 197.703125 240.417969 201.390625 C 247.324219 205.304688 253.199219 210.601562 257.917969 216.933594 C 259.992188 219.695312 262.179688 222.574219 264.367188 225.335938 C 266.4375 227.984375 268.972656 229.480469 272.308594 229.941406 C 278.179688 230.746094 283.707031 232.707031 289.003906 235.351562 C 296.71875 239.152344 303.972656 243.527344 310.535156 249.054688 C 311.914062 250.207031 313.414062 251.355469 314.910156 252.394531 C 318.824219 254.8125 321.585938 254.464844 324.695312 251.011719 C 326.078125 249.515625 327.226562 247.902344 328.265625 246.175781 C 333.101562 238.347656 339.894531 232.9375 348.527344 229.710938 C 348.988281 229.480469 349.449219 229.25 349.910156 229.136719 C 354.976562 227.753906 358.082031 224.414062 360.269531 219.695312 C 361.769531 216.355469 363.839844 213.246094 365.914062 210.253906 C 369.367188 205.074219 374.316406 201.621094 380.304688 199.777344 C 384.679688 198.394531 389.054688 197.359375 393.660156 198.742188 C 394.121094 198.855469 394.8125 198.855469 394.8125 198.28125 C 394.925781 197.820312 394.695312 197.359375 394.351562 196.898438 C 393.085938 195.171875 391.242188 194.367188 389.285156 193.789062 C 385.832031 192.753906 382.375 192.523438 378.808594 193.097656 C 369.597656 194.710938 362.6875 199.433594 358.429688 207.722656 C 356.355469 211.75 354.628906 215.894531 353.476562 220.386719 C 352.902344 222.6875 351.636719 224.183594 349.332031 224.992188 C 347.144531 225.796875 345.074219 226.832031 342.886719 227.753906 C 334.480469 231.09375 327.804688 236.390625 323.199219 244.101562 C 322.390625 245.371094 321.472656 246.519531 320.433594 247.671875 C 319.859375 248.363281 318.9375 248.59375 318.132812 247.902344 C 317.210938 247.210938 316.289062 246.40625 315.484375 245.601562 C 311.683594 242.03125 307.65625 238.808594 303.164062 236.042969 C 299.25 233.511719 295.105469 231.207031 290.847656 229.367188 C 289.347656 228.675781 288.429688 227.871094 288.3125 226.144531 C 288.199219 224.300781 287.621094 222.574219 286.585938 220.960938 C 285.320312 219.121094 283.246094 219.351562 282.097656 221.191406 C 281.289062 222.457031 281.867188 224.183594 280.597656 225.453125 C 278.179688 225.105469 275.761719 224.644531 273.230469 224.53125 C 270.699219 224.414062 268.855469 223.148438 267.359375 221.191406 C 263.789062 216.125 260.449219 210.945312 256.304688 206.109375 C 258.839844 204.726562 261.027344 203.691406 263.214844 202.425781 C 267.359375 199.890625 271.042969 196.667969 274.613281 193.328125 C 278.527344 189.644531 282.441406 185.960938 286.472656 182.507812 C 294.875 175.484375 304.085938 174.332031 314.101562 178.9375 C 314.679688 179.167969 315.253906 179.515625 315.945312 179.742188 C 317.558594 180.320312 318.824219 181.242188 319.859375 182.621094 C 325.960938 190.222656 334.019531 193.445312 343.578125 193.675781 C 347.261719 193.789062 350.945312 193.214844 354.628906 192.753906 C 359.925781 192.0625 365.335938 191.601562 370.519531 190.683594 C 382.148438 188.496094 391.933594 183.082031 398.609375 172.949219 C 399.1875 172.144531 399.53125 171.222656 400.683594 170.648438 C 401.144531 171.339844 401.605469 172.03125 402.066406 172.605469 C 402.984375 173.757812 403.90625 175.023438 405.058594 175.945312 C 409.433594 179.628906 416.226562 179.742188 420.371094 176.289062 C 423.132812 173.871094 423.710938 170.992188 422.097656 167.769531 C 420.945312 165.46875 418.296875 165.238281 416.917969 167.425781 C 416.570312 168 416.457031 168.691406 416.109375 169.265625 C 414.960938 171.339844 413.234375 172.03125 411.046875 171.222656 C 408.28125 170.1875 406.09375 168.347656 404.484375 165.929688 C 403.792969 164.890625 403.675781 163.742188 404.253906 162.589844 C 405.75 159.25 407.359375 155.910156 410.355469 153.492188 C 411.046875 153.03125 411.621094 152.34375 412.65625 152.6875 C 413.003906 153.722656 413.234375 154.875 413.691406 155.910156 C 415.648438 160.746094 419.21875 163.394531 424.402344 163.625 C 426.359375 163.742188 428.429688 163.625 430.386719 163.394531 C 432.921875 163.050781 435.222656 162.011719 437.066406 160.171875 C 440.519531 156.601562 440.75 151.191406 437.640625 147.390625 C 436.835938 146.46875 435.796875 145.78125 434.53125 146.125 C 433.265625 146.46875 432.574219 147.390625 432.460938 148.65625 C 432.34375 149.464844 432.574219 150.386719 432.230469 151.191406 C 430.617188 156.027344 426.816406 158.558594 421.753906 155.105469 C 420.371094 154.070312 419.566406 152.6875 418.644531 151.191406 C 417.378906 148.886719 417.148438 147.046875 419.335938 144.972656 C 421.0625 143.363281 422.210938 141.289062 423.480469 139.332031 C 426.128906 135.1875 427.96875 130.8125 427.277344 125.632812 L 427.394531 125.746094 C 426.011719 125.285156 424.746094 125.402344 423.941406 126.898438 C 423.25 128.394531 422.558594 129.890625 421.867188 131.503906 C 419.335938 137.488281 415.765625 142.671875 410.816406 146.929688 C 409.894531 147.738281 409.085938 148.542969 408.167969 149.234375 C 404.710938 151.996094 402.179688 155.449219 400.335938 159.480469 C 399.1875 162.242188 397.691406 164.890625 396.308594 167.539062 C 392.394531 174.679688 386.523438 179.742188 378.921875 182.851562 C 375.46875 184.234375 372.015625 185.5 368.332031 185.960938 C 363.726562 186.535156 359.003906 187.226562 354.398438 187.804688 C 350.714844 188.148438 347.03125 188.722656 343.347656 188.609375 C 332.410156 188.492188 323.890625 184.117188 319.167969 173.757812 C 319.054688 173.640625 319.054688 173.410156 318.9375 173.296875 C 315.023438 165.699219 311.222656 158.097656 307.195312 150.5 C 301.4375 139.792969 299.941406 128.394531 301.667969 116.421875 C 302.128906 113.082031 302.359375 109.742188 304.660156 106.980469 C 304.777344 106.863281 304.777344 106.632812 304.777344 106.519531 C 304.890625 106.175781 304.890625 105.828125 304.433594 105.714844 C 304.316406 105.597656 304.085938 105.597656 303.972656 105.597656 C 303.511719 105.714844 303.050781 105.828125 302.589844 106.058594 C 297.640625 108.015625 294.300781 106.519531 292.113281 101.800781 C 291.421875 100.1875 291.078125 98.574219 291.078125 96.964844 C 290.960938 92.242188 292.6875 88.097656 295.453125 84.414062 C 298.097656 80.84375 301.554688 78.195312 304.777344 75.316406 C 306.964844 77.160156 309.035156 78.886719 311.109375 80.613281 C 309.84375 81.996094 308.578125 83.148438 307.65625 84.414062 C 305.351562 87.40625 303.972656 90.746094 304.316406 94.660156 C 305.007812 102.488281 313.527344 107.324219 320.320312 103.640625 C 322.277344 102.605469 323.773438 100.992188 324.351562 98.804688 C 324.578125 97.769531 323.773438 96.042969 322.96875 95.8125 C 322.046875 95.582031 321.472656 96.273438 320.894531 96.964844 C 320.664062 97.195312 320.550781 97.539062 320.320312 97.769531 C 318.132812 99.839844 315.828125 99.726562 313.871094 97.421875 C 312.722656 96.042969 312.375 94.546875 312.261719 92.820312 C 312.144531 89.132812 313.527344 85.910156 315.023438 82.800781 C 315.371094 81.996094 316.175781 81.535156 317.097656 81.535156 C 320.433594 81.652344 322.738281 79.808594 325.5 77.160156 C 326.078125 78.082031 326.652344 79.003906 327.226562 79.691406 C 328.953125 81.652344 331.257812 82.6875 333.789062 83.03125 C 337.589844 83.722656 341.734375 81.765625 343.230469 78.773438 C 343.578125 77.964844 343.691406 77.160156 343.117188 76.355469 C 342.539062 75.546875 341.734375 75.546875 340.929688 76.125 C 340.699219 76.355469 340.351562 76.585938 340.121094 76.699219 C 337.476562 77.734375 335.171875 77.160156 333.214844 75.203125 C 331.371094 73.359375 331.257812 71.058594 332.292969 68.753906 C 333.214844 66.683594 334.597656 65.070312 336.324219 63.691406 C 338.050781 62.308594 339.894531 61.273438 341.621094 59.890625 C 343.460938 58.507812 345.417969 57.128906 347.261719 55.628906 C 348.414062 54.710938 349.449219 53.558594 349.910156 52.0625 C 350.140625 51.253906 350.253906 50.449219 349.5625 49.757812 C 348.988281 49.296875 348.414062 49.296875 347.722656 49.527344 C 347.144531 49.757812 346.457031 49.988281 345.878906 50.335938 C 342.195312 52.292969 338.511719 54.25 334.941406 56.4375 C 328.378906 60.351562 323.660156 65.417969 324.351562 73.707031 C 324.464844 74.398438 324.121094 74.972656 323.429688 75.316406 C 321.472656 76.355469 319.515625 77.046875 317.210938 76.355469 C 313.183594 75.089844 310.535156 72.441406 309.726562 68.296875 C 308.808594 64.265625 309.726562 60.582031 313.066406 57.933594 C 314.679688 56.667969 316.40625 55.746094 318.246094 54.941406 C 321.125 53.558594 324.003906 52.175781 326.765625 50.679688 C 328.378906 49.757812 329.992188 48.835938 330.914062 47.109375 C 331.140625 46.765625 331.257812 46.074219 331.027344 45.730469 C 330.796875 45.382812 330.222656 45.152344 329.761719 45.269531 C 325.269531 46.074219 321.011719 47.457031 316.75 49.066406 C 314.5625 49.875 312.375 50.792969 310.417969 51.945312 C 305.582031 54.710938 302.933594 58.96875 302.472656 64.609375 C 302.359375 65.761719 302.703125 67.027344 301.898438 68.066406 C 295.566406 68.066406 290.960938 64.496094 289.117188 58.164062 C 287.390625 52.0625 289.925781 46.648438 295.679688 44.117188 C 297.753906 43.195312 299.828125 42.851562 302.015625 42.734375 C 305.699219 42.621094 309.382812 43.082031 312.953125 43.773438 C 314.5625 44.117188 316.175781 44.691406 317.785156 43.65625 C 317.902344 41.355469 315.828125 40.664062 314.332031 39.855469 C 308.230469 36.289062 301.667969 35.710938 294.875 37.554688 C 282.554688 40.777344 277.261719 52.980469 282.785156 64.035156 C 283.246094 64.839844 284.054688 65.648438 283.707031 66.796875 C 283.363281 66.914062 283.132812 67.027344 282.785156 67.144531 C 282.324219 67.257812 281.75 67.257812 281.289062 67.375 C 275.417969 68.527344 270.699219 71.402344 266.898438 75.894531 C 265.285156 77.851562 264.019531 80.039062 263.097656 82.339844 C 259.988281 90.859375 264.710938 99.035156 270.582031 101.570312 C 273.230469 102.71875 273.117188 102.835938 272.539062 105.484375 C 272.195312 107.09375 272.078125 108.820312 272.195312 110.433594 C 272.886719 118.609375 281.980469 124.363281 289.578125 121.488281 C 290.847656 121.027344 291.996094 120.335938 292.457031 118.953125 C 292.6875 118.261719 292.226562 116.996094 291.535156 116.882812 C 290.730469 116.765625 289.925781 116.882812 289.003906 116.765625 C 284.054688 116.304688 280.597656 113.425781 279.21875 108.707031 C 278.988281 107.902344 278.871094 107.09375 278.640625 106.289062 C 277.949219 103.066406 277.949219 102.949219 281.289062 101.570312 C 281.980469 101.222656 282.785156 100.761719 283.59375 101.109375 C 287.96875 109.28125 288.773438 109.859375 298.675781 112.390625 C 298.789062 112.507812 298.90625 112.738281 298.789062 112.851562 C 298.675781 113.195312 298.675781 113.542969 298.445312 113.773438 C 295.105469 122.636719 295.222656 131.847656 296.949219 140.945312 C 297.867188 145.894531 299.480469 150.730469 302.242188 154.992188 C 305.351562 159.710938 308.578125 164.429688 311.800781 169.152344 Z M 367.292969 352.097656 C 371.898438 352.90625 376.273438 352.328125 380.648438 350.71875 C 384.105469 349.449219 387.441406 347.839844 390.550781 345.882812 C 394.464844 343.578125 398.265625 341.160156 402.179688 338.859375 C 408.742188 334.828125 415.652344 332.179688 423.480469 332.179688 C 425.089844 332.179688 426.820312 331.835938 428.429688 331.605469 C 434.417969 331.144531 439.253906 328.496094 443.28125 324.234375 C 446.621094 320.667969 449.382812 316.636719 451.800781 312.492188 C 453.53125 309.613281 455.140625 306.621094 456.984375 303.859375 C 461.933594 296.257812 468.726562 291.078125 477.59375 288.890625 C 479.664062 288.316406 481.851562 287.738281 483.925781 287.394531 C 492.675781 285.667969 500.964844 282.558594 508.910156 278.414062 C 515.703125 274.84375 522.492188 271.160156 529.285156 267.476562 C 535.390625 264.25 541.375 261.027344 547.824219 258.609375 C 553.695312 256.421875 559.566406 254.8125 565.898438 254.8125 C 569.699219 254.8125 573.269531 255.386719 576.492188 257.34375 C 584.78125 262.292969 593.761719 264.25 603.203125 265.171875 C 607.347656 265.519531 611.492188 266.324219 615.636719 267.015625 C 618.285156 267.476562 620.703125 268.625 622.890625 270.238281 C 624.847656 271.734375 625.078125 272.886719 623.695312 274.84375 C 623.121094 275.648438 622.429688 276.457031 621.855469 277.261719 C 621.164062 278.183594 620.472656 279.105469 619.898438 280.140625 C 617.480469 284.398438 618.285156 287.738281 622.199219 290.617188 C 623.582031 291.652344 624.960938 292.460938 626.34375 293.496094 C 627.265625 294.1875 627.378906 295.222656 626.691406 296.144531 C 625.769531 297.296875 624.730469 298.445312 623.582031 299.367188 C 620.472656 302.015625 617.019531 303.972656 613.21875 305.355469 C 610.800781 306.277344 608.730469 307.65625 606.773438 309.152344 C 600.554688 313.757812 594.796875 318.824219 590.308594 325.273438 C 587.082031 329.761719 582.707031 332.757812 577.527344 334.484375 C 574.648438 335.402344 571.769531 336.324219 569.007812 337.363281 C 566.820312 338.167969 564.519531 338.859375 562.445312 339.777344 C 556.457031 342.3125 551.507812 346.34375 548.054688 351.867188 C 546.441406 354.402344 544.945312 357.050781 543.449219 359.699219 C 541.722656 362.574219 540.109375 365.453125 537.921875 368.101562 C 536.886719 369.367188 535.734375 370.636719 534.46875 371.785156 C 530.554688 375.46875 525.949219 377.542969 520.304688 376.851562 C 515.472656 376.277344 510.75 375.46875 506.03125 374.089844 C 498.429688 371.902344 491.0625 369.136719 483.808594 366.144531 C 476.785156 363.265625 469.417969 362.113281 461.820312 361.65625 C 451.113281 360.964844 441.210938 363.152344 431.652344 367.527344 C 428.429688 369.023438 425.207031 370.289062 421.867188 371.554688 C 415.191406 373.972656 408.511719 374.320312 401.605469 372.476562 C 395.734375 370.863281 390.207031 368.675781 384.792969 366.03125 C 384.21875 365.683594 383.414062 365.570312 383.757812 364.648438 C 383.988281 364.074219 384.566406 364.1875 385.023438 364.1875 C 390.4375 364.300781 395.734375 363.84375 401.027344 362.921875 C 410.816406 361.308594 419.566406 357.394531 427.625 351.753906 C 428.199219 351.40625 428.660156 350.945312 429.121094 350.371094 C 429.234375 350.140625 429.351562 349.679688 429.121094 349.449219 C 429.007812 349.21875 428.546875 348.988281 428.316406 349.105469 C 427.046875 349.449219 425.667969 349.679688 424.402344 350.140625 C 420.484375 351.40625 416.457031 352.90625 412.542969 354.171875 C 404.367188 356.820312 395.960938 358.199219 387.328125 357.625 C 380.417969 357.28125 373.742188 355.898438 366.949219 354.515625 C 365.683594 354.285156 364.417969 353.824219 363.609375 351.984375 C 364.992188 351.523438 366.144531 351.984375 367.292969 352.097656 Z M 220.960938 189.644531 C 217.851562 189.644531 214.972656 190.453125 212.324219 191.832031 C 209.90625 193.097656 207.949219 194.828125 206.570312 197.246094 C 204.152344 201.734375 205.1875 205.535156 209.445312 208.414062 C 209.792969 208.640625 210.484375 208.640625 210.484375 209.449219 C 210.253906 209.5625 210.023438 209.910156 209.90625 209.910156 C 192.175781 207.144531 174.90625 202.769531 157.40625 198.742188 C 157.292969 198.050781 157.0625 197.589844 157.175781 197.128906 C 158.789062 190.105469 158.097656 183.199219 156.601562 176.289062 C 154.527344 167.078125 153.148438 157.867188 153.148438 148.429688 C 153.148438 146.125 153.261719 143.707031 153.722656 141.40625 C 154.757812 136.570312 156.945312 132.308594 160.398438 128.738281 C 161.898438 127.242188 163.507812 125.746094 165.234375 124.363281 C 175.714844 115.269531 184.808594 105.136719 189.527344 91.78125 C 189.644531 91.320312 189.875 90.859375 190.566406 90.859375 C 191.140625 90.859375 191.371094 91.320312 191.484375 91.898438 C 191.714844 92.359375 191.832031 92.820312 192.0625 93.277344 C 203 120.566406 213.9375 147.96875 224.875 175.253906 C 226.71875 179.859375 228.445312 184.578125 230.402344 189.761719 C 226.601562 189.644531 223.722656 189.644531 220.960938 189.644531 Z M 156.714844 338.050781 C 154.066406 330.109375 151.417969 322.164062 148.886719 314.21875 C 147.734375 310.765625 146.699219 307.195312 145.664062 303.628906 C 143.015625 294.1875 143.015625 284.746094 145.433594 275.304688 C 146.007812 273.230469 146.585938 271.042969 147.160156 268.972656 C 149.230469 261.949219 151.417969 254.8125 151.878906 247.441406 C 151.996094 245.714844 152.800781 244.679688 154.414062 244.21875 C 156.484375 243.644531 158.558594 242.953125 160.628906 242.261719 C 162.472656 241.6875 164.316406 241.570312 166.042969 241.914062 C 169.378906 242.492188 172.605469 243.066406 175.828125 244.105469 C 183.082031 246.636719 190.335938 249.167969 197.589844 251.703125 C 204.957031 254.351562 212.441406 256.882812 220.269531 257.917969 C 221.652344 258.148438 221.996094 258.957031 221.191406 259.992188 C 220.730469 260.566406 220.269531 261.027344 219.925781 261.488281 C 215.78125 266.785156 211.402344 271.851562 207.605469 277.378906 C 198.96875 290.15625 189.070312 302.015625 179.28125 313.875 C 173.066406 321.472656 166.734375 329.1875 160.398438 336.785156 C 159.59375 337.820312 159.019531 339.089844 157.40625 339.550781 C 157.175781 339.203125 156.945312 338.742188 156.714844 338.050781 Z M 226.257812 251.585938 C 215.320312 251.011719 204.839844 248.25 194.59375 244.332031 C 188.261719 241.917969 181.929688 238.921875 175.253906 237.539062 C 172.488281 236.964844 169.609375 236.503906 166.847656 236.160156 C 163.855469 235.699219 160.859375 236.273438 157.867188 236.964844 C 156.714844 237.195312 155.910156 236.851562 155.679688 235.582031 C 155.566406 234.894531 155.449219 234.316406 155.335938 233.625 C 154.988281 231.554688 152.917969 230.171875 152.570312 228.445312 C 152.226562 226.601562 154.644531 225.222656 155.105469 223.265625 C 155.449219 221.191406 154.988281 219.234375 153.835938 217.621094 C 153.261719 216.816406 153.378906 216.125 154.066406 215.433594 C 155.21875 214.398438 156.023438 213.132812 156.714844 211.75 C 158.210938 208.414062 158.328125 208.296875 161.78125 209.101562 C 172.027344 211.40625 182.277344 213.824219 192.523438 216.242188 C 196.089844 217.046875 199.777344 217.738281 203.34375 218.429688 C 205.761719 218.890625 208.296875 219.234375 210.367188 220.960938 C 211.863281 222.226562 213.9375 221.539062 215.664062 221.996094 C 215.894531 223.609375 214.742188 224.644531 214.398438 225.914062 C 213.246094 229.941406 216.007812 233.511719 219.695312 233.050781 C 220.15625 233.050781 220.730469 233.050781 221.191406 233.050781 C 221.535156 233.050781 221.882812 233.164062 222.226562 233.28125 C 222.226562 233.742188 222.226562 234.203125 222.113281 234.546875 C 221.652344 238.460938 222.917969 240.417969 226.71875 240.765625 C 229.136719 240.996094 231.78125 240.765625 234.199219 240.535156 C 241.914062 239.84375 241.683594 239.5 245.023438 246.980469 C 245.484375 248.019531 246.175781 249.054688 246.058594 250.78125 C 239.265625 252.394531 232.703125 252.046875 226.257812 251.585938 Z M 149.921875 185.617188 C 146.007812 178.59375 142.09375 171.570312 139.332031 164.085938 C 135.648438 153.953125 135.992188 143.707031 138.523438 133.460938 C 140.710938 124.136719 145.085938 115.960938 151.417969 108.707031 C 154.757812 104.90625 158.210938 101.339844 161.667969 97.652344 C 164.316406 94.890625 166.960938 92.011719 169.152344 88.789062 C 174.214844 81.304688 176.402344 73.015625 175.367188 64.035156 C 175.023438 61.15625 174.214844 58.394531 172.835938 55.976562 C 169.839844 50.449219 165.121094 47.800781 159.019531 47.339844 C 156.945312 47.226562 154.988281 47.570312 153.261719 48.609375 C 150.960938 49.988281 150.960938 52.40625 153.261719 53.789062 C 153.378906 53.902344 153.609375 53.902344 153.722656 54.019531 C 154.527344 54.132812 155.449219 54.363281 155.679688 55.285156 C 155.910156 56.550781 155.105469 57.472656 154.066406 58.164062 C 151.648438 59.890625 148.195312 59.773438 146.125 57.933594 C 143.707031 55.628906 143.128906 51.484375 144.855469 48.722656 C 146.355469 46.417969 148.65625 45.039062 151.304688 44.117188 C 156.484375 42.390625 161.550781 42.851562 166.617188 44.691406 C 177.441406 48.835938 183.425781 57.128906 185.382812 68.296875 C 186.882812 76.929688 185.152344 85.335938 181.125 93.164062 C 178.015625 99.152344 173.984375 104.445312 169.265625 109.28125 C 165.234375 113.3125 161.207031 117.34375 157.0625 121.140625 C 149.808594 127.933594 146.355469 136.453125 146.007812 146.242188 C 145.546875 157.523438 146.929688 168.691406 149.578125 179.628906 C 150.152344 181.703125 150.613281 183.773438 151.191406 186.421875 C 150.269531 185.730469 150.039062 185.730469 149.921875 185.617188 Z M 146.816406 366.144531 C 144.628906 368.792969 142.09375 370.980469 139.101562 372.476562 C 131.847656 376.046875 125.054688 374.894531 118.835938 370.058594 C 111.699219 364.53125 112.503906 354.515625 117.457031 348.988281 C 118.261719 348.183594 119.296875 347.492188 120.21875 346.917969 C 120.792969 346.570312 121.601562 346.457031 122.0625 346.917969 C 122.40625 347.148438 122.519531 347.839844 122.40625 348.300781 C 122.292969 349.449219 121.945312 350.601562 121.945312 351.753906 C 121.832031 357.96875 127.472656 361.886719 133.230469 359.8125 C 135.875 358.890625 137.71875 357.050781 139.214844 354.632812 C 140.941406 351.867188 141.75 348.875 141.980469 345.652344 C 142.324219 340.46875 141.863281 335.289062 140.136719 330.339844 C 138.640625 325.964844 136.914062 321.589844 135.1875 317.214844 C 133.34375 312.261719 131.273438 307.195312 129.542969 302.246094 C 125.398438 290.503906 125.976562 278.875 130.121094 267.359375 C 132.882812 259.648438 137.144531 252.507812 140.597656 245.140625 C 140.828125 244.792969 141.289062 244.332031 141.75 244.332031 C 142.09375 244.332031 142.667969 244.792969 142.785156 245.140625 C 143.9375 248.363281 144.511719 251.585938 143.589844 255.042969 C 142.667969 258.265625 141.75 261.488281 140.828125 264.710938 C 138.066406 273.921875 136.683594 283.363281 137.949219 293.035156 C 138.640625 298.214844 139.90625 303.167969 141.519531 308.117188 C 143.476562 313.875 145.433594 319.515625 147.390625 325.273438 C 149.003906 329.992188 150.382812 334.828125 151.417969 339.78125 C 151.996094 342.773438 152.226562 345.765625 152.339844 348.757812 C 152.457031 354.863281 150.960938 360.847656 146.816406 366.144531 Z M 295.453125 75.203125 C 289.578125 79.003906 285.78125 84.296875 284.285156 91.207031 C 283.59375 94.199219 282.902344 94.777344 280.140625 95.121094 C 274.265625 95.8125 269.660156 90.285156 271.042969 84.296875 C 271.503906 82.339844 272.425781 80.5 273.691406 78.886719 C 277.144531 74.398438 281.867188 71.519531 287.046875 69.445312 C 287.738281 69.214844 288.429688 69.101562 289.003906 69.445312 C 291.652344 71.289062 294.644531 72.09375 298.675781 73.128906 C 296.832031 74.28125 296.140625 74.742188 295.453125 75.203125 Z M 138.523438 213.59375 C 136.914062 213.246094 136.222656 211.636719 136.796875 210.140625 C 137.488281 208.527344 138.640625 207.375 140.253906 206.800781 C 143.820312 205.648438 147.503906 205.648438 151.074219 206.800781 C 153.609375 207.605469 153.953125 210.140625 151.996094 211.867188 C 150.960938 212.789062 149.691406 213.246094 148.425781 213.476562 C 147.964844 213.59375 147.390625 213.707031 146.929688 213.707031 C 145.546875 213.824219 144.28125 213.824219 142.554688 213.9375 C 141.402344 213.824219 139.90625 213.824219 138.523438 213.59375 Z M 147.734375 230.171875 C 150.960938 230.976562 151.878906 234.433594 149.578125 236.734375 C 146.585938 239.730469 140.023438 239.269531 137.488281 235.699219 C 136.335938 234.085938 136.796875 232.015625 138.523438 230.976562 C 140.023438 230.058594 140.367188 229.941406 145.546875 229.941406 C 145.433594 229.941406 146.585938 229.828125 147.734375 230.171875 Z M 138.640625 224.761719 C 137.71875 224.414062 137.027344 223.609375 136.796875 222.574219 C 136.566406 221.539062 137.144531 220.386719 137.949219 220.15625 C 141.058594 219.464844 144.167969 218.773438 147.273438 219.464844 C 148.195312 219.695312 149.117188 220.15625 149.921875 220.730469 C 150.84375 221.308594 151.417969 222.113281 151.304688 223.265625 C 151.304688 224.644531 150.382812 225.453125 149.230469 225.796875 C 148.195312 226.144531 146.929688 226.144531 146.699219 226.144531 C 143.359375 226.027344 140.941406 225.683594 138.640625 224.761719 Z M 559.914062 205.765625 C 564.519531 204.957031 569.125 204.039062 573.269531 201.734375 C 576.144531 200.238281 578.5625 198.164062 580.0625 195.171875 C 582.25 190.796875 581.328125 186.535156 577.527344 183.542969 C 576.492188 182.738281 575.226562 182.160156 574.1875 181.355469 C 573.957031 181.242188 574.074219 180.78125 573.957031 180.550781 C 573.957031 180.433594 574.074219 180.203125 574.1875 180.203125 C 574.878906 180.089844 575.457031 179.859375 576.144531 179.746094 C 582.59375 178.59375 588.925781 176.980469 594.914062 174.332031 C 598.828125 172.605469 602.398438 170.535156 605.503906 167.65625 C 607.347656 165.929688 608.84375 163.972656 609.765625 161.554688 C 611.378906 157.292969 610.457031 153.148438 606.886719 150.269531 C 605.621094 149.234375 604.125 148.542969 602.625 147.621094 C 601.820312 147.160156 600.667969 147.160156 600.554688 145.78125 C 602.625 145.089844 604.699219 144.511719 606.773438 143.824219 C 608.960938 143.015625 611.261719 142.324219 613.335938 141.40625 C 617.480469 139.5625 621.394531 137.261719 624.617188 134.035156 C 626.574219 132.078125 628.070312 129.890625 628.761719 127.242188 C 630.027344 122.753906 628.53125 118.839844 624.503906 116.421875 C 622.429688 115.269531 620.242188 114.578125 617.824219 114.234375 C 614.832031 113.886719 611.835938 113.542969 608.84375 113.195312 C 608.269531 113.082031 607.460938 113.195312 607.578125 111.929688 C 609.417969 111.125 611.378906 110.203125 613.335938 109.28125 C 621.164062 105.828125 628.878906 102.375 636.359375 98.113281 C 639.585938 96.273438 642.691406 94.316406 645.339844 91.78125 C 647.066406 90.171875 648.566406 88.445312 649.601562 86.257812 C 651.558594 81.996094 650.636719 77.851562 646.953125 74.972656 C 644.996094 73.359375 642.578125 72.441406 640.160156 71.980469 C 636.128906 71.289062 632.101562 71.519531 628.1875 72.441406 C 623.925781 73.476562 619.898438 74.859375 615.753906 76.46875 C 606.886719 79.921875 597.90625 83.261719 588.695312 85.679688 C 577.066406 88.671875 565.324219 91.320312 553.582031 94.199219 C 543.101562 96.734375 532.855469 99.726562 523.070312 104.214844 C 510.175781 110.320312 498.890625 118.492188 490.257812 130.121094 C 486.574219 135.074219 483.347656 140.367188 480.46875 145.894531 C 477.132812 152.34375 473.90625 158.675781 470.570312 165.121094 C 467.921875 170.1875 465.042969 175.023438 461.589844 179.628906 C 458.132812 184.234375 454.449219 188.496094 449.84375 191.949219 C 445.929688 194.941406 441.671875 197.359375 436.835938 198.164062 C 430.042969 199.203125 423.59375 198.972656 418.644531 192.984375 C 414.84375 188.496094 409.777344 185.386719 404.136719 183.3125 C 402.066406 182.507812 399.992188 181.933594 397.804688 182.160156 C 397.34375 182.160156 396.882812 182.621094 396.652344 182.96875 C 396.308594 183.429688 396.539062 184.003906 397 184.234375 C 399.070312 185.730469 401.027344 187.226562 403.101562 188.609375 C 408.972656 192.410156 413.578125 197.359375 416.917969 203.578125 C 420.257812 209.792969 422.671875 216.355469 424.171875 223.265625 C 426.242188 232.9375 428.199219 242.605469 430.273438 252.277344 C 431.769531 259.648438 433.839844 266.898438 437.410156 273.691406 C 439.253906 277.261719 441.671875 280.484375 444.664062 283.25 C 446.621094 284.976562 448.695312 286.242188 451.226562 286.933594 C 454.105469 287.738281 456.867188 287.507812 459.171875 285.320312 C 460.898438 283.710938 460.898438 281.523438 459.285156 280.023438 C 458.132812 278.988281 456.867188 278.183594 455.71875 277.261719 C 450.652344 273.460938 447.542969 268.167969 444.550781 262.640625 C 445.007812 262.410156 445.125 262.292969 445.238281 262.292969 C 446.046875 262.410156 446.851562 262.523438 447.65625 262.753906 C 457.445312 265.75 467.34375 266.324219 477.476562 265.058594 C 481.160156 264.597656 484.730469 263.792969 488.070312 262.179688 C 489.566406 261.488281 491.0625 260.566406 492.214844 259.417969 C 494.285156 257.34375 495.09375 254.925781 494.285156 252.046875 C 494.054688 251.125 493.136719 250.4375 493.710938 249.054688 C 495.09375 249.167969 496.589844 249.398438 497.972656 249.628906 C 503.265625 250.4375 508.679688 250.78125 513.972656 250.089844 C 517.3125 249.746094 520.535156 248.59375 523.070312 246.292969 C 526.0625 243.527344 526.753906 239.382812 524.910156 235.8125 C 524.453125 234.894531 523.761719 234.085938 523.183594 233.28125 C 522.722656 232.589844 521.917969 232.128906 522.609375 231.09375 C 523.414062 231.09375 524.222656 230.976562 525.027344 230.976562 C 529.515625 231.09375 534.007812 230.632812 538.496094 230.058594 C 542.527344 229.480469 546.441406 228.5625 550.125 226.949219 C 552.890625 225.683594 555.421875 224.070312 557.265625 221.652344 C 560.488281 217.507812 560.601562 212.789062 557.839844 209.101562 C 557.265625 208.414062 556.226562 207.722656 556.574219 206.570312 C 557.839844 205.648438 558.875 205.878906 559.914062 205.765625 Z M 437.296875 205.304688 C 443.28125 203.921875 448.578125 201.160156 453.414062 197.476562 C 458.480469 193.558594 462.855469 188.953125 466.769531 183.890625 C 470.453125 179.167969 473.792969 174.101562 476.785156 168.804688 C 480.46875 162.472656 484.039062 156.027344 487.722656 149.578125 C 489.796875 146.011719 491.867188 142.324219 494.171875 138.757812 C 503.152344 124.824219 515.355469 114.695312 530.4375 108.015625 C 539.765625 103.871094 549.550781 100.761719 559.453125 98.34375 C 578.792969 93.507812 598.023438 88.445312 616.902344 82.109375 C 620.355469 80.960938 623.925781 80.039062 627.609375 79.347656 C 631.410156 78.65625 635.324219 78.425781 639.007812 80.039062 C 639.816406 80.382812 640.503906 80.84375 641.082031 81.304688 C 641.65625 81.765625 641.773438 82.570312 641.542969 83.148438 C 640.851562 84.296875 640.160156 85.449219 639.238281 86.371094 C 636.9375 88.789062 634.171875 90.746094 631.296875 92.472656 C 626.34375 95.351562 621.277344 97.882812 616.097656 100.300781 C 611.835938 102.257812 607.578125 104.332031 603.433594 106.402344 C 601.589844 107.324219 599.863281 108.363281 598.597656 109.972656 C 596.523438 112.507812 597.5625 115.382812 600.667969 116.074219 C 601.9375 116.304688 603.316406 116.304688 604.699219 116.421875 C 608.5 116.652344 612.414062 116.996094 616.097656 118.03125 C 617.710938 118.492188 619.320312 119.070312 620.585938 120.105469 C 622.199219 121.371094 622.429688 122.753906 621.507812 124.480469 C 620.472656 126.4375 618.746094 127.820312 617.019531 129.085938 C 613.910156 131.386719 610.339844 133 606.773438 134.382812 C 601.476562 136.453125 595.949219 137.835938 590.421875 139.21875 C 588.121094 139.792969 585.933594 140.484375 583.628906 141.058594 C 582.476562 141.40625 581.441406 141.980469 580.636719 142.785156 C 578.792969 144.628906 579.371094 147.621094 581.789062 148.65625 C 582.824219 149.117188 584.089844 149.234375 585.242188 149.347656 C 589.386719 149.808594 593.53125 150.730469 597.445312 152.34375 C 603.316406 154.761719 603.664062 157.0625 598.710938 161.09375 C 595.257812 163.855469 591.457031 165.8125 587.429688 167.539062 C 580.289062 170.535156 572.921875 172.492188 565.4375 174.449219 C 562.558594 175.140625 559.566406 175.828125 556.6875 176.519531 C 555.539062 176.75 554.5 177.210938 553.464844 177.785156 C 552.542969 178.246094 552.082031 179.167969 552.082031 180.320312 C 552.199219 181.355469 552.773438 182.277344 553.808594 182.621094 C 555.421875 183.082031 557.035156 183.429688 558.761719 183.542969 C 562.558594 184.003906 566.359375 184.808594 569.929688 186.308594 C 571.65625 186.996094 573.613281 187.6875 573.84375 189.761719 C 574.074219 192.0625 572.117188 193.214844 570.390625 194.25 C 567.164062 196.09375 563.480469 196.898438 559.914062 197.476562 C 555.996094 198.050781 551.96875 198.625 547.9375 198.742188 C 544.140625 198.855469 540.222656 199.203125 536.425781 199.546875 C 535.273438 199.664062 534.121094 199.890625 532.972656 200.238281 C 531.589844 200.8125 530.898438 202.078125 531.015625 203.460938 C 531.128906 204.726562 531.933594 205.648438 533.085938 205.996094 C 534.238281 206.339844 535.390625 206.453125 536.539062 206.570312 C 540.683594 207.144531 544.714844 208.183594 548.398438 210.371094 C 552.542969 212.789062 552.660156 215.089844 548.746094 217.851562 C 545.980469 219.808594 542.757812 220.847656 539.535156 221.652344 C 534.582031 222.804688 529.632812 223.496094 524.566406 223.609375 C 520.535156 223.726562 516.507812 223.609375 512.476562 223.609375 C 511.324219 223.609375 510.175781 223.496094 508.910156 223.609375 C 507.066406 223.726562 505.914062 224.761719 505.570312 226.144531 C 505.222656 227.753906 505.800781 229.136719 507.179688 230.058594 C 508.449219 230.863281 509.714844 231.554688 511.097656 232.359375 C 513.398438 233.742188 515.585938 235.238281 517.3125 237.3125 C 518.695312 239.039062 518.347656 240.304688 516.277344 241.226562 C 513.972656 242.261719 511.441406 242.722656 508.910156 242.835938 C 502.230469 243.183594 495.554688 242.492188 488.875 241.339844 C 487.03125 240.996094 485.191406 240.648438 483.347656 240.878906 C 481.96875 240.996094 480.816406 241.800781 480.238281 243.066406 C 479.550781 244.449219 480.125 245.714844 481.046875 246.75 C 482.082031 247.902344 483.347656 248.707031 484.386719 249.746094 C 485.304688 250.667969 486.34375 251.585938 487.148438 252.625 C 487.492188 252.96875 487.378906 253.542969 486.917969 253.890625 C 485.765625 254.925781 484.269531 255.386719 482.886719 255.730469 C 476.324219 257.574219 469.648438 257.917969 462.96875 257.460938 C 455.027344 256.882812 447.65625 254.003906 440.402344 250.898438 C 439.023438 250.320312 438.445312 249.167969 438.101562 247.789062 C 437.179688 243.875 436.144531 239.957031 435.339844 236.042969 C 433.957031 229.710938 432.691406 223.265625 431.308594 216.933594 C 430.503906 213.363281 429.351562 209.910156 428.199219 205.765625 C 431.652344 205.765625 434.53125 205.996094 437.296875 205.304688 Z M 415.765625 52.867188 C 415.535156 52.984375 415.074219 53.328125 415.074219 53.441406 C 415.191406 53.902344 415.421875 54.480469 415.765625 54.710938 C 417.953125 55.859375 420.257812 56.898438 422.558594 58.046875 C 430.15625 61.964844 434.992188 68.066406 437.066406 76.355469 C 437.757812 78.886719 438.214844 81.535156 438.675781 84.183594 C 439.367188 88.328125 439.945312 92.472656 440.75 96.617188 C 441.324219 99.726562 442.363281 102.835938 443.972656 105.597656 C 446.390625 109.742188 449.84375 112.390625 454.679688 113.195312 C 458.710938 113.773438 462.28125 112.738281 465.042969 109.511719 C 466.078125 108.363281 466.65625 106.980469 465.964844 105.367188 C 465.503906 104.214844 464.121094 103.640625 463.085938 104.332031 C 462.625 104.5625 462.28125 105.023438 461.933594 105.253906 C 459.285156 107.09375 456.523438 107.09375 454.105469 105.136719 C 452.722656 104.101562 451.800781 102.71875 451.34375 101.109375 C 450.765625 99.382812 450.191406 97.652344 449.84375 95.8125 C 449.039062 90.515625 448.347656 85.21875 447.542969 79.921875 C 447.3125 78.195312 447.886719 77.277344 449.382812 76.355469 C 456.636719 71.863281 458.480469 64.726562 454.21875 57.359375 C 449.613281 49.296875 442.246094 45.382812 433.035156 45.039062 C 432.113281 45.039062 430.847656 44.808594 430.386719 45.960938 C 429.925781 47.226562 431.308594 47.457031 432.113281 47.917969 C 433.839844 48.953125 435.683594 49.875 437.410156 50.796875 C 440.175781 52.292969 442.820312 54.25 445.007812 56.550781 C 446.738281 58.394531 448.117188 60.464844 449.039062 62.882812 C 449.960938 65.417969 449.613281 67.835938 447.886719 69.90625 C 446.507812 71.519531 445.699219 71.519531 444.777344 69.332031 C 443.628906 66.683594 442.246094 64.265625 440.402344 62.078125 C 435.222656 55.628906 428.316406 52.867188 421.292969 52.40625 C 418.644531 52.0625 417.148438 52.175781 415.765625 52.867188 Z M 399.761719 60.121094 C 404.367188 56.320312 406.902344 51.371094 406.554688 45.269531 C 406.210938 38.476562 399.878906 33.753906 393.199219 35.023438 C 391.128906 35.480469 389.398438 36.402344 388.25 38.246094 C 387.328125 39.742188 387.097656 41.355469 388.019531 42.964844 C 388.59375 43.886719 389.515625 44.347656 390.550781 44.003906 C 391.011719 43.886719 391.359375 43.425781 391.816406 43.3125 C 396.078125 41.816406 399.300781 43.886719 399.300781 48.378906 C 399.300781 52.40625 397.460938 55.515625 394.234375 57.703125 C 380.417969 66.796875 364.992188 56.089844 363.957031 45.5 C 363.609375 42.503906 363.378906 39.511719 363.957031 36.519531 C 364.300781 34.90625 364.53125 33.179688 364.648438 31.566406 C 364.761719 30.53125 363.496094 29.726562 362.460938 30.1875 C 361.652344 30.53125 360.960938 30.875 360.273438 31.335938 C 358.429688 32.835938 357.164062 34.90625 356.472656 37.09375 C 353.9375 44.921875 355.320312 52.0625 361.078125 57.933594 C 366.488281 63.574219 373.398438 66.453125 381.226562 66.566406 C 388.019531 66.453125 394.351562 64.496094 399.761719 60.121094 Z M 428.660156 35.367188 C 428.316406 35.597656 427.855469 36.171875 427.855469 36.519531 C 427.855469 36.863281 428.429688 37.441406 428.890625 37.441406 C 431.539062 38.015625 434.1875 38.359375 436.71875 38.9375 C 444.777344 40.433594 452.148438 43.3125 458.363281 48.835938 C 464.121094 53.902344 467.34375 60.351562 468.382812 67.949219 C 468.726562 70.714844 468.382812 73.359375 467.460938 75.894531 C 466.195312 79.464844 463.660156 81.765625 459.746094 82.109375 C 458.710938 82.226562 457.789062 82.226562 456.753906 82.457031 C 455.945312 82.6875 455.257812 83.261719 455.027344 84.183594 C 454.679688 85.335938 455.257812 86.140625 456.175781 86.832031 C 457.789062 87.984375 459.515625 88.214844 461.472656 87.984375 C 465.847656 87.292969 469.300781 85.335938 471.949219 81.765625 C 473.90625 79.117188 475.175781 76.238281 475.75 73.128906 C 477.9375 60.925781 474.484375 50.566406 464.925781 42.621094 C 457.558594 36.519531 448.925781 33.753906 441.324219 33.753906 C 434.648438 33.523438 431.078125 34.101562 428.660156 35.367188 Z M 427.738281 124.480469 C 429.464844 124.136719 430.847656 125.402344 432.460938 125.863281 C 435.570312 126.667969 438.445312 126.324219 441.210938 125.054688 C 443.398438 124.019531 445.125 122.40625 445.929688 120.105469 C 446.160156 119.300781 446.277344 118.492188 446.277344 117.6875 C 446.160156 116.535156 445.125 115.5 443.972656 115.382812 C 442.820312 115.269531 442.015625 115.730469 441.671875 116.882812 C 441.324219 118.03125 441.09375 119.070312 439.714844 119.644531 C 438.5625 120.105469 437.410156 119.988281 436.257812 119.644531 C 432.230469 118.492188 429.695312 115.84375 428.429688 111.929688 C 427.625 109.28125 427.507812 106.632812 427.96875 103.988281 C 428.660156 99.726562 429.351562 95.351562 430.042969 91.089844 C 430.617188 87.984375 430.847656 84.757812 430.503906 81.652344 C 430.042969 75.894531 427.625 71.058594 423.480469 67.027344 C 421.867188 65.53125 420.140625 64.265625 417.839844 64.035156 C 415.304688 63.921875 413.691406 66.109375 414.730469 68.410156 C 415.304688 69.792969 416.226562 71.058594 417.261719 72.09375 C 421.175781 76.355469 422.445312 81.304688 422.097656 86.945312 C 421.753906 92.820312 421.292969 98.574219 420.832031 104.445312 C 420.714844 106.40625 420.484375 108.476562 420.601562 110.433594 C 420.832031 115.15625 422.328125 119.300781 425.898438 122.523438 C 426.589844 123.214844 427.507812 123.789062 427.738281 124.824219 C 427.855469 124.710938 427.738281 124.59375 427.738281 124.480469 Z M 335.863281 2.785156 C 328.378906 4.167969 321.933594 7.390625 317.328125 13.722656 C 314.792969 17.175781 313.527344 21.207031 313.988281 25.582031 C 314.332031 29.265625 316.058594 32.257812 319.054688 34.445312 C 320.320312 35.253906 321.703125 35.941406 323.3125 35.597656 C 325.847656 35.023438 326.421875 33.292969 325.15625 31.566406 C 324.808594 31.105469 324.582031 30.761719 324.234375 30.300781 C 321.816406 27.078125 322.046875 23.738281 323.890625 20.398438 C 325.386719 17.636719 327.457031 15.5625 329.992188 13.835938 C 336.785156 9.460938 343.921875 8.542969 351.636719 11.074219 C 353.019531 11.535156 354.398438 12.226562 355.78125 12.6875 C 356.355469 12.917969 357.164062 12.917969 357.625 12.457031 C 358.3125 11.765625 358.085938 10.84375 357.738281 10.152344 C 356.816406 8.082031 355.089844 6.699219 353.25 5.546875 C 349.449219 3.128906 345.1875 2.4375 340.007812 2.4375 C 339.203125 2.4375 337.476562 2.4375 335.863281 2.785156 Z M 411.851562 16.484375 C 410.46875 11.535156 407.246094 7.964844 402.984375 5.316406 C 398.148438 2.324219 392.855469 0.941406 387.210938 0.941406 C 382.953125 0.941406 378.921875 1.863281 375.238281 4.050781 C 372.707031 5.546875 370.75 7.503906 369.828125 10.382812 C 369.25 12.109375 369.480469 13.722656 370.402344 15.21875 C 371.667969 17.175781 373.855469 17.292969 374.546875 15.105469 C 376.042969 10.957031 379.269531 9.691406 383.183594 9.460938 C 388.824219 9.117188 394.121094 10.382812 398.957031 13.375 C 402.640625 15.679688 405.171875 18.902344 406.210938 23.164062 C 406.441406 24.3125 406.671875 25.464844 407.015625 26.617188 C 407.476562 27.882812 408.859375 28.113281 409.777344 27.191406 C 411.621094 25.234375 412.195312 22.933594 412.425781 19.710938 C 412.3125 19.019531 412.195312 17.75 411.851562 16.484375 Z M 394.925781 77.734375 C 396.191406 75.089844 396.882812 72.441406 396.652344 69.445312 C 396.539062 68.640625 396.308594 67.835938 395.960938 67.027344 C 395.734375 66.566406 395.386719 66.222656 394.8125 66.339844 C 394.464844 66.453125 394.121094 66.566406 394.003906 66.796875 C 393.199219 68.410156 392.507812 70.136719 391.703125 71.75 C 387.902344 79.003906 382.03125 83.609375 373.625 84.414062 C 369.710938 84.875 365.914062 83.953125 362.804688 81.421875 C 360.730469 79.695312 359.351562 77.734375 360.847656 74.859375 C 361.539062 73.589844 361.078125 72.554688 360.042969 71.863281 C 358.890625 71.058594 357.507812 71.171875 356.355469 71.980469 C 355.089844 72.902344 354.398438 74.28125 354.167969 75.777344 C 353.59375 79.578125 354.976562 82.6875 357.394531 85.449219 C 361.308594 89.59375 366.257812 91.320312 371.898438 91.667969 C 382.03125 91.78125 391.128906 85.566406 394.925781 77.734375 Z M 399.992188 109.742188 C 415.878906 104.792969 421.292969 87.292969 411.160156 73.246094 C 410.816406 72.671875 410.238281 72.210938 409.777344 71.863281 C 409.089844 71.289062 408.398438 70.941406 407.476562 71.289062 C 406.441406 71.632812 406.441406 72.554688 406.554688 73.359375 C 406.671875 74.628906 407.015625 76.007812 407.359375 77.277344 C 407.9375 80.039062 408.742188 82.800781 409.203125 85.566406 C 410.585938 94.546875 405.519531 102.257812 396.769531 104.675781 C 392.96875 105.714844 389.171875 106.175781 386.523438 102.027344 C 386.0625 101.222656 385.140625 101.222656 384.21875 101.570312 C 383.296875 101.914062 382.953125 102.71875 382.953125 103.527344 C 382.835938 105.367188 383.875 106.75 385.253906 107.785156 C 388.019531 109.972656 391.242188 110.664062 395.617188 110.550781 C 396.421875 110.320312 398.148438 110.320312 399.992188 109.742188 Z M 437.988281 137.144531 C 436.835938 137.144531 435.683594 137.144531 434.53125 137.144531 C 433.957031 137.144531 433.152344 137.261719 433.035156 138.066406 C 432.921875 138.871094 433.382812 139.332031 433.839844 139.792969 C 434.878906 140.714844 436.027344 141.289062 437.296875 141.636719 C 440.519531 142.671875 443.859375 143.246094 447.195312 142.902344 C 450.421875 142.671875 453.53125 141.980469 456.292969 140.367188 C 460.550781 137.835938 463.316406 134.265625 464.351562 129.429688 C 464.925781 126.667969 464.699219 124.136719 463.199219 121.71875 C 461.472656 119.070312 458.59375 119.183594 457.214844 121.949219 C 456.636719 123.097656 456.175781 124.480469 455.832031 125.746094 C 453.757812 132.65625 449.039062 136.222656 442.015625 137.03125 C 440.632812 137.144531 439.367188 137.261719 437.988281 137.261719 C 437.988281 137.261719 437.988281 137.144531 437.988281 137.144531 Z M 352.902344 16.832031 C 346.917969 17.636719 341.621094 19.9375 337.707031 24.542969 C 334.941406 27.769531 333.90625 31.566406 335.171875 35.710938 C 336.785156 40.894531 342.65625 43.3125 347.261719 40.894531 C 348.066406 40.433594 348.644531 39.855469 348.644531 38.9375 C 348.644531 37.785156 347.605469 37.785156 346.800781 37.785156 C 346.109375 37.667969 345.417969 37.785156 344.84375 37.667969 C 342.3125 37.210938 340.929688 35.023438 341.390625 32.488281 C 341.734375 30.992188 342.425781 29.726562 343.460938 28.574219 C 344.957031 26.960938 346.800781 25.8125 348.757812 24.890625 C 351.980469 23.507812 355.4375 22.816406 359.003906 22.816406 C 360.617188 22.816406 362.34375 22.816406 363.957031 22.703125 C 364.875 22.585938 365.453125 21.320312 364.992188 20.398438 C 364.53125 19.25 363.609375 18.558594 362.574219 17.980469 C 360.5 16.832031 358.082031 16.601562 355.089844 16.714844 C 354.859375 16.601562 353.824219 16.601562 352.902344 16.832031 Z M 382.953125 128.164062 C 381.339844 128.164062 380.074219 129.085938 378.921875 130.007812 C 375.929688 132.308594 374.085938 135.53125 372.589844 138.871094 C 370.980469 142.554688 370.171875 146.46875 369.480469 150.386719 C 369.25 151.535156 369.136719 152.6875 368.445312 153.722656 C 367.984375 154.414062 366.835938 154.644531 366.257812 153.953125 C 365.566406 153.261719 364.992188 152.34375 364.417969 151.652344 C 363.496094 150.5 362.113281 149.808594 360.847656 150.269531 C 358.082031 151.304688 356.472656 150.386719 355.207031 147.96875 C 354.859375 147.390625 353.824219 147.046875 353.132812 146.699219 C 352.097656 146.125 351.0625 145.664062 350.023438 145.203125 C 349.5625 144.972656 348.988281 144.859375 348.757812 145.433594 C 348.527344 145.894531 348.527344 146.355469 348.527344 146.816406 C 348.757812 147.851562 349.332031 148.773438 350.371094 149.117188 C 352.441406 149.695312 353.9375 150.617188 354.859375 152.6875 C 355.550781 154.070312 357.164062 154.761719 358.773438 154.300781 C 360.847656 153.722656 362.113281 154.183594 363.496094 155.796875 C 366.949219 159.480469 370.980469 158.445312 372.820312 153.722656 C 373.398438 152.34375 373.625 150.84375 373.972656 149.347656 C 375.125 143.363281 377.886719 138.066406 381.570312 133.230469 C 382.378906 132.195312 383.183594 131.042969 383.875 130.007812 C 383.988281 129.777344 383.988281 129.429688 384.105469 129.085938 C 383.875 128.394531 383.414062 128.164062 382.953125 128.164062 Z M 335.402344 105.023438 C 334.941406 105.023438 334.367188 105.136719 333.90625 105.253906 C 333.214844 105.367188 332.640625 105.828125 332.640625 106.519531 C 332.640625 106.980469 333.101562 107.671875 333.332031 107.671875 C 336.554688 108.246094 337.589844 110.320312 337.015625 113.425781 C 337.015625 113.542969 337.015625 113.773438 337.015625 113.886719 C 337.589844 117.917969 341.503906 119.988281 345.1875 118.378906 C 345.765625 118.148438 346.339844 117.800781 346.917969 117.34375 C 347.953125 116.535156 348.875 116.191406 349.910156 117.226562 C 350.371094 117.6875 350.945312 118.03125 351.519531 118.261719 C 352.328125 118.722656 353.132812 118.722656 353.824219 118.148438 C 354.515625 117.570312 354.859375 116.765625 354.746094 115.960938 C 354.515625 113.886719 353.363281 112.277344 351.980469 110.78125 C 348.066406 106.863281 343.230469 104.792969 337.015625 104.675781 C 337.015625 105.023438 336.207031 105.023438 335.402344 105.023438 Z M 407.246094 140.484375 C 408.28125 140.828125 409.203125 140.597656 409.894531 139.679688 C 410.585938 138.640625 410.125 137.71875 409.546875 136.914062 C 409.203125 136.339844 408.628906 135.878906 408.050781 135.53125 C 402.527344 132.078125 396.421875 130.582031 389.976562 131.734375 C 388.363281 131.964844 386.753906 132.425781 385.601562 133.804688 C 385.371094 134.035156 385.371094 134.496094 385.371094 134.726562 C 385.484375 134.957031 385.714844 135.304688 385.945312 135.417969 C 387.558594 135.878906 389.285156 134.84375 390.78125 135.992188 C 390.667969 136.800781 390.550781 137.605469 390.550781 138.410156 C 390.4375 140.945312 391.585938 143.015625 393.890625 144.054688 C 396.421875 145.203125 398.839844 144.859375 400.914062 143.015625 C 402.066406 141.867188 402.984375 140.484375 404.136719 139.101562 C 405.171875 139.5625 406.09375 140.136719 407.246094 140.484375 Z M 390.089844 54.824219 C 391.585938 54.132812 392.394531 52.753906 391.816406 51.714844 C 391.128906 50.449219 390.089844 50.566406 388.824219 50.796875 C 382.492188 51.601562 377.773438 48.378906 375.929688 42.390625 C 375.46875 40.777344 375.355469 39.167969 375.355469 37.441406 C 375.355469 36.980469 375.125 36.289062 374.894531 36.171875 C 374.316406 35.828125 373.625 36.058594 373.050781 36.402344 C 370.402344 38.246094 369.828125 41.007812 369.941406 43.886719 C 370.171875 51.832031 378.230469 56.667969 383.988281 56.207031 C 385.945312 56.207031 388.132812 55.746094 390.089844 54.824219 Z M 349.105469 159.597656 C 349.792969 163.164062 351.867188 164.777344 355.550781 164.429688 C 357.164062 164.316406 357.96875 165.007812 358.429688 166.503906 C 359.234375 169.152344 361.191406 170.648438 363.726562 171.453125 C 365.566406 172.144531 367.410156 171.109375 367.753906 169.496094 C 367.984375 168.117188 367.0625 166.964844 364.992188 166.847656 C 363.496094 166.847656 362.804688 166.390625 362.460938 165.121094 C 362.113281 164.199219 361.882812 163.164062 361.421875 162.359375 C 360.847656 161.207031 359.925781 160.632812 358.660156 160.402344 C 358.199219 160.285156 357.625 160.285156 357.164062 160.285156 C 355.207031 160.515625 354.054688 159.597656 353.363281 157.753906 C 353.132812 157.292969 352.902344 156.832031 352.671875 156.488281 C 351.75 154.875 350.371094 154.183594 348.527344 154.300781 C 347.03125 154.414062 345.535156 154.414062 344.039062 154.644531 C 341.621094 154.875 339.433594 155.105469 338.394531 152.113281 C 338.050781 151.191406 336.785156 151.074219 335.75 151.535156 C 334.710938 151.996094 334.25 152.917969 334.25 153.953125 C 334.25 154.644531 334.480469 155.335938 334.828125 155.796875 C 335.863281 157.410156 337.359375 158.445312 339.316406 158.558594 C 341.503906 158.675781 343.691406 158.558594 345.765625 157.984375 C 346.457031 157.867188 347.03125 157.753906 347.492188 157.636719 C 348.644531 157.984375 348.875 158.789062 349.105469 159.597656 Z M 422.097656 20.976562 C 420.945312 20.167969 419.796875 19.710938 418.414062 19.59375 C 416.800781 19.59375 415.878906 20.628906 416.339844 22.125 C 416.6875 23.046875 417.148438 23.96875 417.492188 24.890625 C 419.105469 28.917969 418.644531 31.335938 415.535156 34.445312 C 414.730469 35.253906 413.808594 35.941406 413.003906 36.863281 C 411.964844 38.128906 412.542969 39.855469 414.152344 40.546875 C 415.191406 40.894531 416.109375 40.894531 417.148438 40.664062 C 422.097656 39.398438 426.128906 34.332031 426.242188 29.265625 C 426.242188 26.15625 424.632812 22.816406 422.097656 20.976562 Z M 359.351562 95.8125 C 353.25 90.402344 346.226562 88.671875 338.394531 91.207031 C 337.476562 91.550781 336.554688 92.011719 335.75 92.589844 C 335.402344 92.820312 335.171875 93.507812 335.289062 93.855469 C 335.402344 94.199219 335.863281 94.777344 336.324219 94.777344 C 337.476562 95.007812 338.625 95.007812 339.777344 95.121094 C 346.226562 95.695312 352.441406 96.847656 357.046875 102.027344 C 357.277344 102.257812 357.507812 102.488281 357.855469 102.605469 C 358.773438 103.179688 359.8125 103.296875 360.730469 102.605469 C 361.421875 102.144531 361.769531 101.339844 361.882812 100.417969 C 361.769531 99.035156 360.960938 97.308594 359.351562 95.8125 Z M 397.460938 18.441406 C 393.773438 13.953125 387.328125 12.917969 382.835938 14.066406 C 381.570312 14.414062 380.417969 15.105469 379.5 16.253906 C 378.347656 17.75 378.117188 19.59375 379.152344 20.859375 C 380.191406 22.242188 381.570312 21.898438 382.835938 21.550781 C 387.902344 19.710938 392.394531 20.976562 396.421875 24.085938 C 396.652344 24.3125 397 24.542969 397.230469 24.660156 C 398.265625 25.234375 399.1875 24.660156 399.300781 23.507812 C 399.53125 21.550781 398.609375 19.9375 397.460938 18.441406 Z M 399.070312 117.226562 C 397.113281 117.570312 395.847656 118.378906 396.078125 119.300781 C 396.539062 120.679688 397.921875 120.449219 398.957031 121.027344 C 399.417969 121.257812 399.878906 121.257812 400.453125 121.371094 C 405.632812 122.523438 409.546875 125.402344 412.425781 129.890625 C 413.003906 130.699219 413.578125 131.617188 414.152344 132.308594 C 414.613281 132.886719 415.304688 132.886719 415.996094 132.539062 C 416.6875 132.195312 417.03125 131.617188 417.148438 130.925781 C 417.148438 130.351562 416.917969 129.660156 416.6875 128.96875 C 415.535156 125.976562 413.808594 123.328125 411.503906 121.027344 C 408.742188 118.378906 405.402344 116.996094 401.027344 116.882812 C 400.683594 116.996094 399.878906 117.113281 399.070312 117.226562 Z M 355.667969 169.957031 C 356.125 169.382812 356.355469 168.804688 356.011719 168.117188 C 355.667969 167.425781 355.089844 167.078125 354.398438 167.308594 C 350.714844 168.347656 348.644531 166.847656 347.722656 163.394531 C 347.722656 163.28125 347.605469 163.164062 347.492188 162.933594 C 346.800781 161.898438 345.535156 161.4375 344.5 161.898438 C 343.460938 162.359375 342.769531 163.625 343.117188 164.777344 C 343.578125 166.617188 344.726562 168 345.648438 169.496094 C 346.800781 171.339844 348.644531 172.03125 350.714844 172.03125 C 352.789062 172.03125 354.398438 171.453125 355.667969 169.957031 Z M 363.839844 332.527344 C 361.769531 332.410156 360.042969 334.023438 359.925781 336.09375 C 359.8125 338.511719 361.769531 340.699219 364.070312 340.816406 C 366.144531 340.929688 367.984375 339.320312 367.984375 337.246094 C 368.101562 334.945312 366.027344 332.640625 363.839844 332.527344 Z M 494.976562 295.453125 C 485.652344 295.914062 478.859375 300.402344 474.714844 308.808594 C 473.792969 310.765625 472.757812 312.722656 471.835938 314.679688 C 468.613281 321.242188 464.238281 326.882812 458.480469 331.488281 C 455.257812 334.136719 451.800781 336.554688 448.578125 339.203125 C 447.082031 340.355469 445.699219 341.507812 444.433594 342.773438 C 444.089844 343.003906 443.972656 343.695312 444.089844 344.15625 C 444.320312 344.960938 445.007812 345.074219 445.699219 345.074219 C 448.808594 344.84375 451.570312 343.695312 454.21875 342.3125 C 462.625 337.820312 469.53125 331.488281 474.597656 323.429688 C 476.671875 320.207031 478.628906 316.867188 480.585938 313.527344 C 483.925781 307.886719 488.761719 304.777344 495.324219 304.433594 C 498.316406 304.203125 501.308594 303.859375 504.304688 303.511719 C 510.75 302.820312 516.738281 300.980469 522.492188 298.101562 C 526.871094 295.914062 530.898438 293.378906 534.8125 290.386719 C 537 288.773438 539.074219 287.164062 541.375 285.667969 C 544.484375 283.480469 547.9375 282.328125 551.738281 282.328125 C 553.234375 282.328125 554.730469 282.328125 556.226562 282.097656 C 560.601562 281.753906 564.863281 281.0625 568.894531 279.335938 C 571.3125 278.414062 573.382812 277.03125 574.765625 274.84375 C 575.339844 274.039062 575.6875 273.003906 575.6875 271.964844 C 575.6875 271.160156 574.878906 270.238281 574.074219 270.355469 C 573.269531 270.46875 572.460938 270.585938 571.65625 270.816406 C 564.976562 273.117188 558.070312 274.269531 551.046875 275.191406 C 546.671875 275.765625 542.640625 277.605469 539.304688 280.371094 C 537 282.328125 534.8125 284.398438 532.511719 286.359375 C 527.445312 290.734375 521.6875 293.609375 515.125 294.878906 C 511.441406 295.566406 507.757812 295.339844 504.074219 295.453125 C 500.964844 295.453125 497.972656 295.335938 494.976562 295.453125 Z M 528.367188 355.667969 C 531.589844 353.25 534.238281 350.257812 536.769531 347.148438 C 539.304688 344.039062 541.722656 340.816406 544.253906 337.707031 C 547.59375 333.5625 551.621094 330.339844 556.574219 328.496094 C 562.332031 326.308594 567.050781 322.507812 571.539062 318.480469 C 572 318.019531 572.460938 317.558594 572.808594 316.984375 C 572.921875 316.753906 573.039062 316.175781 572.921875 316.0625 C 572.578125 315.714844 572.117188 315.371094 571.769531 315.484375 C 570.621094 315.714844 569.46875 316.0625 568.433594 316.636719 C 563.597656 318.824219 558.761719 321.128906 553.925781 323.429688 C 549.550781 325.503906 546.097656 328.613281 543.21875 332.410156 C 541.953125 334.136719 540.800781 335.980469 539.535156 337.820312 C 538.152344 339.894531 536.65625 341.96875 535.160156 343.925781 C 530.4375 350.027344 524.222656 351.867188 516.851562 350.257812 C 514.203125 349.679688 511.671875 348.988281 509.023438 348.300781 C 504.1875 347.03125 499.121094 346.34375 494.054688 346.800781 C 489.449219 347.261719 485.191406 348.53125 481.507812 351.523438 C 480.125 352.675781 478.859375 354.054688 478.628906 356.011719 C 478.398438 357.507812 479.433594 358.660156 480.929688 358.429688 C 482.199219 358.199219 483.578125 357.96875 484.84375 357.855469 C 489.105469 357.511719 493.136719 358.199219 497.164062 359.46875 C 501.65625 360.847656 506.144531 362.113281 510.175781 362 C 517.542969 361.769531 523.300781 359.582031 528.367188 355.667969 Z M 531.246094 320.898438 C 534.238281 318.480469 537.117188 315.832031 539.878906 313.296875 C 545.867188 307.773438 552.773438 304.433594 560.832031 303.28125 C 565.4375 302.589844 570.160156 302.015625 574.765625 301.441406 C 579.714844 300.75 584.667969 299.597656 589.269531 297.523438 C 591.6875 296.375 594.105469 295.109375 596.179688 293.496094 C 597.332031 292.574219 598.367188 291.539062 599.058594 290.042969 C 599.289062 289.351562 599.402344 288.660156 598.710938 288.199219 C 598.367188 287.96875 597.792969 287.738281 597.332031 287.855469 C 595.375 288.429688 593.53125 289.121094 591.6875 289.925781 C 586.046875 292.230469 580.40625 293.957031 574.417969 294.878906 C 570.503906 295.453125 566.476562 296.027344 562.445312 296.488281 C 551.738281 297.753906 542.414062 301.671875 535.042969 309.730469 C 533.203125 311.6875 531.359375 313.527344 529.402344 315.371094 C 522.609375 321.820312 514.550781 324.8125 505.109375 323.777344 C 503.152344 323.546875 501.078125 323.316406 499.121094 323.199219 C 494.976562 322.855469 491.179688 324.121094 487.839844 326.652344 C 487.492188 326.882812 487.261719 327.460938 487.261719 327.921875 C 487.261719 328.496094 487.722656 328.726562 488.183594 328.839844 C 488.875 328.957031 489.566406 329.070312 490.140625 328.957031 C 493.941406 328.609375 497.855469 328.726562 501.65625 329.417969 C 503.152344 329.648438 504.648438 329.648438 506.144531 329.648438 C 515.585938 329.761719 523.875 326.652344 531.246094 320.898438 Z M 551.738281 150.617188 C 555.191406 148.886719 558.644531 147.277344 562.101562 145.550781 C 564.519531 144.28125 566.589844 142.671875 568.546875 140.828125 C 569.8125 139.5625 570.964844 138.066406 571.769531 136.339844 C 573.613281 132.195312 571.65625 128.164062 567.28125 126.78125 C 565.667969 126.324219 563.941406 126.324219 562.332031 126.550781 C 558.183594 127.011719 554.15625 128.28125 550.355469 130.238281 C 549.894531 130.46875 549.550781 130.8125 549.203125 131.15625 C 548.976562 131.386719 548.976562 131.847656 548.976562 132.078125 C 549.089844 132.308594 549.433594 132.65625 549.664062 132.539062 C 551.621094 132.425781 553.695312 132.195312 555.652344 131.964844 C 558.300781 131.734375 560.949219 131.503906 563.597656 132.078125 C 565.324219 132.425781 565.667969 133.574219 564.402344 134.957031 C 563.019531 136.453125 561.523438 137.71875 559.796875 138.757812 C 556.917969 140.367188 553.925781 141.980469 551.046875 143.707031 C 547.59375 145.664062 544.023438 147.507812 540.570312 149.578125 C 539.304688 150.269531 538.039062 151.191406 536.886719 152.226562 C 535.160156 153.839844 535.503906 156.027344 537.691406 157.179688 C 538.957031 157.867188 540.453125 158.445312 541.722656 159.25 C 542.988281 160.054688 543.332031 161.324219 542.640625 162.703125 C 541.835938 164.429688 540.570312 165.8125 539.074219 166.847656 C 536.769531 168.578125 534.238281 169.726562 531.472656 170.765625 C 527.90625 172.144531 524.105469 172.953125 520.304688 173.757812 C 518.808594 174.101562 517.3125 174.332031 515.929688 174.910156 C 513.054688 176.058594 512.707031 178.9375 515.125 180.78125 C 516.046875 181.472656 517.082031 182.046875 518.003906 182.738281 C 520.304688 184.695312 520.304688 186.191406 518.234375 188.148438 C 516.507812 189.761719 514.433594 190.910156 512.363281 191.832031 C 508.910156 193.445312 505.109375 194.480469 501.425781 195.632812 C 500.273438 195.976562 499.121094 196.207031 498.085938 196.667969 C 495.324219 197.933594 494.976562 200.699219 497.28125 202.65625 C 498.085938 203.347656 499.007812 203.808594 499.699219 204.382812 C 502.574219 206.800781 502.460938 208.527344 499.351562 210.714844 C 497.394531 212.097656 495.207031 213.019531 493.019531 213.824219 C 490.949219 214.515625 488.875 215.089844 486.804688 215.894531 C 482.773438 217.394531 482.199219 218.542969 483.117188 222.6875 C 483.234375 223.035156 483.347656 223.265625 483.464844 223.609375 C 483.925781 226.144531 483.347656 227.410156 481.160156 228.5625 C 479.664062 229.367188 478.050781 229.710938 476.324219 229.941406 C 472.871094 230.519531 469.417969 231.207031 465.964844 231.785156 C 464.8125 232.015625 463.546875 232.246094 463.429688 233.742188 C 463.316406 235.125 464.582031 235.699219 465.617188 236.273438 C 466.078125 236.503906 466.539062 236.734375 467 236.851562 C 471.835938 238.691406 476.554688 238.347656 481.160156 236.503906 C 484.15625 235.351562 486.804688 233.625 488.53125 230.75 C 490.027344 228.214844 489.910156 225.683594 489.335938 222.917969 C 488.992188 221.652344 489.679688 221.078125 490.832031 220.847656 C 493.710938 220.15625 496.589844 219.234375 499.351562 217.96875 C 501.65625 216.933594 503.84375 215.664062 505.570312 213.824219 C 508.101562 211.175781 509.023438 208.183594 507.757812 204.613281 C 507.410156 203.691406 506.492188 203 506.949219 201.621094 C 508.679688 200.46875 510.867188 200.351562 512.9375 199.664062 C 516.738281 198.28125 520.421875 196.667969 523.300781 193.789062 C 527.328125 189.761719 527.789062 186.191406 525.027344 181.125 C 524.105469 179.398438 524.222656 179.054688 526.292969 178.476562 C 530.554688 177.441406 534.699219 176.289062 538.726562 174.5625 C 541.835938 173.179688 544.714844 171.570312 547.132812 169.152344 C 552.429688 163.855469 552.429688 158.445312 546.902344 152.804688 C 548.515625 151.652344 550.242188 151.304688 551.738281 150.617188 Z M 504.417969 142.324219 C 505.570312 141.175781 506.835938 139.90625 507.871094 138.757812 C 514.203125 131.617188 521.917969 126.4375 530.667969 122.753906 C 534.929688 120.910156 539.417969 119.414062 544.023438 118.261719 C 551.851562 116.304688 559.796875 115.5 567.742188 114.347656 C 579.601562 112.738281 590.882812 109.167969 601.476562 103.410156 C 603.546875 102.257812 605.503906 100.992188 607.230469 99.382812 C 608.613281 98.113281 609.765625 96.734375 610.339844 94.890625 C 610.570312 94.085938 609.648438 93.164062 608.960938 93.277344 C 606.773438 93.738281 604.929688 94.777344 602.972656 95.8125 C 591.230469 102.144531 578.679688 106.058594 565.554688 108.246094 C 557.609375 109.628906 549.78125 111.007812 541.953125 113.3125 C 534.582031 115.5 527.328125 118.261719 520.652344 122.175781 C 514.550781 125.746094 509.140625 130.351562 504.992188 136.109375 C 503.84375 137.71875 502.691406 139.449219 502.347656 141.40625 C 502.230469 141.980469 502.574219 142.324219 503.152344 142.671875 C 503.613281 143.015625 504.074219 142.671875 504.417969 142.324219 Z M 484.84375 201.734375 C 486.34375 200.929688 487.722656 200.007812 488.644531 198.511719 C 489.21875 197.476562 489.566406 196.324219 488.875 195.171875 C 488.183594 194.019531 487.03125 193.789062 485.882812 194.136719 C 484.730469 194.367188 483.578125 194.710938 482.542969 195.058594 C 478.742188 196.4375 474.828125 197.015625 470.800781 197.476562 C 468.84375 197.703125 466.769531 197.703125 464.8125 197.820312 C 462.507812 198.050781 461.128906 198.972656 461.011719 200.351562 C 460.898438 201.734375 461.933594 203 464.121094 203.808594 C 466.308594 204.726562 468.613281 204.84375 471.03125 204.726562 C 475.75 204.957031 480.355469 203.921875 484.84375 201.734375 Z M 468.957031 219.582031 C 469.648438 219.234375 470.339844 218.660156 470.800781 217.96875 C 471.375 217.277344 471.375 216.472656 470.914062 215.664062 C 470.570312 215.089844 469.992188 214.746094 469.300781 214.746094 C 468.496094 214.746094 467.691406 214.746094 466.769531 214.859375 C 462.96875 215.320312 459.515625 214.515625 456.175781 212.902344 C 454.679688 212.210938 453.183594 211.40625 451.570312 210.945312 C 449.269531 210.253906 447.3125 210.832031 446.738281 212.210938 C 446.046875 213.824219 446.621094 215.433594 448.347656 217.046875 C 448.578125 217.277344 448.808594 217.507812 449.152344 217.738281 C 452.609375 220.269531 456.523438 221.539062 460.898438 221.652344 C 463.546875 221.421875 466.308594 220.960938 468.957031 219.582031 Z M 468.957031 219.582031 "/></g></g><mask id="897947ce87"><g filter="url(#e898babc15)"><rect x="0" width="705" y="0" height="591.000005" style="fill:#000000;fill-opacity:0.5;stroke:none;"/></g></mask></g></g></g></svg>