<svg xmlns="http://www.w3.org/2000/svg" xmlns:xlink="http://www.w3.org/1999/xlink" width="940" zoomAndPan="magnify" viewBox="0 0 705 591.000005" height="788" preserveAspectRatio="xMidYMid meet" version="1.2"><defs><clipPath id="7ad1f5f9b1"><path d="M 15 19 L 675 19 L 675 583.34375 L 15 583.34375 Z M 15 19 "/></clipPath></defs><g id="cb8fe5ef1b"><g clip-rule="nonzero" clip-path="url(#7ad1f5f9b1)"><path style=" stroke:none;fill-rule:nonzero;fill:#f4b8c4;fill-opacity:1;" d="M 345.21875 583.292969 C 341.910156 583.292969 338.578125 582.242188 335.78125 580.140625 L 323.78125 571.140625 C 253.984375 518.960938 108.726562 410.34375 41.339844 285.699219 C 0.519531 209.464844 9.339844 129.183594 64.929688 70.796875 C 96.75 37.566406 139.007812 19.285156 183.984375 19.285156 C 184.007812 19.285156 184.058594 19.285156 184.085938 19.285156 C 229.011719 19.308594 271.214844 37.589844 302.882812 70.796875 L 345.269531 115.15625 L 387.527344 70.796875 C 419.21875 37.589844 461.425781 19.308594 506.347656 19.285156 C 506.375 19.285156 506.425781 19.285156 506.453125 19.285156 C 551.425781 19.285156 593.683594 37.566406 625.480469 70.769531 C 681.09375 129.183594 689.917969 209.464844 649.121094 285.648438 C 581.914062 410.214844 436.65625 518.832031 366.832031 571.011719 L 354.628906 580.140625 C 351.859375 582.242188 348.523438 583.292969 345.21875 583.292969 Z M 183.984375 50.617188 C 147.648438 50.617188 113.417969 65.464844 87.597656 92.4375 C 41.828125 140.492188 34.851562 207.183594 68.929688 270.828125 C 133.007812 389.394531 274.550781 495.191406 342.550781 546.0625 L 345.21875 548.0625 L 348.089844 545.910156 C 416.089844 495.0625 557.605469 389.265625 621.503906 270.800781 C 655.582031 207.183594 648.609375 140.492188 602.8125 92.414062 C 577.015625 65.464844 542.8125 50.617188 506.453125 50.617188 C 506.425781 50.617188 506.398438 50.617188 506.375 50.617188 C 470.066406 50.644531 435.910156 65.488281 410.21875 92.4375 L 356.628906 148.644531 C 353.679688 151.773438 349.578125 153.515625 345.292969 153.515625 C 341.011719 153.515625 336.910156 151.773438 333.960938 148.671875 L 280.214844 92.4375 C 254.523438 65.488281 220.367188 50.644531 184.058594 50.617188 C 184.035156 50.617188 184.007812 50.617188 183.984375 50.617188 "/></g></g></svg>