<svg xmlns="http://www.w3.org/2000/svg" xmlns:xlink="http://www.w3.org/1999/xlink" width="940" zoomAndPan="magnify" viewBox="0 0 705 591.000005" height="788" preserveAspectRatio="xMidYMid meet" version="1.2"><defs><clipPath id="c576e2fce1"><path d="M 60 0 L 599.433594 0 L 599.433594 590 L 60 590 Z M 60 0 "/></clipPath></defs><g id="c5002ab1ea"><g clip-rule="nonzero" clip-path="url(#c576e2fce1)"><path style=" stroke:none;fill-rule:nonzero;fill:#f4b8c4;fill-opacity:1;" d="M 180.535156 124.636719 C 180.835938 123.933594 180.886719 123.484375 181.152344 123.234375 C 182.589844 121.914062 184.664062 121.980469 185.28125 123.332031 C 185.800781 124.4375 186.386719 125.523438 186.785156 126.660156 C 188.84375 132.496094 190.046875 138.582031 190.648438 144.683594 C 191.769531 156.136719 193.957031 167.421875 195.730469 178.757812 C 196.5 183.621094 197.636719 188.417969 198.589844 193.25 C 200.597656 203.300781 202.667969 213.332031 204.542969 223.410156 C 205.964844 231.050781 207.117188 238.757812 208.4375 246.417969 C 208.722656 248.019531 209.140625 249.625 209.675781 251.164062 C 210.226562 252.769531 211.246094 254.039062 213.886719 254.59375 C 232.042969 251.382812 250.871094 247.320312 269.292969 241.519531 C 278.304688 238.675781 287.28125 235.933594 296.730469 234.8125 C 302.011719 234.179688 307.277344 233.109375 312.394531 231.671875 C 327.023438 227.574219 342.101562 225.433594 356.730469 221.339844 C 369.4375 219.800781 381.191406 214.367188 392.8125 212.710938 C 396.890625 210.890625 399.246094 208.699219 400.867188 204.988281 C 400.96875 204.367188 401.269531 203.164062 401.335938 201.960938 C 401.773438 193.316406 400.21875 184.792969 399.246094 176.265625 C 397.59375 161.585938 395.636719 146.957031 393.511719 132.328125 C 392.625 126.242188 391.742188 120.15625 390.804688 114.089844 C 389.601562 106.347656 389.183594 98.589844 388.796875 90.800781 C 388.496094 84.648438 388.445312 78.492188 387.359375 72.390625 C 386.859375 69.582031 386.910156 66.65625 386.808594 63.796875 C 386.40625 53.550781 386.289062 43.285156 384.585938 33.773438 C 385.136719 32.167969 385.839844 31.582031 386.542969 32 C 387.125 32.351562 387.679688 33.1875 387.761719 33.871094 C 388.867188 42.832031 389.851562 51.792969 390.90625 60.753906 C 391.625 66.859375 392.660156 72.945312 393.042969 79.078125 C 393.429688 85.25 394.617188 91.285156 395.203125 97.386719 C 396.136719 107.234375 398.144531 116.828125 400.300781 126.441406 C 402.726562 137.226562 405.367188 148.011719 406.304688 159.09375 C 406.585938 162.339844 407.390625 165.566406 408.226562 168.742188 C 409.578125 173.925781 410.382812 179.175781 410.699219 184.523438 C 410.800781 186.144531 411.066406 187.800781 412.4375 189.089844 C 413.089844 189.089844 413.925781 189.289062 414.59375 189.039062 C 415.3125 188.769531 415.984375 188.167969 416.5 187.566406 C 426.398438 176.046875 436.296875 164.511719 446.160156 152.941406 C 447.730469 151.101562 449.503906 149.332031 450.171875 146.4375 C 448.234375 142.308594 443.417969 140.804688 440.59375 137.308594 C 438.371094 133.867188 435.976562 130.507812 433.9375 126.960938 C 430.695312 121.3125 430.175781 115.308594 432.417969 109.15625 C 433.820312 105.292969 435.410156 101.5 438.753906 97.9375 C 440.84375 97.117188 443.46875 96.066406 446.027344 95.0625 C 450.707031 95.964844 454.972656 97.234375 459.183594 98.925781 C 463.128906 100.496094 464.75 104.992188 468.730469 106.246094 C 470.519531 105.496094 471.222656 103.957031 471.921875 102.503906 C 474.414062 97.285156 477.640625 92.519531 481.167969 87.992188 C 483.191406 85.382812 485.566406 83.125 488.492188 81.488281 C 492.386719 79.332031 496.234375 78.894531 500.027344 81.6875 C 501.015625 82.40625 502.066406 83.058594 503.320312 83.894531 C 508.152344 81.988281 510.292969 77.308594 513.835938 73.695312 C 516.261719 57.144531 519.421875 40.660156 522.914062 25.144531 C 525.992188 19.746094 530.855469 20.027344 535.152344 18.890625 C 536.289062 16.820312 537.425781 14.695312 538.632812 12.589844 C 538.796875 12.320312 539.5 12.039062 539.683594 12.15625 C 540.234375 12.539062 541.003906 13.074219 541.070312 13.625 C 541.222656 14.8125 541.238281 16.148438 540.855469 17.269531 C 537.796875 25.8125 536.757812 34.824219 534.734375 43.601562 C 534.585938 44.238281 535.253906 45.058594 535.554688 45.792969 C 536.238281 45.40625 537.042969 45.140625 537.542969 44.589844 C 538.078125 44.019531 538.582031 43.183594 538.613281 42.433594 C 538.882812 36.613281 540.789062 31.195312 542.542969 25.746094 C 543.296875 23.40625 543.832031 21 544.449219 18.625 C 545.285156 15.464844 545.9375 12.238281 547.859375 9.128906 C 549.296875 9.128906 550.851562 9.128906 552.273438 9.128906 C 555.601562 6.820312 555.097656 2.207031 558.308594 0.0351562 C 559.878906 0.0664062 560.683594 1.238281 560.265625 2.390625 C 558.976562 5.835938 557.523438 9.246094 555.835938 12.503906 C 551.671875 20.5625 548.964844 29.140625 546.605469 37.683594 C 547.207031 38.535156 547.660156 39.171875 548.109375 39.789062 C 549.867188 39.925781 551.253906 39.039062 552.640625 38.167969 C 556.101562 35.996094 559.546875 33.773438 563.039062 31.664062 C 563.757812 31.246094 564.660156 31.714844 565.097656 32.550781 C 565.53125 33.402344 565.246094 34.222656 564.445312 34.742188 C 561.703125 36.53125 558.925781 38.253906 556.21875 40.109375 C 555.617188 40.527344 555.332031 41.363281 554.898438 42.015625 C 555.015625 42.851562 555.535156 43.503906 556.4375 43.484375 C 561.769531 43.402344 567.085938 43.183594 572.417969 43.152344 C 572.972656 43.152344 573.925781 43.988281 573.972656 44.488281 C 574.042969 45.125 573.507812 46.042969 572.953125 46.460938 C 572 47.195312 570.816406 47.632812 569.777344 48.183594 C 569.492188 49.804688 569.210938 51.34375 568.957031 52.730469 C 568.507812 53.148438 568.238281 53.484375 567.890625 53.683594 C 567.554688 53.882812 567.136719 54.035156 566.734375 54.035156 C 556.488281 54.21875 546.238281 54.402344 536.390625 54.570312 C 533.917969 55.457031 532.613281 56.960938 531.859375 58.964844 C 531.777344 60.90625 532.878906 62.007812 534.636719 62.277344 C 539.167969 62.929688 543.613281 62.027344 548.09375 61.441406 C 552.960938 60.789062 557.890625 60.539062 562.789062 60.1875 C 564.429688 60.070312 566.367188 60.203125 567.152344 61.707031 C 568.171875 63.664062 565.730469 64.265625 565.011719 65.570312 C 564.476562 66.558594 564.460938 67.828125 564.175781 69.164062 C 563.242188 69.683594 562.238281 70.554688 561.101562 70.785156 C 559.113281 71.203125 557.039062 71.355469 555.015625 71.390625 C 543.929688 71.554688 532.863281 71.671875 521.894531 71.789062 C 519.6875 72.324219 518.285156 73.847656 516.898438 75.367188 C 512.484375 80.234375 508.1875 85.179688 505.042969 91.234375 C 507.667969 103.054688 506.164062 114.855469 504.105469 126.609375 C 503.757812 128.617188 503.054688 130.574219 502.316406 132.480469 C 501.734375 134 500.847656 135.421875 500.128906 136.890625 C 494.59375 148.195312 494.59375 148.195312 484.414062 156.886719 C 482.023438 158.160156 479.597656 158.023438 477.238281 157.054688 C 472.308594 155.03125 467.425781 152.875 462.527344 150.785156 C 460.65625 149.984375 458.832031 148.996094 456.625 149.164062 C 453.800781 150.148438 452.113281 152.574219 450.289062 154.746094 C 445.023438 161.050781 439.875 167.4375 434.640625 173.757812 C 431.496094 177.550781 428.421875 181.429688 425.042969 184.992188 C 420.78125 189.488281 417.035156 194.320312 413.777344 199.46875 C 413.523438 202.679688 413.523438 202.679688 415.632812 205.238281 C 417.402344 205.089844 419.492188 205.171875 421.433594 204.703125 C 430.195312 202.546875 438.921875 200.222656 447.664062 197.949219 C 449.65625 197.429688 451.609375 196.578125 453.617188 196.425781 C 462.292969 195.808594 470.519531 193.132812 478.726562 191.0625 C 481.320312 191.0625 483.761719 191.0625 486.804688 191.0625 C 488.175781 190.441406 490.011719 189.554688 491.886719 188.753906 C 493.742188 187.953125 495.429688 186.613281 497.636719 187.015625 C 498.121094 187.648438 498.824219 188.21875 499.023438 188.9375 C 499.375 190.175781 498.855469 191.363281 497.9375 192.230469 C 497.050781 193.066406 496.132812 194.019531 495.046875 194.488281 C 490.128906 196.542969 485.164062 198.515625 480.183594 200.390625 C 478.277344 201.109375 476.253906 201.859375 474.265625 201.960938 C 463.914062 202.429688 454.101562 205.605469 444.070312 207.664062 C 436.445312 209.234375 428.957031 211.472656 421.449219 213.546875 C 419.929688 213.964844 418.558594 214.96875 417.539062 215.488281 C 415.75 218.128906 415.414062 220.652344 416.015625 223.042969 C 417.402344 228.679688 417.589844 234.414062 418.140625 240.128906 C 418.539062 244.191406 419.761719 248.207031 419.945312 252.285156 C 420.378906 261.730469 422.570312 270.976562 422.871094 280.421875 C 422.953125 282.863281 423.507812 285.304688 423.90625 287.726562 C 425.027344 294.617188 426.78125 301.453125 427.21875 308.359375 C 428.152344 323.574219 431.496094 338.351562 434.074219 353.28125 C 434.625 356.507812 434.992188 359.785156 435.726562 362.980469 C 435.960938 363.980469 437.148438 364.785156 437.734375 365.46875 C 438.886719 365.605469 439.738281 365.90625 440.492188 365.753906 C 453.75 363.0625 466.992188 360.269531 480.25 357.578125 C 483.859375 356.84375 487.523438 356.308594 491.148438 355.621094 C 498.808594 354.183594 506.515625 353.015625 514.019531 350.875 C 516.394531 350.207031 518.769531 349.269531 521.175781 349.136719 C 526.960938 348.816406 532.480469 347.164062 538.128906 346.292969 C 555.617188 343.636719 572.703125 339.4375 589.640625 334.441406 C 590.808594 334.089844 592.046875 333.820312 593.25 333.769531 C 595.925781 333.65625 598.097656 334.472656 599.136719 337.765625 C 598.585938 338.886719 597.898438 340.324219 597.128906 341.914062 C 594.804688 342.867188 592.597656 343.96875 590.273438 344.6875 C 587.933594 345.40625 585.359375 345.472656 583.085938 346.328125 C 574.207031 349.652344 564.878906 351.125 555.699219 353.230469 C 548.128906 354.972656 540.503906 356.644531 532.828125 357.746094 C 523.484375 359.066406 514.320312 361.207031 505.144531 363.296875 C 503.152344 363.75 501.199219 364.667969 499.191406 364.785156 C 488.859375 365.371094 479.113281 368.832031 469.015625 370.601562 C 461.355469 371.941406 453.785156 373.894531 446.175781 375.566406 C 442.984375 376.269531 442.214844 376.636719 438.535156 379.414062 C 439.992188 391.902344 441.378906 404.507812 442.933594 417.097656 C 443.535156 421.980469 444.539062 426.792969 445.339844 431.660156 C 447.53125 445.015625 450.054688 458.324219 451.792969 471.75 C 453.550781 485.210938 456.476562 498.398438 458.933594 511.707031 C 461.390625 525.015625 464.117188 538.273438 466.488281 551.597656 C 466.925781 554.007812 466.992188 556.496094 467.175781 558.9375 C 467.644531 565.074219 468.078125 571.191406 468.546875 577.832031 C 468.0625 579.820312 466.859375 581.859375 464.316406 583.011719 C 461.242188 583.082031 459.015625 581.558594 457.480469 578.917969 C 457.195312 578.132812 456.726562 577.378906 456.660156 576.578125 C 455.738281 565.507812 454.386719 554.542969 451.476562 543.773438 C 450.421875 539.847656 450.441406 535.632812 449.519531 531.652344 C 446.746094 519.667969 444.203125 507.644531 442.699219 495.425781 C 442.648438 495.023438 442.582031 494.605469 442.464844 494.21875 C 438.203125 480.007812 437.648438 465.097656 434.121094 450.734375 C 432.75 445.183594 432.082031 439.433594 431.378906 433.734375 C 430.125 423.550781 428.621094 413.402344 426.800781 403.304688 C 426.296875 400.480469 426.082031 397.601562 425.945312 394.726562 C 425.746094 390.546875 424.425781 386.6875 422.90625 382.875 C 422.636719 382.222656 421.734375 381.820312 420.964844 381.167969 C 411.6875 381.886719 402.558594 384.246094 393.328125 386.035156 C 385.6875 387.523438 378.148438 389.644531 370.308594 390.097656 C 368.6875 390.195312 367.0625 390.582031 365.460938 390.914062 C 359.054688 392.304688 352.71875 394.042969 346.164062 394.675781 C 340.046875 395.261719 334.195312 397.453125 328.007812 397.835938 C 325.566406 397.988281 323.160156 398.65625 320.753906 399.125 C 313.515625 400.578125 306.273438 401.949219 298.902344 402.71875 C 292.800781 403.355469 286.765625 404.691406 280.730469 405.945312 C 269.894531 408.203125 259.078125 410.578125 248.277344 412.984375 C 246.691406 413.335938 245.101562 413.902344 243.714844 414.722656 C 242.742188 415.292969 242.109375 416.445312 241.289062 417.347656 C 241.40625 418.703125 241.355469 419.941406 241.65625 421.09375 C 244.902344 432.964844 245.601562 445.386719 249.429688 457.136719 C 249.730469 465.347656 252.925781 473.207031 252.472656 481.515625 C 253.710938 488.367188 254.632812 495.308594 256.285156 502.0625 C 257.859375 508.480469 258.359375 515.019531 259.378906 521.488281 C 259.5625 522.660156 259.210938 523.914062 259.078125 525.46875 C 257.671875 526.65625 256.136719 527.957031 254.496094 529.347656 C 252.757812 528.777344 251.238281 528.292969 249.5 527.742188 C 248.480469 525.5 246.824219 523.378906 246.554688 521.070312 C 245.234375 510.035156 241.875 499.402344 240.203125 488.453125 C 239.902344 486.429688 239.367188 484.421875 239.25 482.382812 C 238.597656 472.101562 236.308594 462.121094 234.269531 452.054688 C 232.394531 442.8125 230.355469 433.597656 228.347656 424.386719 C 228.214844 423.75 227.363281 422.980469 226.726562 422.847656 C 226.042969 422.699219 225.207031 423.214844 224.46875 423.515625 C 224.121094 423.667969 223.800781 423.984375 223.535156 424.269531 C 219.4375 428.882812 215.242188 433.398438 211.3125 438.128906 C 203.988281 446.957031 196.816406 455.917969 189.3125 465.148438 C 188.058594 470.546875 188.757812 476.28125 189.410156 481.949219 C 190.414062 490.527344 190.617188 499.019531 189.511719 507.628906 C 188.742188 513.714844 188.960938 519.917969 188.742188 526.070312 C 188.640625 528.980469 188.339844 531.820312 186.085938 534.027344 C 183.007812 535.867188 179.75 535.148438 176.21875 534.578125 C 168.0625 530.449219 159.636719 526.238281 151.257812 521.921875 C 149.003906 520.769531 146.746094 520 143.601562 520.367188 C 142.734375 521.054688 141.261719 521.875 140.226562 523.078125 C 132.148438 532.371094 124.140625 541.734375 116.183594 551.128906 C 114.894531 552.652344 113.726562 554.359375 114.328125 556.582031 C 115.046875 557 115.714844 557.667969 116.433594 557.75 C 121.5 558.386719 124.675781 561.078125 125.914062 566.109375 C 125.832031 569.085938 124.460938 571.578125 122.621094 573.835938 C 120.261719 576.726562 117.503906 579.21875 114.277344 581.058594 C 109.296875 583.898438 104.179688 586.507812 100.035156 588.714844 C 96.121094 589.382812 93.277344 589.953125 90.46875 588.246094 C 87.914062 586.089844 86.457031 583.097656 86.257812 579.753906 C 85.570312 568.285156 84.917969 556.796875 87.460938 545.414062 C 88.179688 542.21875 88.546875 538.941406 89.015625 536.085938 C 90.304688 533.476562 91.472656 531.300781 94.398438 531.21875 C 96.238281 531.300781 97.574219 532.339844 98.460938 533.710938 C 99.78125 535.765625 100.800781 538.023438 101.320312 538.976562 C 102.976562 544.59375 101.386719 549.292969 103.210938 553.554688 C 104.28125 553.335938 105.214844 553.40625 105.71875 552.988281 C 107.257812 551.648438 108.726562 550.195312 110.046875 548.640625 C 118.324219 538.960938 126.550781 529.246094 134.757812 519.53125 C 135.542969 518.613281 136.0625 517.476562 136.648438 516.523438 C 136.746094 512.210938 132.449219 511.757812 130.628906 509.234375 C 126.347656 503.449219 124.710938 496.679688 123.40625 489.789062 C 123.105469 488.203125 123.105469 486.511719 123.222656 484.890625 C 123.457031 481.480469 124.859375 478.523438 127.402344 476.230469 C 131.566406 472.46875 136.3125 470.398438 142.0625 471.617188 C 142.867188 471.785156 143.667969 471.984375 145.039062 472.300781 C 147.28125 473.808594 149.988281 475.628906 152.597656 477.386719 C 153.449219 476.898438 154.402344 476.683594 154.71875 476.113281 C 157.878906 470.363281 160.472656 464.3125 164.449219 459.011719 C 166.707031 456 169.347656 453.527344 172.476562 451.472656 C 175.402344 449.566406 178.496094 448.996094 182.441406 449.898438 C 183.960938 451.054688 185.902344 452.523438 187.824219 453.980469 C 188.609375 453.8125 189.445312 453.761719 190.148438 453.445312 C 190.867188 453.109375 191.585938 452.589844 192.085938 451.972656 C 199.910156 442.476562 208.335938 433.480469 215.625 423.683594 C 214.824219 421.144531 214.371094 420.808594 212.316406 421.210938 C 206.683594 422.296875 201.03125 423.332031 195.429688 424.554688 C 187.019531 426.375 178.59375 428.214844 170.234375 430.289062 C 155.089844 434.066406 140.273438 438.914062 125.761719 444.667969 C 114.261719 449.230469 102.425781 452.472656 90.085938 453.710938 C 88.046875 453.910156 86.007812 454.179688 83.96875 454.414062 C 82.011719 454.648438 80.222656 456.167969 78.117188 455.199219 C 77.648438 454.53125 77.679688 453.726562 78.5 453.175781 C 79.835938 452.257812 81.226562 451.238281 82.730469 450.753906 C 86.625 449.480469 90.539062 448.042969 94.566406 447.476562 C 104.046875 446.105469 112.757812 442.492188 121.550781 439.082031 C 130.34375 435.671875 139.003906 431.925781 147.78125 428.449219 C 156.960938 424.804688 166.574219 422.546875 176.121094 420.171875 C 191.25 416.410156 206.449219 412.96875 221.527344 409.40625 C 222.179688 408.738281 222.730469 408.136719 223.449219 407.382812 C 223.515625 406.347656 223.886719 405.09375 223.652344 403.941406 C 221.027344 391.066406 218.234375 378.242188 215.675781 365.371094 C 214.238281 358.128906 213.136719 350.824219 211.898438 343.550781 C 210.59375 335.863281 209.308594 328.171875 207.984375 320.496094 C 207.703125 318.875 207.265625 317.285156 207.066406 315.664062 C 205.914062 305.882812 204.875 296.105469 203.640625 286.339844 C 203.019531 281.476562 202.035156 276.644531 201.296875 272.214844 C 200.078125 269.722656 198.324219 268.917969 196.097656 269.121094 C 194.058594 269.304688 191.953125 269.355469 190.03125 269.972656 C 177.140625 274.1875 163.816406 276.710938 150.824219 280.488281 C 133.503906 285.519531 116.015625 289.96875 98.597656 294.648438 C 87.894531 297.523438 77.113281 300.015625 66.328125 302.539062 C 64.789062 302.910156 63.101562 302.589844 61.546875 302.589844 C 59.625 300.183594 59.625 300.183594 61.796875 297.375 C 73 294.367188 84.234375 290.519531 95.753906 287.460938 C 110.800781 283.464844 125.597656 278.464844 140.492188 273.902344 C 151.476562 270.542969 162.460938 267.230469 173.664062 264.65625 C 175.652344 264.203125 177.625 263.601562 179.597656 263 C 184.296875 261.546875 188.925781 259.890625 193.824219 259.105469 C 195.328125 258.855469 196.699219 257.71875 198.339844 256.882812 C 198.539062 255.160156 199.058594 253.503906 198.839844 251.984375 C 196.984375 239.410156 194.980469 226.855469 193.023438 214.300781 C 191.953125 207.410156 190.832031 200.523438 189.878906 193.617188 C 189.378906 189.957031 189.09375 186.28125 187.890625 182.734375 C 187.503906 181.582031 187.355469 180.328125 187.304688 179.105469 C 186.953125 171.300781 185.433594 163.609375 184.878906 155.851562 C 184.179688 145.300781 182.789062 134.769531 180.535156 124.636719 Z M 243.160156 402.101562 C 244.683594 402.769531 245.4375 403.40625 246.105469 403.320312 C 248.527344 403.019531 250.953125 402.550781 253.34375 402.015625 C 264.527344 399.527344 275.480469 395.964844 286.949219 394.792969 C 292.449219 392.9375 298.285156 393.054688 303.902344 391.96875 C 312.328125 390.332031 320.636719 388.007812 329.296875 387.605469 C 330.515625 387.554688 331.738281 387.238281 332.925781 386.9375 C 348.441406 383.042969 364.320312 381.101562 379.972656 377.957031 C 392.8125 375.382812 405.652344 372.828125 418.074219 370.351562 C 419.042969 369.433594 419.628906 368.878906 420.546875 368.011719 C 420.597656 366.304688 420.882812 364.265625 420.648438 362.261719 C 420.328125 359.417969 419.425781 356.644531 419.175781 353.800781 C 417.753906 338.285156 414.613281 323.003906 412.6875 307.558594 C 411.066406 294.550781 408.878906 281.644531 408.359375 268.484375 C 407.925781 257.449219 406.503906 246.449219 405.417969 235.433594 C 405.015625 231.371094 404.429688 227.308594 403.695312 223.277344 C 403.511719 222.273438 402.425781 221.4375 401.519531 220.21875 C 398.679688 221.105469 395.820312 221.371094 392.492188 223.914062 C 378.949219 240.449219 363.804688 257.167969 350.296875 274.621094 C 347.1875 283.617188 343.390625 291.789062 339.894531 300.101562 C 336.570312 308.023438 332.339844 315.546875 329.730469 323.789062 C 327.640625 330.429688 325.316406 337.015625 322.808594 343.519531 C 321.738281 346.277344 321.773438 349.136719 321.070312 351.894531 C 320.886719 352.628906 320.269531 353.265625 319.851562 353.949219 C 317.558594 355.574219 315.269531 355.320312 312.378906 353.550781 C 308.597656 347.847656 302.863281 343.351562 295.976562 339.222656 C 291.746094 342.683594 288.90625 347.28125 285.308594 351.109375 C 281.664062 354.988281 278.40625 359.234375 275.011719 363.332031 C 271.351562 367.742188 267.738281 372.207031 264.042969 376.605469 C 260.601562 380.683594 257.070312 384.679688 253.578125 388.710938 C 250.117188 392.738281 246.421875 396.582031 243.160156 402.101562 Z M 349.976562 263.167969 C 353.269531 262.398438 354.476562 260.644531 355.777344 259.105469 C 363.203125 250.34375 370.589844 241.566406 377.964844 232.757812 C 379.269531 231.203125 380.503906 229.5625 381.691406 227.910156 C 382.292969 227.074219 381.992188 226.304688 380.824219 225.667969 C 377.882812 226.1875 374.65625 226.65625 371.476562 227.339844 C 369.488281 227.773438 367.582031 228.578125 365.609375 229.097656 C 359.273438 230.769531 353.070312 232.839844 346.632812 234.144531 C 333.792969 236.769531 321.019531 239.613281 308.230469 242.453125 C 291.429688 246.183594 274.609375 249.828125 258.292969 255.445312 C 257.523438 255.710938 256.738281 255.996094 255.953125 256.164062 C 247.140625 258.050781 238.332031 259.925781 229.519531 261.78125 C 224.722656 262.785156 219.957031 263.902344 215.34375 265.242188 C 214.523438 266.429688 213.835938 267.398438 213.285156 268.183594 C 212.75 272.195312 213.488281 275.808594 214.15625 279.453125 C 214.65625 282.277344 215.34375 285.085938 215.578125 287.929688 C 215.996094 292.84375 216.730469 297.660156 217.648438 302.507812 C 219.707031 313.359375 220.925781 324.359375 223.332031 335.160156 C 223.367188 341.378906 225.324219 347.261719 226.460938 353.300781 C 229.117188 367.394531 231.894531 381.46875 235.855469 395.261719 C 236.023438 395.832031 236.960938 396.183594 237.542969 396.632812 C 238.28125 396.300781 239.199219 396.164062 239.71875 395.628906 C 242.527344 392.65625 245.335938 389.660156 247.976562 386.535156 C 260.148438 372.140625 272.269531 357.695312 284.40625 343.269531 C 285.996094 341.378906 287.515625 339.457031 289.039062 337.535156 C 290.089844 336.195312 290.59375 334.691406 290.074219 332.417969 C 287.5 328.890625 284.808594 324.761719 281.664062 321 C 278.171875 316.851562 275.664062 312.238281 273.757812 307.472656 C 272.753906 301.957031 272.234375 296.691406 274.109375 291.90625 C 275.761719 288.882812 278.003906 287.042969 280.660156 285.90625 C 282.886719 284.953125 285.328125 284.335938 287.734375 284.050781 C 293.96875 283.316406 300.023438 283.949219 305.640625 287.8125 C 307.410156 289.652344 309.382812 291.707031 311.308594 293.695312 C 314.300781 292.191406 314.382812 292.226562 315.035156 290.6875 C 319.382812 280.390625 326.054688 271.542969 332.671875 262.667969 C 333.894531 261.027344 335.316406 259.558594 335.414062 259.441406 C 339.460938 257.183594 341.820312 257.332031 344.210938 258.472656 C 346.046875 259.992188 347.9375 261.53125 349.976562 263.167969 Z M 532.210938 68.730469 C 535.085938 68.230469 537.84375 67.644531 540.636719 67.277344 C 543.34375 66.90625 546.1875 67.558594 549.195312 65.769531 C 545.21875 64.867188 541.574219 65.285156 537.996094 64.984375 C 534.402344 64.683594 530.824219 64.316406 527.363281 63.980469 C 525.808594 66.105469 525.90625 67.292969 527.578125 67.742188 C 529.136719 68.144531 530.722656 68.414062 532.210938 68.730469 Z M 530.1875 39.707031 C 528.5 43.117188 527.0625 46.394531 526.609375 50.039062 C 526.410156 51.628906 526.257812 53.25 527.179688 54.6875 C 527.347656 54.953125 527.78125 55.238281 528.046875 55.222656 C 528.414062 55.1875 528.933594 54.9375 529.066406 54.636719 C 530.773438 50.472656 531.726562 46.160156 531.339844 41.644531 C 531.292969 41.0625 530.691406 40.507812 530.1875 39.707031 Z M 530.1875 39.707031 "/></g><path style=" stroke:none;fill-rule:nonzero;fill:#f4b8c4;fill-opacity:1;" d="M 117.890625 181.097656 C 125.445312 183.121094 132.148438 184.957031 137.785156 189.4375 C 141.128906 193.117188 143.503906 197.296875 145.074219 202.078125 C 149.152344 214.566406 144.871094 228.226562 134.105469 235.917969 C 131.382812 237.855469 128.320312 238.894531 124.910156 239.027344 C 119.027344 239.261719 113.507812 237.671875 108.09375 235.785156 C 103.8125 234.277344 99.964844 231.835938 96.40625 227.125 C 95.9375 225.96875 95.019531 223.695312 94.183594 221.65625 C 94.183594 220.550781 94.03125 219.714844 94.199219 218.929688 C 95.519531 212.929688 96.488281 206.84375 98.394531 200.976562 C 99.933594 196.210938 102.054688 191.847656 106.46875 187.667969 C 109.53125 185.910156 113.410156 183.6875 117.890625 181.097656 Z M 105.417969 221.738281 C 111.804688 226.003906 117.738281 228.328125 124.507812 228.144531 C 127.066406 228.074219 129.324219 227.191406 131.164062 225.519531 C 135.292969 221.789062 137.699219 217.007812 137.417969 211.492188 C 137.132812 205.773438 135.644531 200.257812 131.867188 196.578125 C 125.230469 191.898438 118.425781 191.378906 111.550781 191.011719 C 110.648438 192.199219 109.695312 193.050781 109.230469 194.121094 C 106.4375 200.488281 104.597656 207.144531 104.113281 214.066406 C 103.960938 216.40625 104.882812 218.8125 105.417969 221.738281 Z M 105.417969 221.738281 "/><path style=" stroke:none;fill-rule:nonzero;fill:#f4b8c4;fill-opacity:1;" d="M 362.132812 452.507812 C 367.617188 458.109375 369.871094 464.328125 372.867188 470.363281 C 373.132812 472.6875 373.5 475.128906 373.652344 477.570312 C 374.269531 487.648438 370.191406 495.941406 363.570312 503.164062 C 362.199219 504.652344 360.511719 505.890625 358.820312 507.042969 C 357.484375 507.964844 355.847656 508.464844 354.476562 509.335938 C 347.820312 513.546875 340.566406 513.816406 333.074219 512.679688 C 328.460938 511.976562 324.617188 509.667969 320.535156 506.410156 C 319.097656 504.203125 317.292969 501.476562 315.738281 499.085938 C 313.796875 489.070312 314.886719 479.824219 318.128906 470.949219 C 325.351562 459.078125 325.351562 459.078125 335.902344 450.285156 C 336.320312 449.398438 336.953125 448.328125 337.339844 447.175781 C 338.59375 443.445312 341.148438 442.058594 345.515625 442.8125 C 351.179688 445.035156 356.664062 448.613281 362.132812 452.507812 Z M 322.089844 490.125 C 322.925781 492.148438 324.011719 494.789062 324.882812 496.878906 C 331.503906 504.269531 339.394531 505.671875 347.804688 503.332031 C 356.984375 500.773438 363.671875 494.90625 367.015625 485.761719 C 367.851562 483.46875 368.234375 481.03125 368.769531 478.941406 C 366.996094 468.105469 363.972656 458.558594 353.003906 453.660156 C 348.238281 453.628906 343.339844 452.957031 338.542969 454.261719 C 331.4375 458.558594 327.339844 465.03125 324.429688 472.335938 C 323.546875 478.085938 321.574219 483.585938 322.089844 490.125 Z M 322.089844 490.125 "/></g></svg>