<svg xmlns="http://www.w3.org/2000/svg" xmlns:xlink="http://www.w3.org/1999/xlink" width="540" zoomAndPan="magnify" viewBox="0 0 404.88 506.249968" height="675" preserveAspectRatio="xMidYMid meet" version="1.2"><defs><clipPath id="6c9a6258e9"><path d="M 62.164062 0 L 342.996094 0 L 342.996094 505 L 62.164062 505 Z M 62.164062 0 "/></clipPath></defs><g id="04166dea2a"><g clip-rule="nonzero" clip-path="url(#6c9a6258e9)"><path style=" stroke:none;fill-rule:nonzero;fill:#f4b8c4;fill-opacity:1;" d="M 144.4375 352.128906 C 143.40625 354.660156 142.617188 357.195312 141.585938 359.570312 C 140.792969 361.3125 140.082031 363.132812 139.050781 364.640625 C 138.023438 366.144531 137.707031 367.886719 137.546875 369.628906 C 137.230469 374.0625 136.914062 378.417969 136.675781 382.851562 C 136.359375 387.683594 136.359375 392.589844 136.28125 397.421875 C 136.28125 404.3125 135.332031 410.960938 132.796875 417.375 C 131.054688 421.730469 129.3125 426.167969 127.570312 430.519531 C 124.164062 439.074219 121.949219 448.019531 120.285156 457.046875 C 119.335938 461.878906 118.859375 466.707031 117.832031 471.539062 C 116.089844 479.855469 111.972656 486.980469 106.664062 493.472656 C 105.082031 495.453125 103.179688 497.117188 101.121094 498.621094 C 100.25 499.253906 99.378906 499.808594 98.351562 499.964844 C 97.480469 500.125 96.765625 500.519531 96.054688 500.996094 C 91.542969 504.242188 86.550781 505.191406 81.167969 504.003906 C 78.632812 503.449219 76.019531 502.898438 73.644531 501.789062 C 71.585938 500.835938 69.765625 499.492188 68.417969 497.671875 C 66.914062 495.691406 65.09375 494.027344 63.429688 492.128906 C 62.636719 491.257812 62.164062 490.226562 62.242188 489.039062 C 62.242188 487.21875 62.242188 485.476562 62.480469 483.65625 C 62.875 480.960938 63.828125 478.507812 65.488281 476.371094 C 69.765625 470.589844 73.644531 464.414062 78.316406 458.871094 C 79.347656 457.601562 80.375 456.335938 81.40625 455.148438 C 81.800781 454.671875 82.277344 454.117188 82.832031 453.722656 C 83.703125 453.011719 84.257812 453.167969 84.574219 454.277344 C 85.523438 456.96875 86 459.820312 86.316406 462.671875 C 86.789062 466.867188 87.503906 471.0625 88.929688 475.101562 C 89.085938 475.65625 89.164062 476.210938 89.71875 476.6875 C 90.671875 474.707031 91.382812 472.648438 92.09375 470.667969 C 94.3125 464.808594 95.5 458.710938 96.371094 452.535156 C 97.796875 442.082031 100.566406 431.945312 104.921875 422.285156 C 108.40625 414.605469 112.289062 407.242188 116.246094 399.875 C 119.097656 394.652344 121.867188 389.425781 124.71875 384.117188 C 124.878906 383.882812 125.035156 383.644531 125.035156 383.328125 C 125.589844 380.398438 127.09375 377.785156 128.125 375.089844 C 129.628906 371.210938 131.214844 367.410156 132.480469 363.453125 C 133.429688 360.523438 133.746094 357.511719 133.746094 354.425781 C 133.746094 350.308594 133.746094 346.1875 133.746094 342.152344 C 133.746094 340.089844 133.429688 338.113281 133.273438 336.054688 C 133.035156 331.460938 132.480469 326.867188 131.925781 322.273438 C 131.6875 320.214844 131.6875 318.078125 132.480469 316.097656 C 132.082031 315.703125 131.847656 316.097656 131.53125 316.097656 C 130.738281 316.335938 129.945312 316.496094 129.152344 316.730469 C 126.777344 317.285156 124.480469 317.050781 122.105469 316.335938 C 115.375 314.199219 108.722656 311.824219 102.074219 309.210938 C 96.292969 306.992188 90.351562 305.644531 84.175781 305.011719 C 82.277344 304.855469 80.296875 304.617188 78.394531 304.222656 C 76.257812 303.746094 74.675781 302.480469 73.488281 300.816406 C 72.535156 299.46875 72.617188 297.886719 72.933594 296.382812 C 73.644531 293.136719 74.914062 290.207031 77.683594 288.144531 C 79.109375 287.039062 80.296875 285.613281 81.246094 284.109375 C 82.832031 281.652344 84.652344 279.4375 86.789062 277.378906 C 88.609375 275.636719 90.273438 273.734375 92.253906 272.070312 C 93.363281 271.121094 94.550781 270.25 95.976562 269.773438 C 97.480469 269.222656 98.984375 269.300781 100.410156 270.09375 C 101.757812 270.804688 102.785156 271.753906 103.972656 272.785156 C 107.773438 276.03125 111.8125 278.960938 116.324219 281.257812 C 118.148438 282.207031 120.046875 282.761719 121.949219 283.394531 C 124.007812 284.109375 125.90625 284.898438 127.808594 286.007812 C 129.707031 287.117188 131.449219 288.464844 132.796875 290.207031 C 136.519531 294.71875 141.585938 297.253906 146.496094 299.707031 C 146.890625 299.707031 146.890625 299.550781 146.890625 299.390625 C 147.050781 295.195312 147.128906 290.917969 147.289062 286.722656 C 147.445312 281.730469 147.050781 276.824219 146.652344 271.914062 C 146.417969 268.984375 146.417969 265.972656 146.257812 263.042969 C 146.019531 259.164062 146.101562 255.363281 145.863281 251.484375 C 145.625 246.890625 145.464844 242.21875 145.464844 237.625 C 145.464844 230.894531 145.464844 224.085938 145.464844 217.355469 C 145.464844 212.605469 145.308594 207.933594 144.910156 203.257812 C 144.515625 198.351562 144.199219 193.363281 143.722656 188.453125 C 143.011719 181.640625 142.851562 174.832031 143.011719 168.023438 C 143.011719 164.855469 143.488281 161.6875 143.722656 158.519531 C 144.121094 154.242188 144.359375 149.96875 144.4375 145.691406 C 144.515625 140.703125 144.675781 135.714844 145.230469 130.726562 C 145.703125 126.765625 145.941406 122.886719 146.101562 118.925781 C 146.257812 115.839844 147.050781 112.832031 147.921875 109.820312 C 148.238281 108.632812 148.949219 107.605469 149.820312 106.652344 C 149.347656 106.257812 148.792969 106.179688 148.316406 106.179688 C 145.230469 105.78125 143.089844 104.277344 141.980469 101.347656 C 140.476562 97.46875 140.082031 93.507812 140.953125 89.46875 C 141.507812 86.9375 141.664062 84.402344 142.300781 81.867188 C 142.300781 81.550781 142.300781 81.234375 142.300781 80.839844 C 142.300781 78.78125 143.167969 77.195312 144.515625 75.773438 C 144.992188 75.296875 145.308594 75.375 145.625 75.929688 C 146.019531 76.5625 146.335938 77.117188 146.652344 77.832031 C 147.289062 79.414062 148.238281 80.839844 149.664062 81.949219 C 150.929688 82.976562 151.878906 84.246094 152.75 85.667969 C 154.097656 87.886719 155.445312 90.023438 156.867188 92.164062 C 158.691406 95.011719 158.847656 98.023438 158.058594 101.191406 C 157.738281 102.457031 156.949219 103.488281 155.839844 104.199219 C 154.574219 104.992188 153.148438 105.546875 151.5625 106.179688 C 154.097656 107.683594 154.808594 110.136719 155.046875 112.671875 C 155.445312 116.789062 156.394531 120.75 157.582031 124.628906 C 158.609375 128.035156 158.925781 131.597656 159.480469 135.160156 C 160.589844 142.761719 160.351562 150.441406 160.351562 158.125 C 160.351562 161.6875 160.828125 165.25 161.304688 168.734375 C 161.9375 173.882812 162.886719 178.949219 163.28125 184.175781 C 163.679688 189.640625 164.152344 195.105469 164.707031 200.488281 C 165.023438 203.894531 165.660156 207.296875 165.976562 210.703125 C 166.210938 213.394531 166.292969 216.085938 166.449219 218.859375 C 166.6875 224.640625 166.609375 230.5 166.765625 236.28125 C 166.925781 242.613281 167.480469 249.027344 168.351562 255.285156 C 168.667969 257.816406 168.90625 260.351562 169.0625 262.964844 C 169.378906 267.164062 169.378906 271.359375 169.222656 275.554688 C 169.0625 278.960938 168.351562 282.367188 167.71875 285.691406 C 167.480469 286.722656 167.320312 287.75 167.003906 288.78125 C 166.609375 289.96875 166.847656 291.15625 167.003906 292.34375 C 167.242188 292.34375 167.402344 292.34375 167.480469 292.183594 C 169.933594 288.621094 173.578125 286.484375 177.378906 284.660156 C 181.652344 282.601562 186.246094 281.335938 190.761719 279.832031 C 195.667969 278.167969 200.5 276.425781 204.933594 273.894531 C 208.261719 271.992188 211.902344 271.199219 215.703125 270.726562 C 217.128906 270.566406 218.632812 270.25 220.136719 270.410156 C 221.007812 270.488281 221.722656 270.964844 222.511719 271.28125 C 222.988281 271.515625 223.148438 271.992188 223.066406 272.46875 C 222.988281 273.339844 223.226562 274.050781 223.621094 274.765625 C 224.175781 275.871094 224.652344 276.980469 225.207031 278.167969 C 227.105469 282.128906 228.054688 286.324219 228.925781 290.601562 C 229.085938 291.394531 229.164062 292.183594 229.164062 292.976562 C 229.164062 294.164062 229.480469 295.195312 230.273438 296.066406 C 230.589844 296.460938 230.433594 296.777344 230.273438 297.09375 C 229.71875 298.597656 228.847656 299.785156 227.34375 300.421875 C 222.195312 302.320312 217.050781 304.457031 211.664062 305.804688 C 209.765625 306.28125 207.945312 306.832031 206.042969 307.46875 C 200.105469 309.605469 194.164062 311.503906 187.988281 312.773438 C 186.40625 313.089844 184.820312 313.246094 183.160156 313.246094 C 179.277344 313.246094 175.320312 313.246094 171.4375 313.484375 C 171.042969 313.484375 170.648438 313.484375 170.332031 313.484375 C 169.855469 313.484375 169.222656 313.089844 169.0625 313.644531 C 168.90625 314.199219 168.824219 314.832031 169.144531 315.464844 C 170.332031 317.601562 171.042969 319.898438 171.835938 322.195312 C 173.417969 326.472656 174.210938 330.90625 173.816406 335.5 C 173.734375 336.527344 174.050781 337.558594 174.210938 338.585938 C 174.527344 340.726562 174.367188 342.863281 174.449219 345 C 174.449219 345.792969 174.6875 346.109375 175.476562 346.1875 C 176.425781 346.1875 177.21875 346.503906 178.011719 347.058594 C 179.515625 348.167969 179.675781 349.988281 178.488281 351.414062 C 177.851562 352.128906 177.0625 352.601562 176.109375 352.917969 C 175.003906 353.238281 175.003906 353.316406 175.082031 354.503906 C 175.476562 357.511719 175.875 360.519531 176.269531 363.53125 C 176.746094 366.855469 177.21875 370.183594 177.378906 373.585938 C 177.617188 377.230469 177.933594 380.871094 178.167969 384.515625 C 178.40625 388.15625 178.488281 391.71875 178.804688 395.363281 C 179.277344 401.460938 179.910156 407.558594 180.625 413.65625 C 182.128906 425.929688 184.820312 437.886719 187.117188 450 C 188.226562 456.019531 190.046875 461.800781 191.867188 467.660156 C 193.054688 471.460938 194.246094 475.261719 195.511719 479.0625 C 195.90625 480.40625 196.144531 480.488281 197.570312 480.25 C 198.757812 480.089844 199.867188 479.695312 200.976562 479.300781 C 202.082031 478.902344 203.269531 478.585938 204.460938 478.429688 C 206.597656 478.191406 208.339844 477.320312 209.683594 475.65625 C 211.347656 473.675781 213.25 471.933594 216.019531 471.617188 C 217.839844 471.378906 219.742188 471.460938 221.5625 471.617188 C 223.304688 471.855469 225.046875 471.933594 226.789062 471.777344 C 227.027344 471.222656 226.632812 470.984375 226.394531 470.746094 C 225.761719 469.957031 225.207031 469.164062 224.808594 468.214844 C 223.9375 466.3125 223.703125 464.414062 224.335938 462.355469 C 224.730469 461.164062 225.046875 459.976562 225.363281 458.789062 C 225.601562 457.917969 226.078125 457.285156 226.867188 456.8125 C 228.136719 455.941406 229.5625 455.304688 230.90625 454.75 C 232.332031 454.199219 233.679688 453.5625 235.023438 452.691406 C 238.667969 450.476562 242.625 448.734375 246.191406 446.277344 C 247.296875 445.488281 248.25 444.617188 248.722656 443.269531 C 249.992188 440.023438 251.417969 436.855469 252.921875 433.769531 C 253.871094 431.789062 254.1875 429.808594 253.316406 427.75 C 252.605469 425.847656 252.683594 423.949219 253.554688 422.046875 C 254.265625 420.464844 254.820312 418.882812 255.136719 417.140625 C 255.613281 414.605469 255.375 412.070312 254.742188 409.695312 C 254.109375 407.320312 253.15625 405.101562 251.574219 403.203125 C 250.070312 401.300781 249.121094 399.003906 248.960938 396.550781 C 248.960938 395.601562 249.039062 394.648438 249.355469 393.78125 C 250.464844 390.296875 251.574219 386.890625 253.15625 383.644531 C 253.710938 382.457031 254.109375 381.269531 254.265625 379.921875 C 253.949219 379.921875 253.871094 380.082031 253.792969 380.316406 C 253.710938 380.476562 253.632812 380.632812 253.554688 380.871094 C 252.761719 382.613281 251.96875 384.355469 251.179688 386.097656 C 249.832031 389.1875 247.933594 391.878906 245.714844 394.414062 C 244.921875 395.285156 244.449219 396.234375 244.210938 397.421875 C 243.179688 402.410156 241.675781 407.242188 239.617188 411.914062 C 238.035156 415.398438 236.765625 419.117188 235.578125 422.761719 C 233.757812 428.382812 230.667969 433.132812 226.949219 437.648438 C 225.207031 439.785156 223.382812 441.84375 221.246094 443.664062 C 220.21875 444.535156 219.347656 445.644531 218.394531 446.675781 C 215.703125 449.761719 211.902344 450.316406 208.496094 448.101562 C 203.824219 445.011719 200.339844 440.894531 197.648438 435.984375 C 196.144531 433.214844 194.71875 430.441406 193.453125 427.589844 C 192.898438 426.402344 192.34375 425.214844 191.632812 424.1875 C 191.394531 423.871094 191.15625 423.554688 191.316406 423.15625 C 191.394531 422.761719 191.632812 422.363281 192.105469 422.683594 C 193.53125 423.554688 195.195312 423.632812 196.777344 423.789062 C 198.203125 423.949219 199.550781 424.503906 200.738281 425.296875 C 202.242188 426.246094 203.824219 426.71875 205.648438 426.484375 C 207.945312 426.167969 210.003906 426.800781 211.902344 427.988281 C 213.722656 429.175781 215.464844 430.285156 217.289062 431.472656 C 219.03125 432.582031 220.453125 432.5 222.039062 431.234375 C 222.355469 430.996094 222.433594 430.601562 222.59375 430.285156 C 226.078125 421.890625 228.847656 413.179688 230.433594 404.230469 C 230.828125 402.015625 230.984375 399.71875 231.144531 397.421875 C 231.382812 394.652344 231.304688 391.800781 231.460938 389.027344 C 231.777344 383.722656 231.699219 378.339844 231.621094 373.03125 C 231.621094 369.3125 231.621094 365.511719 231.304688 361.789062 C 230.984375 357.828125 230.984375 353.871094 231.222656 349.910156 C 231.539062 342.230469 233.046875 334.707031 235.816406 327.5 C 238.035156 321.640625 239.855469 315.703125 240.964844 309.527344 C 241.121094 308.417969 241.28125 307.386719 241.359375 306.28125 C 241.4375 304.378906 241.675781 302.480469 241.914062 300.578125 C 241.914062 299.945312 241.753906 299.550781 241.519531 299.152344 C 240.171875 297.171875 238.746094 295.113281 237.398438 293.136719 C 236.132812 291.234375 235.261719 289.097656 234.867188 286.800781 C 234.234375 283.472656 234.707031 280.148438 236.054688 277.058594 C 237.636719 273.578125 239.777344 270.566406 242.785156 268.113281 C 242.863281 268.035156 242.941406 267.875 243.023438 267.796875 C 242.941406 267.320312 242.46875 267.480469 242.230469 267.398438 C 239.140625 266.6875 236.054688 266.210938 232.886719 266.371094 C 230.433594 266.527344 227.976562 266.765625 225.523438 267.003906 C 222.910156 267.242188 220.296875 267.636719 217.683594 267.796875 C 214.121094 267.875 210.554688 267.398438 207.390625 265.894531 C 202.71875 263.679688 200.105469 259.796875 199.550781 254.570312 C 199.3125 252.117188 199.390625 249.742188 199.074219 247.285156 C 198.757812 245.148438 198.597656 243.011719 198.28125 240.953125 C 198.046875 239.128906 198.203125 237.308594 198.519531 235.566406 C 198.835938 233.90625 199.707031 232.558594 201.132812 231.609375 C 203.824219 229.707031 206.835938 228.835938 210.082031 228.679688 C 212.296875 228.597656 214.515625 228.914062 216.734375 229.46875 C 223.304688 231.132812 229.796875 233.269531 236.210938 235.488281 C 239.617188 236.675781 242.785156 238.257812 245.082031 241.191406 C 245.320312 241.425781 245.554688 241.664062 245.792969 241.824219 C 247.535156 243.167969 249.277344 244.4375 251.097656 245.78125 C 251.496094 245.625 251.335938 245.226562 251.257812 244.910156 C 251.179688 239.84375 251.097656 234.777344 251.257812 229.785156 C 251.417969 227.015625 251.734375 224.242188 251.96875 221.394531 C 252.128906 218.78125 252.285156 216.167969 252.367188 213.554688 C 252.761719 205.714844 252.523438 197.953125 252.683594 190.113281 C 252.683594 186.3125 253 182.511719 253.15625 178.710938 C 253.316406 176.019531 253.394531 173.328125 253.476562 170.554688 C 253.632812 167.625 253.792969 164.695312 253.949219 161.765625 C 254.109375 159.234375 254.1875 156.621094 254.347656 154.085938 C 254.742188 146.40625 255.691406 138.882812 257.511719 131.359375 C 258.9375 125.5 259.890625 119.5625 260.363281 113.464844 C 260.679688 109.902344 260.996094 106.335938 260.761719 102.773438 C 260.523438 99.289062 260.601562 95.726562 260.363281 92.242188 C 260.125 88.757812 260.207031 85.273438 260.207031 81.789062 C 260.207031 78.386719 260.207031 74.902344 260.363281 71.496094 C 260.523438 67.933594 260.996094 64.367188 261.3125 60.886719 C 261.632812 57.796875 261.867188 54.628906 262.105469 51.542969 C 262.34375 48.769531 261.789062 46 262.027344 43.304688 C 262.183594 41.800781 262.421875 40.375 263.214844 38.949219 C 264.007812 37.523438 264.480469 36.019531 265.589844 34.753906 C 265.90625 34.359375 266.222656 33.960938 266.621094 33.566406 C 267.492188 32.773438 267.253906 31.902344 266.144531 31.664062 C 263.214844 30.953125 260.996094 29.371094 259.097656 27.074219 C 257.828125 25.648438 257.433594 23.90625 257.511719 22.164062 C 257.75 18.441406 258.859375 14.957031 261.234375 11.949219 C 262.976562 9.730469 264.878906 7.515625 266.222656 4.980469 C 266.777344 3.949219 267.253906 2.921875 267.808594 1.890625 C 267.808594 1.734375 267.964844 1.65625 267.964844 1.496094 C 268.203125 0.941406 268.519531 0.308594 269.234375 0.308594 C 269.945312 0.308594 270.183594 1.019531 270.339844 1.574219 C 271.132812 4.503906 272.320312 7.355469 272.953125 10.285156 C 273.667969 13.453125 274.617188 16.542969 275.011719 19.789062 C 275.25 21.6875 275.410156 23.507812 275.328125 25.488281 C 275.09375 28.5 273.351562 30.082031 270.894531 31.191406 C 270.5 31.347656 270.105469 31.429688 269.707031 31.585938 C 268.996094 31.824219 268.679688 32.695312 269.234375 33.25 C 270.578125 34.4375 271.132812 36.101562 271.609375 37.683594 C 272.082031 39.1875 272.558594 40.691406 272.953125 42.195312 C 273.667969 44.96875 273.507812 47.738281 273.585938 50.589844 C 273.667969 54.234375 273.667969 57.953125 273.90625 61.597656 C 274.140625 65.238281 274.695312 68.882812 275.328125 72.445312 C 275.804688 74.902344 275.964844 77.433594 276.121094 79.96875 C 276.28125 83.609375 276.359375 87.332031 276.4375 90.976562 C 276.597656 95.566406 277.070312 100.160156 277.707031 104.753906 C 277.941406 106.574219 278.023438 108.316406 278.101562 110.136719 C 278.261719 112.910156 278.339844 115.679688 278.339844 118.453125 C 278.261719 122.410156 277.941406 126.292969 277.625 130.25 C 277.390625 133.8125 277.070312 137.378906 276.914062 140.941406 C 276.753906 144.1875 276.753906 147.433594 276.597656 150.679688 C 276.519531 154.324219 276.28125 157.964844 276.042969 161.6875 C 275.726562 165.488281 274.933594 169.210938 274.222656 172.933594 C 273.667969 175.863281 273.351562 178.871094 273.191406 181.878906 C 272.71875 189.324219 272.875 196.847656 272.558594 204.289062 C 272.320312 210.386719 272.398438 216.484375 272.242188 222.582031 C 272.082031 225.828125 272.398438 229.074219 272.480469 232.320312 C 272.480469 236.042969 272.480469 239.765625 272.480469 243.484375 L 272.480469 244.753906 C 273.667969 244.4375 274.378906 243.644531 275.09375 242.929688 C 277.152344 240.871094 279.289062 238.8125 281.664062 236.992188 C 287.050781 232.875 292.828125 229.628906 298.925781 226.699219 C 302.09375 225.195312 305.339844 223.691406 308.746094 222.898438 C 311.914062 222.183594 315.082031 222.183594 318.25 222.34375 C 320.308594 222.421875 322.050781 223.453125 323.710938 224.640625 C 323.949219 224.796875 324.1875 224.957031 324.425781 225.113281 C 325.613281 225.828125 326.246094 226.9375 326.5625 228.28125 C 326.957031 230.105469 327.511719 232.003906 328.226562 233.746094 C 329.570312 236.992188 330.285156 240.320312 330.839844 243.800781 C 330.996094 245.148438 331.3125 246.496094 331.3125 247.921875 C 331.3125 248.710938 331.15625 249.503906 330.996094 250.296875 C 330.441406 252.433594 329.097656 253.78125 326.878906 254.097656 C 324.980469 254.414062 323.15625 254.730469 321.257812 254.96875 C 319.4375 255.207031 317.851562 255.839844 316.425781 256.949219 C 315.398438 257.738281 314.289062 258.53125 313.257812 259.402344 C 309.617188 262.332031 305.421875 263.996094 300.90625 265.023438 C 295.839844 266.132812 290.691406 266.292969 285.625 264.785156 C 285.308594 264.707031 284.992188 264.550781 284.59375 264.785156 C 284.910156 265.261719 285.308594 265.816406 285.625 266.292969 C 287.367188 269.140625 288.238281 272.308594 288.710938 275.554688 C 289.109375 278.40625 289.1875 281.335938 289.34375 284.265625 C 289.582031 288.304688 289.980469 292.34375 291.40625 296.144531 C 292.355469 298.679688 293.78125 301.054688 295.207031 303.351562 C 297.738281 307.386719 299.5625 311.742188 300.984375 316.179688 C 303.203125 323.144531 303.363281 330.195312 301.144531 337.242188 C 300.511719 339.300781 300.113281 341.515625 299.878906 343.65625 C 299.71875 344.683594 299.878906 345.636719 300.195312 346.585938 C 300.90625 348.328125 301.300781 350.226562 301.777344 352.046875 C 302.808594 355.53125 304.152344 358.859375 305.972656 362.027344 C 308.191406 365.828125 309.933594 369.867188 310.804688 374.21875 C 311.199219 376.359375 311.515625 378.496094 311.515625 380.714844 C 311.515625 384.355469 311.515625 388 311.675781 391.5625 C 311.835938 395.363281 312.152344 399.164062 312.625 402.886719 C 313.179688 407.476562 313.417969 412.070312 311.914062 416.585938 C 311.4375 417.851562 310.964844 419.039062 310.25 420.226562 C 309.539062 421.414062 308.585938 422.445312 307.320312 423.078125 C 304.945312 424.34375 302.648438 425.613281 300.273438 426.878906 C 296.234375 429.097656 293.304688 432.261719 291.324219 436.460938 C 292.117188 436.699219 292.75 436.300781 293.226562 435.828125 C 295.523438 433.609375 298.371094 432.582031 301.222656 431.472656 C 303.363281 430.601562 305.578125 429.730469 307.796875 429.015625 C 308.351562 428.859375 308.984375 428.542969 309.457031 428.226562 C 312.785156 425.847656 316.425781 424.660156 320.464844 424.265625 C 323.238281 423.949219 325.929688 423.871094 328.699219 424.503906 C 330.363281 424.898438 332.027344 424.898438 333.6875 424.820312 C 336.855469 424.820312 339.46875 426.246094 341.84375 428.144531 C 342.003906 428.304688 342.164062 428.460938 342.320312 428.699219 C 342.714844 429.332031 342.636719 429.730469 341.925781 429.808594 C 340.023438 429.96875 338.042969 430.125 336.066406 430.125 C 331.472656 429.96875 326.878906 429.886719 322.761719 432.421875 C 320.78125 433.609375 318.800781 434.71875 316.824219 435.828125 C 313.179688 437.886719 309.539062 440.023438 305.972656 442.082031 C 304.550781 442.875 303.042969 443.429688 301.460938 443.824219 C 296.789062 444.933594 292.117188 444.773438 287.445312 443.824219 C 285.226562 443.347656 283.566406 442.003906 282.457031 440.101562 C 279.921875 435.746094 280.398438 431.472656 282.695312 427.195312 C 283.25 426.085938 283.960938 425.058594 284.832031 424.1875 C 286.097656 422.839844 286.890625 421.097656 287.523438 419.355469 C 288.238281 417.613281 288.871094 415.792969 289.503906 414.050781 C 290.375 411.753906 290.769531 409.378906 290.769531 406.925781 C 290.929688 400.035156 289.664062 393.382812 288.078125 386.730469 C 286.890625 381.902344 285.703125 376.992188 285.148438 372.082031 C 284.992188 370.65625 284.59375 369.3125 284.4375 367.886719 C 283.722656 363.136719 283.882812 358.464844 285.148438 353.871094 C 286.335938 349.4375 286.8125 344.921875 286.96875 340.328125 C 286.96875 338.984375 286.734375 337.714844 286.496094 336.371094 C 285.148438 329.007812 281.664062 322.59375 277.152344 316.574219 C 276.042969 317.207031 274.777344 317.601562 273.507812 317.921875 C 272.398438 318.15625 272.320312 318.238281 272.480469 319.34375 C 272.796875 321.640625 272.714844 324.015625 272.714844 326.3125 C 272.714844 329.957031 272.398438 333.597656 272.164062 337.242188 C 272.164062 337.953125 271.925781 338.667969 271.449219 339.222656 C 271.132812 339.695312 270.894531 340.25 270.421875 340.644531 C 268.914062 342.152344 268.363281 344.050781 268.203125 346.03125 C 268.042969 347.21875 267.964844 348.40625 267.886719 349.59375 C 267.886719 350.78125 267.808594 351.96875 268.519531 353.078125 C 268.996094 353.789062 268.757812 354.582031 268.519531 355.296875 C 268.125 356.957031 267.648438 358.621094 267.253906 360.285156 C 267.015625 361.15625 266.9375 361.945312 266.9375 362.816406 C 266.9375 365.746094 266.699219 368.597656 267.492188 371.527344 C 267.648438 372.003906 267.492188 372.480469 267.492188 372.953125 C 267.253906 374.933594 266.9375 376.914062 267.015625 378.972656 C 267.09375 381.980469 267.964844 384.832031 269.390625 387.445312 C 271.847656 391.878906 272.003906 396.628906 271.210938 401.460938 C 270.816406 404.074219 270.023438 406.527344 268.679688 408.824219 C 267.726562 410.410156 267.492188 412.308594 267.171875 414.128906 C 266.699219 416.824219 266.222656 419.433594 266.699219 422.207031 C 266.855469 423.316406 267.171875 424.34375 267.410156 425.375 C 267.726562 426.640625 267.726562 427.671875 266.9375 428.699219 C 266.621094 429.097656 266.382812 429.648438 266.621094 430.203125 C 267.410156 432.582031 267.808594 435.035156 268.679688 437.332031 C 269.234375 438.835938 269.785156 440.261719 270.5 441.6875 C 271.765625 444.300781 273.585938 446.199219 276.359375 447.230469 C 278.417969 448.019531 280.398438 449.128906 282.378906 450.160156 C 282.851562 450.398438 283.40625 450.792969 283.800781 451.1875 C 287.367188 454.832031 291.324219 458.078125 293.859375 462.589844 C 294.253906 463.304688 294.808594 463.859375 295.363281 464.492188 C 296.628906 465.839844 297.5 467.421875 297.898438 469.164062 C 298.136719 470.351562 298.136719 471.460938 297.105469 472.570312 C 293.304688 477.003906 288.238281 479.378906 282.851562 481.199219 C 278.257812 482.785156 273.429688 483.496094 268.597656 483.734375 C 264.402344 483.972656 260.207031 484.050781 256.085938 483.496094 C 251.96875 482.941406 247.851562 482.785156 243.8125 481.515625 C 241.199219 480.726562 238.667969 479.855469 236.210938 478.585938 C 235.816406 478.429688 235.578125 478.269531 235.183594 478.585938 C 233.441406 480.40625 231.222656 481.675781 229.402344 483.496094 C 228.214844 484.683594 227.265625 486.1875 226.15625 487.457031 C 224.492188 489.433594 222.355469 490.941406 220.058594 492.046875 C 216.96875 493.554688 213.722656 494.820312 210.554688 496.324219 C 206.519531 498.304688 202.082031 499.492188 197.726562 500.363281 C 194.402344 501.074219 190.996094 500.839844 187.671875 499.808594 C 183.792969 498.699219 181.019531 496.085938 178.960938 492.839844 C 176.746094 489.433594 174.683594 485.949219 172.785156 482.386719 C 171.914062 480.726562 171.042969 479.773438 168.90625 480.089844 C 165.738281 480.566406 162.410156 480.328125 159.164062 480.328125 C 151.960938 480.171875 144.992188 478.824219 138.339844 476.132812 C 135.09375 474.863281 132.242188 472.964844 130.023438 470.273438 C 128.917969 468.925781 128.046875 467.5 127.492188 465.839844 C 126.539062 463.144531 127.09375 460.53125 128.519531 458.15625 C 131.847656 452.457031 137.074219 449.761719 143.488281 449.367188 C 144.277344 449.367188 144.675781 449.210938 144.832031 448.339844 C 145.863281 443.03125 147.683594 437.964844 149.664062 432.976562 C 150.691406 430.363281 151.5625 427.671875 151.722656 424.820312 C 151.878906 423 151.722656 421.097656 151.007812 419.355469 C 149.664062 415.554688 148.792969 411.675781 148.160156 407.714844 C 148.160156 407.558594 148.160156 407.398438 148.160156 407.320312 C 147.128906 404.628906 148 402.09375 148.949219 399.558594 C 149.820312 397.34375 150.773438 395.203125 151.089844 392.75 C 151.40625 390.453125 151.324219 388.316406 149.980469 386.335938 C 149.742188 386.019531 149.582031 385.703125 149.425781 385.308594 C 148.316406 383.328125 148.160156 381.269531 148.949219 379.128906 C 149.742188 377.152344 149.902344 375.09375 149.902344 372.953125 C 149.902344 371.765625 149.425781 370.65625 149.265625 369.46875 C 149.03125 367.964844 148.554688 366.539062 147.839844 365.195312 C 146.734375 362.976562 146.019531 360.601562 146.335938 358.066406 C 146.496094 356.800781 146.335938 355.453125 146.496094 354.1875 C 146.574219 353.15625 146.257812 352.683594 145.308594 352.445312 C 145.070312 352.445312 144.832031 352.285156 144.515625 352.128906 Z M 257.671875 257.421875 C 258.148438 256.628906 258.464844 256.078125 258.859375 255.523438 C 259.96875 254.015625 260.917969 252.433594 261.472656 250.613281 C 261.949219 248.949219 263.371094 248.316406 264.957031 248 C 265.433594 247.921875 265.984375 247.839844 266.460938 247.601562 C 267.410156 247.207031 268.519531 246.8125 269.152344 246.097656 C 269.628906 245.542969 269.628906 244.515625 269.628906 243.644531 C 269.628906 240.082031 269.628906 236.597656 269.550781 233.035156 C 269.390625 229.234375 269.152344 225.433594 269.152344 221.628906 C 269.152344 215.851562 269.390625 210.148438 269.550781 204.367188 C 269.785156 196.527344 269.707031 188.769531 270.183594 180.929688 C 270.339844 178.476562 270.578125 176.019531 270.976562 173.566406 C 271.449219 170.636719 272.082031 167.785156 272.558594 164.855469 C 273.351562 160.261719 273.351562 155.589844 273.585938 150.917969 C 273.824219 147.277344 273.746094 143.554688 273.90625 139.910156 C 273.984375 137.140625 274.222656 134.367188 274.457031 131.675781 C 274.617188 129.933594 275.171875 128.191406 275.328125 126.449219 C 275.726562 121.539062 276.28125 116.550781 275.964844 111.640625 C 275.804688 108.710938 275.726562 105.863281 275.566406 102.933594 C 275.328125 97.230469 274.855469 91.609375 274.222656 85.988281 C 273.824219 82.582031 273.429688 79.175781 273.269531 75.773438 C 273.113281 71.890625 272.796875 68.011719 272.320312 64.132812 C 271.925781 60.804688 271.449219 57.480469 271.6875 54.152344 C 271.925781 50.273438 271.6875 46.316406 271.292969 42.433594 C 271.132812 40.929688 270.894531 39.425781 270.5 37.921875 C 270.261719 36.8125 269.628906 35.863281 268.679688 35.308594 C 267.492188 34.59375 266.304688 34.914062 265.75 36.257812 C 263.925781 40.375 263.054688 44.574219 264.007812 49.085938 C 264.164062 49.800781 264.164062 50.511719 264.164062 51.222656 C 264.164062 54.867188 263.691406 58.429688 263.371094 61.992188 C 263.054688 65.636719 262.660156 69.277344 262.5 72.921875 C 262.5 74.980469 262.5 77.117188 262.421875 79.175781 C 262.105469 82.898438 262.421875 86.621094 262.582031 90.339844 C 262.582031 94.300781 262.976562 98.339844 263.054688 102.296875 C 263.136719 106.96875 263.054688 111.722656 262.660156 116.394531 C 262.183594 121.699219 261.394531 126.925781 260.125 132.152344 C 258.464844 139.121094 257.59375 146.167969 257.195312 153.292969 C 257.039062 156.066406 256.957031 158.835938 256.800781 161.527344 C 256.640625 164.539062 256.40625 167.46875 256.324219 170.476562 C 256.246094 173.960938 256.007812 177.523438 255.851562 181.007812 C 255.691406 185.285156 255.453125 189.5625 255.453125 193.835938 C 255.453125 196.371094 255.535156 198.984375 255.613281 201.519531 C 255.769531 206.742188 255.453125 211.96875 255.136719 217.195312 C 255.058594 218.9375 254.820312 220.679688 254.664062 222.421875 C 254.347656 225.511719 253.871094 228.679688 253.792969 231.765625 C 253.554688 236.753906 253.554688 241.742188 253.476562 246.734375 C 253.476562 247.839844 253.710938 248.792969 254.265625 249.742188 C 255.769531 251.957031 256.957031 254.335938 257.75 257.183594 Z M 252.761719 315.542969 C 252.761719 317.285156 252.367188 318.871094 252.605469 320.375 C 252.761719 321.800781 252.921875 323.304688 253.15625 324.730469 C 253.476562 327.265625 253.710938 329.796875 254.027344 332.332031 C 254.1875 333.203125 254.1875 334.152344 254.664062 334.945312 C 256.722656 338.269531 257.75 341.992188 258.304688 345.792969 C 258.621094 348.011719 258.699219 350.226562 258.9375 352.445312 C 259.175781 355.058594 259.253906 357.671875 259.019531 360.285156 C 258.699219 364.558594 257.75 368.757812 256.484375 372.875 C 256.246094 373.507812 256.246094 374.140625 256.324219 374.855469 C 256.800781 378.257812 256.640625 381.585938 254.820312 384.671875 C 253.394531 387.207031 252.523438 389.976562 251.496094 392.671875 C 250.546875 395.203125 250.78125 397.582031 251.8125 399.957031 C 252.839844 402.253906 253.871094 404.546875 254.980469 406.765625 C 256.800781 410.328125 257.277344 414.128906 256.324219 418.089844 C 255.929688 419.753906 255.296875 421.257812 254.582031 422.761719 C 253.949219 424.027344 253.949219 425.296875 254.425781 426.640625 C 254.582031 427.039062 254.742188 427.433594 254.898438 427.828125 C 255.613281 429.492188 255.691406 431.234375 255.058594 432.976562 C 254.820312 433.769531 254.582031 434.480469 254.1875 435.273438 C 252.683594 438.519531 251.179688 441.765625 249.675781 445.011719 C 249.121094 446.121094 248.328125 446.914062 247.378906 447.625 C 243.339844 450.476562 238.824219 452.613281 234.550781 455.070312 C 232.492188 456.257812 230.273438 457.207031 228.375 458.632812 C 226.867188 459.660156 226.632812 461.007812 227.660156 462.511719 C 228.53125 463.859375 229.796875 464.808594 231.066406 465.757812 C 233.597656 467.816406 236.292969 469.558594 239.539062 470.429688 C 242.546875 471.222656 245.636719 472.09375 248.644531 472.804688 C 252.761719 473.757812 256.878906 474.3125 261.078125 474.3125 C 263.847656 474.3125 266.699219 474.3125 269.46875 474.074219 C 275.882812 473.597656 282.0625 472.171875 287.921875 469.480469 C 290.058594 468.53125 292.039062 467.261719 294.019531 465.917969 C 293.464844 465.203125 292.828125 464.648438 292.433594 464.015625 C 291.957031 463.382812 291.640625 463.460938 291.007812 463.859375 C 288.949219 465.125 286.734375 466.15625 284.355469 466.789062 C 278.65625 468.449219 272.875 469.402344 266.9375 469.71875 C 265.113281 469.796875 263.214844 469.957031 261.394531 469.480469 C 260.917969 469.320312 260.285156 469.402344 259.96875 468.769531 C 268.125 469.640625 287.207031 465.125 290.929688 461.800781 C 289.980469 460.296875 288.871094 458.789062 287.683594 457.523438 C 286.414062 456.175781 285.070312 454.988281 283.882812 453.644531 C 283.011719 452.613281 282.0625 451.742188 280.792969 451.109375 C 278.972656 450.238281 277.070312 449.367188 275.171875 448.65625 C 273.269531 447.941406 271.6875 446.675781 270.339844 445.171875 C 268.441406 443.113281 267.570312 440.578125 266.777344 437.964844 C 265.984375 435.273438 265.273438 432.582031 264.5625 429.886719 C 264.324219 429.175781 264.402344 428.460938 264.878906 427.828125 C 265.589844 426.878906 265.589844 425.929688 265.273438 424.898438 C 264.324219 421.730469 264.164062 418.484375 264.640625 415.160156 C 265.195312 411.832031 265.828125 408.585938 267.886719 405.816406 C 268.046875 405.578125 268.203125 405.339844 268.28125 405.101562 C 270.105469 399.796875 270.023438 394.570312 267.648438 389.425781 C 266.9375 387.839844 266.144531 386.257812 265.667969 384.515625 C 264.402344 380.316406 263.691406 376.199219 265.589844 372.003906 C 266.066406 370.894531 265.75 369.867188 265.589844 368.835938 C 264.5625 364.242188 264.5625 359.808594 266.621094 355.453125 C 266.9375 354.898438 266.855469 354.425781 266.621094 353.871094 C 265.984375 352.601562 265.589844 351.335938 265.75 349.910156 C 265.90625 348.644531 266.066406 347.375 266.222656 346.109375 C 266.539062 343.734375 267.175781 341.515625 268.914062 339.617188 C 269.867188 338.585938 270.5 337.320312 270.5 335.894531 C 270.339844 331.855469 270.976562 327.898438 271.132812 323.9375 C 271.210938 322.039062 271.132812 320.136719 271.132812 318.316406 C 269.628906 318.316406 268.28125 318.316406 266.9375 318.316406 C 264.402344 318.316406 261.867188 318.316406 259.414062 318 C 257.117188 317.683594 254.980469 317.050781 252.839844 315.703125 Z M 159.957031 299.46875 C 160.75 297.886719 161.777344 296.699219 163.046875 295.667969 C 163.601562 295.195312 164.152344 294.640625 164.707031 294.164062 C 165.023438 293.925781 165.105469 293.6875 165.023438 293.214844 C 164.550781 291.3125 164.472656 289.492188 165.105469 287.59375 C 165.421875 286.722656 165.421875 285.851562 165.578125 284.898438 C 166.054688 281.890625 166.6875 278.882812 166.765625 275.871094 C 166.925781 272.941406 166.847656 270.011719 166.609375 267.003906 C 166.292969 263.042969 165.894531 259.085938 165.261719 255.125 C 163.996094 247.050781 163.519531 238.894531 163.441406 230.65625 C 163.363281 224.480469 163.28125 218.304688 162.886719 212.128906 C 162.648438 208.644531 162.175781 205.238281 161.777344 201.753906 C 161.539062 199.695312 161.144531 197.636719 161.621094 195.5 C 161.777344 194.628906 161.699219 193.679688 161.621094 192.808594 C 161.304688 190.984375 160.90625 189.164062 160.667969 187.34375 C 160.273438 184.730469 160.117188 182.117188 159.640625 179.582031 C 158.929688 175.226562 158.53125 170.792969 158.691406 166.359375 C 158.691406 164.378906 158.691406 162.480469 158.453125 160.5 C 158.136719 157.648438 157.738281 154.796875 157.898438 151.949219 C 158.058594 149.335938 157.898438 146.800781 157.898438 144.265625 C 157.660156 139.992188 157.660156 135.714844 156.949219 131.4375 C 156.472656 128.507812 155.839844 125.660156 155.285156 122.726562 C 154.574219 119.246094 154.175781 115.761719 153.542969 112.277344 C 153.386719 111.5625 153.226562 110.773438 152.988281 110.058594 C 152.671875 109.265625 151.800781 108.710938 151.007812 108.710938 C 150.136719 108.710938 149.820312 109.425781 149.664062 110.136719 C 149.503906 110.691406 149.347656 111.246094 149.265625 111.800781 C 148.949219 113.9375 148.554688 115.996094 148.078125 118.136719 C 147.921875 118.847656 147.84375 119.640625 147.761719 120.433594 C 147.605469 122.726562 147.523438 125.023438 147.367188 127.320312 C 147.050781 131.675781 146.574219 135.953125 146.417969 140.308594 C 146.179688 147.671875 145.863281 154.957031 145.625 162.320312 C 145.546875 164.695312 145.386719 167.070312 145.941406 169.449219 C 146.101562 170.398438 146.179688 171.347656 146.179688 172.296875 C 146.179688 176.8125 146.257812 181.246094 146.496094 185.679688 C 146.652344 188.925781 147.050781 192.09375 147.289062 195.339844 C 147.523438 198.269531 147.683594 201.199219 147.921875 204.128906 C 148.316406 208.722656 148.554688 213.316406 148.394531 217.988281 C 148.238281 222.582031 148.394531 227.09375 148.238281 231.6875 C 148 238.65625 148.238281 245.703125 148.714844 252.671875 C 148.714844 253.78125 148.714844 254.886719 148.871094 255.917969 C 149.03125 258.214844 149.1875 260.429688 149.347656 262.726562 C 149.503906 265.578125 149.503906 268.429688 149.742188 271.28125 C 150.136719 276.269531 150.691406 281.179688 150.296875 286.246094 C 150.058594 289.492188 149.820312 292.660156 149.503906 295.90625 C 149.425781 296.699219 149.503906 296.777344 150.375 296.699219 C 151.800781 296.621094 152.988281 297.015625 154.175781 297.726562 C 154.890625 298.125 155.523438 298.597656 156.234375 298.996094 C 156.550781 299.230469 156.789062 299.3125 157.105469 299.152344 C 158.214844 298.519531 159.164062 298.679688 160.195312 299.46875 Z M 270.976562 258.609375 C 270.65625 259.796875 270.339844 260.828125 270.183594 261.855469 C 269.945312 263.28125 269.785156 264.785156 269.074219 266.132812 C 268.914062 266.371094 268.835938 266.609375 268.914062 266.925781 C 269.707031 271.121094 270.339844 275.316406 272.636719 279.121094 C 274.457031 282.050781 275.25 285.375 275.804688 288.699219 C 276.199219 291.074219 275.648438 293.453125 275.171875 295.75 C 274.777344 297.648438 274.378906 299.46875 274.378906 301.371094 C 274.378906 305.804688 275.648438 309.921875 278.179688 313.566406 C 280.160156 316.496094 282.21875 319.34375 283.960938 322.433594 C 286.96875 327.5 288.632812 333.042969 289.265625 338.902344 C 289.425781 340.488281 289.265625 342.152344 289.027344 343.734375 C 288.710938 347.058594 288.316406 350.464844 287.367188 353.710938 C 286.574219 356.484375 286.257812 359.332031 286.179688 362.183594 C 286.179688 364.402344 286.257812 366.539062 286.097656 368.757812 C 286.097656 369.390625 286.097656 370.023438 286.257812 370.578125 C 287.128906 375.328125 288.632812 380 289.980469 384.671875 C 290.613281 386.96875 291.484375 389.265625 292.117188 391.640625 C 293.226562 395.519531 293.699219 399.480469 293.9375 403.441406 C 294.175781 406.925781 293.9375 410.25 292.828125 413.574219 C 292.039062 416.03125 290.929688 418.484375 289.820312 420.859375 C 288.949219 422.839844 287.761719 424.582031 286.335938 426.167969 C 283.167969 429.730469 281.902344 433.769531 284.039062 438.441406 C 284.910156 440.417969 286.414062 441.371094 288.710938 441.6875 C 287.839844 440.5 287.921875 439.230469 288.238281 438.042969 C 289.898438 432.105469 293.226562 427.511719 298.769531 424.582031 C 300.828125 423.472656 302.886719 422.363281 304.945312 421.257812 C 306.449219 420.464844 307.558594 419.355469 308.191406 417.773438 C 309.300781 415.238281 309.933594 412.625 310.011719 409.933594 C 310.011719 408.03125 310.011719 406.132812 309.855469 404.230469 C 309.539062 400.746094 309.378906 397.34375 309.140625 393.859375 C 308.90625 390.136719 308.90625 386.335938 308.984375 382.613281 C 308.984375 381.109375 308.984375 379.683594 308.90625 378.179688 C 308.429688 372.636719 306.84375 367.332031 304.074219 362.5 C 301.855469 358.542969 300.351562 354.265625 298.925781 349.988281 C 297.582031 345.792969 297.976562 341.597656 298.925781 337.480469 C 299.5625 334.390625 300.195312 331.222656 300.433594 328.054688 C 300.589844 324.96875 300.195312 321.878906 299.480469 318.871094 C 298.214844 313.566406 296.078125 308.574219 293.382812 303.824219 C 291.957031 301.210938 290.375 298.679688 289.347656 295.828125 C 287.761719 291.3125 287.445312 286.640625 287.128906 281.96875 C 286.96875 279.121094 286.734375 276.269531 286.179688 273.496094 C 285.542969 270.566406 284.671875 267.714844 282.773438 265.261719 C 281.824219 264.074219 280.871094 263.042969 279.289062 262.808594 C 278.972656 262.808594 278.65625 262.570312 278.339844 262.492188 C 275.804688 261.539062 273.351562 260.511719 270.976562 258.847656 Z M 172.625 351.335938 C 172.546875 351.335938 172.390625 351.335938 172.308594 351.257812 C 172.152344 351.574219 171.992188 351.8125 171.914062 352.128906 C 171.28125 354.027344 170.648438 355.929688 170.09375 357.828125 C 169.0625 361.628906 168.035156 365.429688 166.765625 369.230469 C 166.132812 370.972656 165.660156 372.796875 165.5 374.617188 C 165.183594 377.070312 164.945312 379.527344 164.628906 381.980469 C 163.601562 389.742188 162.09375 397.34375 161.144531 405.101562 C 160.511719 410.566406 159.957031 416.03125 159.5625 421.574219 C 159.402344 423.949219 159.164062 426.324219 159.007812 428.699219 C 158.847656 430.601562 158.691406 432.5 158.769531 434.402344 C 158.929688 438.042969 159.640625 441.6875 160.828125 445.171875 C 162.332031 449.605469 164.234375 453.960938 165.738281 458.472656 C 166.925781 462.035156 167.71875 465.757812 169.300781 469.164062 C 170.648438 472.09375 171.675781 475.183594 173.179688 478.03125 C 176.347656 483.890625 178.960938 490.070312 183.160156 495.375 C 183.792969 496.246094 184.425781 497.273438 185.453125 497.589844 C 188.78125 498.699219 192.105469 499.414062 195.667969 498.859375 C 198.441406 498.382812 201.054688 497.273438 203.667969 496.484375 C 203.507812 496.007812 203.191406 496.007812 202.875 495.847656 C 201.292969 495.136719 199.945312 494.105469 198.996094 492.601562 C 197.964844 491.097656 197.09375 489.515625 196.382812 487.851562 C 194.878906 484.207031 193.53125 480.488281 192.34375 476.765625 C 189.652344 468.371094 187.117188 459.976562 185.21875 451.347656 C 183.710938 444.457031 182.367188 437.488281 180.941406 430.519531 C 178.960938 421.019531 177.378906 411.359375 176.347656 401.699219 C 175.792969 396.945312 175.398438 392.273438 175.160156 387.523438 C 175.003906 384.277344 174.765625 381.109375 174.605469 377.863281 C 174.449219 375.011719 174.449219 372.160156 174.210938 369.3125 C 173.734375 364.324219 173.261719 359.253906 172.863281 354.265625 C 172.863281 353.394531 172.863281 352.445312 172.863281 351.574219 Z M 135.964844 370.261719 C 135.648438 370.261719 135.566406 370.417969 135.410156 370.578125 C 132.953125 374.21875 130.578125 377.863281 128.519531 381.742188 C 125.828125 386.890625 123.136719 392.039062 120.363281 397.183594 C 116.40625 404.46875 112.445312 411.753906 108.882812 419.199219 C 106.507812 424.105469 104.371094 429.097656 102.785156 434.242188 C 100.332031 442.242188 98.984375 450.398438 97.636719 458.632812 C 96.449219 465.917969 94.152344 472.804688 90.90625 479.457031 C 90.75 479.773438 90.511719 480.089844 90.589844 480.488281 C 90.90625 482.941406 90.589844 485.316406 90.273438 487.773438 C 90.035156 490.703125 90.671875 493.234375 92.648438 495.453125 C 95.105469 498.304688 96.765625 498.460938 99.695312 496.007812 C 102.308594 493.871094 104.527344 491.257812 106.507812 488.484375 C 111.101562 482.070312 114.425781 475.101562 115.773438 467.183594 C 116.5625 462.273438 117.433594 457.363281 118.542969 452.457031 C 120.046875 445.960938 121.710938 439.546875 123.929688 433.214844 C 125.671875 428.304688 127.730469 423.554688 129.628906 418.722656 C 131.6875 413.574219 133.113281 408.269531 133.667969 402.726562 C 133.984375 399.558594 133.984375 396.472656 134.144531 393.304688 C 134.300781 389.34375 134.460938 385.386719 134.777344 381.503906 C 135.015625 378.734375 135.25 375.960938 135.566406 373.113281 C 135.726562 372.082031 135.726562 371.054688 135.886719 370.101562 Z M 219.582031 442.003906 C 222.195312 440.183594 224.253906 438.121094 226.234375 435.90625 C 229.5625 432.105469 232.175781 427.90625 233.917969 423.15625 C 235.5 418.644531 237.003906 414.050781 238.824219 409.617188 C 239.855469 406.925781 240.804688 404.230469 241.359375 401.460938 C 241.597656 400.351562 241.753906 399.324219 241.835938 398.214844 C 241.992188 396.15625 242.707031 394.253906 243.972656 392.589844 C 246.425781 389.34375 248.484375 385.859375 250.070312 382.140625 C 251.257812 379.445312 252.207031 376.675781 253.394531 373.902344 C 254.898438 370.339844 255.691406 366.617188 256.246094 362.898438 C 256.878906 358.382812 256.878906 353.871094 256.640625 349.355469 C 256.640625 348.167969 256.40625 346.980469 256.089844 345.792969 C 255.296875 343.023438 254.664062 340.25 253.554688 337.636719 C 251.734375 333.441406 250.941406 329.085938 250.703125 324.570312 C 250.546875 321.640625 250.148438 318.792969 249.199219 316.019531 C 247.773438 311.980469 245.953125 308.101562 244.289062 304.140625 C 244.289062 304.0625 244.132812 303.902344 243.894531 304.140625 C 243.894531 304.695312 243.8125 305.25 243.734375 305.882812 C 243.496094 307.941406 243.496094 309.921875 243.101562 311.980469 C 241.914062 317.523438 240.25 322.910156 238.269531 328.214844 C 234.945312 336.84375 233.441406 345.792969 233.519531 354.980469 C 233.519531 357.988281 233.597656 360.996094 233.757812 364.003906 C 233.996094 368.675781 233.917969 373.429688 233.917969 378.179688 C 233.917969 383.960938 233.597656 389.820312 233.363281 395.601562 C 233.046875 401.539062 232.09375 407.398438 230.589844 413.179688 C 228.054688 422.601562 224.414062 431.550781 220.296875 440.417969 C 220.058594 440.894531 219.742188 441.371094 219.582031 442.160156 Z M 323.949219 228.835938 C 323.394531 229.3125 322.839844 229.785156 322.367188 230.183594 C 320.863281 231.371094 319.121094 232.003906 317.378906 232.636719 C 313.972656 233.824219 310.566406 235.011719 307.164062 236.359375 C 306.765625 236.519531 306.371094 236.753906 305.976562 236.835938 C 305.261719 237.070312 305.105469 236.4375 304.867188 235.964844 C 304.628906 235.488281 305.105469 235.410156 305.339844 235.328125 C 307.164062 234.617188 308.984375 233.824219 310.726562 233.113281 C 313.578125 231.925781 316.425781 231.054688 319.199219 229.707031 C 320.308594 229.152344 321.414062 228.519531 322.207031 227.570312 C 322.445312 227.332031 322.761719 227.09375 322.523438 226.699219 C 322.050781 225.75 321.734375 224.640625 320.542969 224.324219 C 319.832031 224.085938 319.121094 223.847656 318.328125 223.847656 C 314.210938 223.691406 310.25 224.242188 306.449219 225.828125 C 296.394531 230.023438 287.050781 235.328125 278.972656 242.695312 C 277.546875 243.960938 276.121094 245.226562 274.300781 246.019531 C 272.082031 246.96875 270.023438 248.078125 267.726562 248.871094 C 267.410156 248.949219 267.09375 248.949219 266.9375 249.34375 C 267.570312 250.058594 268.203125 250.691406 268.757812 251.40625 C 269.074219 251.800781 269.390625 251.800781 269.867188 251.484375 C 271.292969 250.375 272.796875 249.34375 274.222656 248.238281 C 277.230469 245.863281 280.636719 244.355469 284.121094 243.011719 C 290.21875 240.714844 296.628906 239.210938 302.570312 236.519531 C 303.125 236.28125 303.363281 236.359375 303.597656 236.835938 C 303.679688 237.070312 303.914062 237.308594 303.914062 237.707031 C 300.828125 239.128906 297.820312 240.714844 294.492188 241.742188 C 291.484375 242.695312 288.394531 243.644531 285.386719 244.671875 C 283.40625 245.308594 281.507812 246.179688 279.605469 247.207031 C 277.625 248.316406 275.964844 249.820312 274.140625 251.085938 C 273.113281 251.722656 272.164062 252.433594 271.132812 253.066406 C 270.65625 253.382812 270.339844 253.621094 270.65625 254.175781 C 270.738281 254.414062 270.816406 254.652344 270.894531 254.886719 C 270.894531 255.601562 271.371094 255.839844 272.003906 255.839844 C 272.796875 255.839844 273.667969 255.839844 274.457031 255.839844 C 275.410156 255.757812 276.4375 255.679688 277.308594 254.96875 C 278.496094 253.9375 279.921875 253.226562 281.347656 252.59375 C 282.695312 252.039062 284.121094 251.722656 285.863281 251.957031 C 284.59375 253.148438 283.328125 253.859375 281.980469 254.335938 C 280.871094 254.730469 279.765625 255.125 278.734375 255.757812 C 277.308594 256.628906 275.804688 257.027344 274.222656 257.34375 C 273.824219 257.34375 273.351562 257.5 272.875 257.660156 C 273.191406 257.976562 273.429688 258.054688 273.667969 258.136719 C 276.914062 259.480469 280.320312 260.429688 283.644531 261.539062 C 288.792969 263.28125 294.019531 263.757812 299.402344 262.726562 C 303.519531 261.9375 307.558594 260.828125 310.964844 258.214844 C 312.230469 257.265625 313.578125 256.3125 314.84375 255.285156 C 316.585938 253.9375 318.566406 252.988281 320.78125 252.671875 C 322.761719 252.355469 324.742188 251.957031 326.640625 251.5625 C 328.144531 251.167969 328.859375 250.296875 329.015625 248.710938 C 329.097656 247.683594 329.015625 246.734375 328.859375 245.703125 C 328.226562 242.613281 327.59375 239.527344 326.324219 236.675781 C 325.769531 235.328125 325.375 233.90625 324.980469 232.480469 C 324.664062 231.371094 324.265625 230.261719 323.871094 228.996094 Z M 164.3125 302.714844 C 164.3125 302.796875 164.3125 302.953125 164.3125 303.03125 C 165.183594 305.488281 165.738281 308.101562 167.71875 310 C 167.875 310.160156 167.953125 310.316406 168.035156 310.476562 C 168.429688 311.742188 169.300781 311.980469 170.488281 311.824219 C 174.6875 311.347656 178.960938 311.109375 183.160156 311.1875 C 184.265625 311.1875 185.453125 311.03125 186.5625 310.871094 C 189.652344 310.398438 192.582031 309.445312 195.511719 308.574219 C 200.023438 307.308594 204.300781 305.410156 208.8125 304.222656 C 214.515625 302.714844 220.058594 300.65625 225.523438 298.519531 C 225.996094 298.359375 226.394531 298.125 226.867188 297.964844 C 227.503906 297.726562 227.738281 297.332031 227.503906 296.617188 C 227.265625 295.667969 227.105469 294.640625 227.105469 293.6875 C 227.027344 292.34375 226.949219 290.917969 226.632812 289.570312 C 225.601562 285.136719 224.492188 280.703125 222.671875 276.507812 C 222.511719 276.109375 222.511719 275.636719 222.039062 275.398438 C 220.691406 277.058594 218.792969 277.773438 216.8125 278.40625 C 213.40625 279.59375 209.84375 280.386719 206.359375 281.257812 C 198.679688 283.238281 191.394531 286.007812 185.058594 290.917969 C 181.417969 293.769531 177.296875 295.828125 172.945312 297.488281 C 170.332031 298.519531 167.875 299.628906 165.261719 300.65625 C 164.945312 300.738281 164.707031 300.894531 164.46875 301.289062 C 168.035156 302.003906 171.519531 302.242188 174.921875 301.6875 C 177.378906 301.289062 179.753906 300.578125 182.207031 300.261719 C 182.761719 300.261719 183.238281 300.101562 184.109375 300.421875 C 182.128906 301.6875 180.464844 302.875 178.328125 303.351562 C 174.132812 304.300781 169.933594 303.984375 165.738281 302.953125 C 165.261719 302.875 164.867188 302.636719 164.390625 302.796875 Z M 76.101562 292.976562 C 78.554688 292.34375 80.691406 292.582031 82.832031 293.136719 C 86 294.007812 89.246094 294.480469 92.492188 294.957031 C 94.945312 295.351562 97.480469 295.429688 100.015625 295.984375 C 104.84375 297.015625 109.4375 298.757812 114.03125 300.261719 C 120.046875 302.320312 125.988281 304.222656 132.480469 304.539062 C 137.625 304.773438 142.457031 303.667969 147.367188 302.480469 C 147.207031 301.449219 146.8125 300.972656 145.78125 300.816406 C 144.832031 300.65625 143.960938 300.183594 143.089844 299.867188 C 138.496094 297.808594 134.300781 295.113281 130.976562 291.234375 C 129.152344 289.097656 126.777344 287.671875 124.246094 286.640625 C 123.214844 286.167969 122.105469 285.769531 120.996094 285.453125 C 116.484375 284.265625 112.523438 281.890625 108.722656 279.277344 C 105.875 277.296875 103.261719 275.160156 100.648438 272.941406 C 98.429688 271.121094 96.609375 271.199219 94.3125 272.941406 C 94.152344 273.101562 93.917969 273.257812 93.757812 273.417969 C 91.699219 275.160156 89.878906 277.058594 88.058594 279.039062 C 86.472656 280.703125 84.890625 282.285156 83.703125 284.265625 C 82.199219 286.800781 80.21875 288.9375 77.921875 290.757812 C 77.207031 291.3125 76.734375 292.105469 76.179688 293.136719 Z M 151.089844 369.230469 C 151.007812 369.390625 151.089844 369.546875 151.167969 369.707031 C 152.59375 373.03125 152.832031 376.4375 151.40625 379.761719 C 150.613281 381.585938 150.691406 383.40625 151.800781 385.070312 C 152.355469 385.941406 152.832031 386.8125 152.988281 387.839844 C 153.386719 390.136719 153.226562 392.433594 152.515625 394.730469 C 151.878906 396.628906 151.089844 398.453125 150.21875 400.273438 C 149.109375 402.648438 148.792969 405.183594 149.347656 407.636719 C 149.980469 410.726562 151.007812 413.65625 152.277344 416.585938 C 153.066406 418.5625 153.464844 420.542969 153.703125 422.683594 C 154.097656 426.007812 153.464844 429.175781 152.277344 432.34375 C 150.851562 436.144531 149.582031 440.023438 148.316406 443.984375 C 146.972656 448.339844 146.019531 452.691406 145.625 457.207031 C 145.464844 459.027344 145.941406 460.769531 146.019531 462.589844 C 146.019531 462.988281 146.335938 463.144531 146.574219 463.382812 C 148 464.96875 149.902344 465.679688 151.960938 465.996094 C 154.097656 466.390625 156.316406 466.3125 158.53125 466.390625 C 160.511719 466.390625 162.410156 466.074219 164.3125 465.519531 C 165.023438 465.363281 165.183594 465.046875 164.945312 464.414062 C 164.945312 464.253906 164.789062 464.015625 164.789062 463.859375 C 163.125 457.601562 160.988281 451.503906 158.847656 445.40625 C 157.738281 442.160156 156.789062 438.835938 156.632812 435.429688 C 156.394531 430.996094 156.949219 426.5625 157.34375 422.207031 C 157.820312 417.296875 158.292969 412.386719 159.007812 407.476562 C 159.480469 404.074219 159.796875 400.667969 160.351562 397.34375 C 161.222656 391.71875 162.09375 386.097656 162.808594 380.398438 C 163.203125 376.992188 163.441406 373.585938 164.390625 370.261719 C 164.390625 370.101562 164.390625 370.023438 164.390625 369.785156 C 159.878906 371.609375 155.523438 370.578125 151.246094 369.230469 Z M 131.609375 372.082031 C 131.765625 371.925781 131.847656 371.84375 132.003906 371.6875 C 135.804688 366.460938 139.050781 360.917969 141.269531 354.820312 C 142.617188 351.175781 144.039062 347.535156 145.625 343.972656 C 147.605469 339.539062 149.820312 335.339844 151.960938 330.984375 C 153.226562 328.53125 154.175781 326.074219 154.574219 323.304688 C 154.730469 322.117188 154.808594 321.085938 153.859375 320.136719 C 153.464844 319.742188 153.304688 319.265625 152.988281 318.871094 C 151.800781 316.96875 151.484375 314.988281 152.117188 312.851562 C 152.433594 311.902344 152.671875 310.953125 152.988281 310 C 153.148438 309.527344 153.066406 309.128906 152.75 308.734375 C 151.960938 307.863281 151.246094 307.070312 150.535156 306.121094 C 150.21875 305.726562 149.980469 305.726562 149.582031 305.964844 C 148.871094 306.4375 148.078125 306.832031 147.289062 307.152344 C 145.070312 308.257812 142.851562 309.289062 140.714844 310.636719 C 138.816406 311.824219 137.152344 313.328125 135.171875 314.355469 C 134.222656 314.832031 133.824219 315.625 133.507812 316.574219 C 133.035156 318.394531 133.351562 320.296875 133.667969 322.117188 C 134.144531 325.285156 134.777344 328.453125 135.015625 331.699219 C 135.171875 333.28125 135.171875 334.867188 135.332031 336.371094 C 135.566406 338.984375 135.886719 341.597656 135.726562 344.210938 C 135.648438 345.953125 135.566406 347.613281 135.566406 349.355469 C 135.566406 351.335938 135.566406 353.394531 135.566406 355.375 C 135.566406 357.671875 135.25 360.046875 134.777344 362.261719 C 134.144531 365.273438 132.796875 368.125 131.765625 371.054688 C 131.6875 371.371094 131.449219 371.609375 131.609375 372.082031 Z M 83.066406 455.542969 C 82.515625 456.175781 82.199219 456.574219 81.878906 456.96875 C 76.65625 463.621094 72.21875 470.828125 67.546875 477.875 C 66.359375 479.695312 65.570312 481.597656 65.25 483.8125 C 65.09375 485 65.015625 486.1875 64.539062 487.296875 C 63.828125 488.960938 63.90625 489.832031 65.171875 491.019531 C 67.152344 492.761719 68.894531 494.742188 70.476562 496.800781 C 71.269531 497.828125 72.378906 498.699219 73.644531 499.253906 C 78.078125 501.074219 82.59375 502.421875 87.503906 501.867188 C 89.800781 501.628906 92.015625 500.996094 93.917969 499.808594 C 93.835938 499.414062 93.441406 499.332031 93.203125 499.09375 C 89.71875 496.324219 87.820312 492.761719 87.898438 488.246094 C 87.898438 486.742188 88.136719 485.238281 88.136719 483.734375 C 88.136719 482.148438 88.375 480.488281 87.582031 478.984375 C 86 475.578125 84.96875 472.015625 84.257812 468.371094 C 83.621094 464.96875 82.910156 461.5625 82.910156 458.078125 C 82.910156 457.363281 82.910156 456.652344 82.910156 455.703125 Z M 264.324219 268.746094 C 264.640625 270.410156 263.691406 271.597656 262.582031 272.546875 C 261.234375 273.734375 259.652344 274.683594 258.066406 275.554688 C 256.484375 276.425781 255.058594 277.535156 253.792969 278.882812 C 253.238281 279.4375 253.078125 279.988281 253.316406 280.703125 C 253.710938 282.128906 253.632812 283.632812 253.554688 285.136719 C 253.316406 288.144531 253.238281 291.15625 253.238281 294.085938 C 253.238281 299.230469 253.476562 304.378906 253.078125 309.527344 C 253 310.953125 253.078125 310.953125 254.425781 311.425781 C 254.898438 311.585938 255.296875 311.742188 255.769531 311.824219 C 259.96875 312.929688 264.242188 312.613281 268.519531 311.980469 C 271.132812 311.585938 271.054688 311.507812 271.054688 308.894531 C 271.054688 304.539062 270.578125 300.183594 270.5 295.75 C 270.5 294.640625 270.5 293.453125 270.421875 292.34375 C 270.023438 288.542969 270.261719 284.742188 270.023438 280.941406 C 269.945312 279.355469 270.023438 277.695312 269.234375 276.1875 C 268.996094 275.714844 268.914062 275.082031 268.757812 274.527344 C 268.203125 272.308594 267.886719 270.09375 267.570312 267.796875 C 266.460938 268.113281 265.433594 268.429688 264.402344 268.667969 Z M 218.160156 247.050781 C 215.070312 247.050781 212.21875 247.761719 209.605469 249.34375 C 208.417969 250.058594 207.707031 251.007812 207.390625 252.277344 C 207.074219 253.699219 206.835938 255.207031 207.074219 256.628906 C 207.308594 258.6875 208.023438 260.511719 209.605469 261.855469 C 211.902344 263.914062 214.59375 264.785156 217.605469 264.867188 C 221.167969 264.945312 224.730469 264.230469 228.214844 263.835938 C 232.253906 263.363281 236.292969 263.28125 240.25 264.230469 C 243.179688 264.945312 246.191406 265.65625 249.121094 266.371094 C 250.386719 266.6875 251.734375 267.003906 253 267.320312 C 253.316406 267.320312 253.792969 267.558594 253.949219 267.320312 C 254.1875 266.765625 254.265625 266.132812 254.1875 265.5 C 254.109375 264.945312 253.554688 265.023438 253.15625 264.867188 C 249.992188 264.074219 247.296875 262.410156 245.238281 259.878906 C 243.496094 257.738281 241.753906 255.601562 239.695312 253.699219 C 238.113281 252.195312 236.371094 250.851562 234.234375 250.136719 C 229.085938 248.238281 223.703125 247.285156 218.238281 246.96875 Z M 148.238281 303.984375 C 146.574219 304.378906 145.070312 304.617188 143.644531 305.09375 C 137.785156 306.992188 131.925781 306.753906 125.988281 305.804688 C 123.058594 305.328125 120.285156 304.300781 117.515625 303.351562 C 112.050781 301.527344 106.664062 299.628906 101.042969 298.203125 C 98.507812 297.570312 95.894531 297.410156 93.285156 297.09375 C 89.640625 296.617188 86 295.90625 82.355469 295.035156 C 80.773438 294.640625 79.109375 294.640625 77.523438 294.878906 C 75.625 295.113281 75.625 295.511719 75.546875 297.332031 C 75.546875 297.726562 75.703125 298.125 75.546875 298.441406 C 75.148438 299.3125 75.546875 299.867188 76.101562 300.5 C 76.8125 301.289062 77.683594 301.84375 78.792969 302.082031 C 79.980469 302.320312 81.167969 302.558594 82.277344 302.636719 C 89.324219 303.269531 96.214844 304.855469 102.785156 307.386719 C 109.359375 309.921875 116.089844 311.980469 122.898438 313.882812 C 124.324219 314.277344 125.75 314.671875 127.253906 314.515625 C 130.5 314.199219 133.507812 313.167969 136.042969 311.109375 C 136.992188 310.316406 138.023438 309.605469 139.050781 308.972656 C 141.507812 307.386719 144.121094 306.199219 146.8125 305.011719 C 147.289062 304.773438 147.84375 304.695312 148.238281 303.984375 Z M 196.382812 482.148438 C 196.777344 483.257812 196.699219 484.289062 197.09375 485.238281 C 198.125 487.691406 199.550781 489.832031 201.210938 491.890625 C 202.480469 493.394531 204.222656 493.949219 205.964844 494.265625 C 207.546875 494.582031 209.289062 494.582031 210.714844 493.316406 C 211.109375 493 211.664062 492.839844 212.140625 492.601562 C 214.199219 491.652344 216.335938 490.78125 218.316406 489.59375 C 220.929688 488.089844 223.542969 486.425781 225.523438 484.050781 C 226.789062 482.546875 228.214844 481.199219 229.878906 480.089844 C 231.066406 479.300781 232.09375 478.269531 233.203125 477.320312 C 233.679688 476.921875 234.074219 476.449219 234.390625 475.894531 C 234.867188 474.945312 234.789062 474.785156 233.835938 474.46875 C 231.855469 473.914062 229.796875 473.441406 227.660156 473.757812 C 224.96875 474.152344 222.277344 473.835938 219.582031 473.519531 C 216.96875 473.203125 214.59375 473.757812 212.773438 475.894531 C 212.378906 476.371094 211.902344 476.765625 211.425781 477.242188 C 209.921875 478.824219 208.101562 479.695312 205.882812 480.011719 C 204.777344 480.171875 203.667969 480.089844 202.636719 480.488281 C 200.738281 481.199219 198.757812 481.675781 196.539062 481.992188 Z M 262.660156 269.300781 C 261.867188 269.617188 261.15625 270.011719 260.441406 270.566406 C 258.9375 271.914062 257.195312 271.992188 255.851562 270.726562 C 254.980469 269.855469 254.1875 269.300781 252.921875 269.378906 C 252.683594 269.378906 252.445312 269.378906 252.207031 269.300781 C 250.308594 268.90625 248.40625 268.507812 246.507812 268.035156 C 245.714844 267.796875 245.082031 268.035156 244.449219 268.507812 C 241.835938 270.566406 239.933594 273.257812 238.351562 276.109375 C 236.054688 280.386719 235.65625 284.820312 237.558594 289.414062 C 238.191406 290.996094 239.140625 292.421875 240.09375 293.847656 C 242.308594 297.253906 244.527344 300.738281 246.269531 304.457031 C 247.378906 306.914062 248.566406 309.289062 249.753906 311.664062 C 249.910156 311.980469 249.992188 312.378906 250.386719 312.457031 C 250.226562 310.476562 249.992188 308.496094 249.59375 306.597656 C 248.882812 303.507812 248.011719 300.421875 247.457031 297.253906 C 246.742188 293.136719 246.824219 289.175781 248.167969 285.136719 C 249.910156 279.832031 252.921875 275.714844 257.988281 273.023438 C 259.097656 272.386719 260.207031 271.675781 261.234375 270.964844 C 261.867188 270.488281 262.5 270.011719 262.738281 269.140625 Z M 155.839844 322.433594 C 155.601562 322.671875 155.523438 322.988281 155.523438 323.382812 C 155.523438 325.679688 154.808594 327.816406 153.9375 329.875 C 152.832031 332.410156 151.800781 334.945312 150.453125 337.398438 C 149.1875 339.773438 149.03125 342.152344 149.1875 344.683594 C 149.265625 346.347656 150.058594 347.535156 151.5625 348.246094 C 152.59375 348.722656 153.703125 349.039062 154.808594 349.199219 C 157.820312 349.671875 160.75 349.59375 163.757812 349.59375 C 164.234375 349.59375 164.707031 349.515625 165.183594 349.4375 C 165.738281 349.4375 165.894531 349.117188 165.894531 348.566406 C 165.894531 347.21875 166.054688 345.792969 165.894531 344.445312 C 165.5 340.882812 165.023438 337.398438 164.390625 333.914062 C 163.757812 330.351562 163.046875 326.789062 162.410156 323.304688 C 162.175781 321.800781 161.9375 320.375 161.621094 318.871094 C 160.90625 319.027344 160.433594 319.34375 159.957031 319.742188 C 159.246094 320.453125 158.53125 321.167969 158.058594 322.039062 C 157.660156 322.671875 157.1875 322.910156 156.550781 322.671875 C 156.316406 322.59375 156.078125 322.433594 155.761719 322.511719 Z M 209.84375 247.839844 C 212.617188 246.097656 215.546875 245.542969 218.632812 245.703125 C 223.382812 245.863281 228.054688 246.652344 232.726562 247.761719 C 235.976562 248.554688 238.746094 250.214844 241.28125 252.433594 C 243.101562 254.097656 244.605469 255.917969 246.191406 257.816406 C 247.851562 259.878906 249.832031 261.539062 252.445312 262.410156 C 254.582031 263.203125 254.503906 263.125 255.929688 261.382812 C 256.722656 260.351562 256.800781 259.324219 256.484375 258.136719 C 256.324219 257.660156 256.089844 257.183594 255.851562 256.710938 C 254.582031 253.859375 252.523438 251.484375 250.703125 249.027344 C 249.039062 246.734375 246.507812 245.308594 244.289062 243.644531 C 243.101562 242.773438 241.753906 242.140625 240.332031 241.664062 C 237.242188 240.636719 233.996094 239.921875 230.828125 239.128906 C 228.136719 238.417969 225.441406 238.179688 222.75 238.496094 C 216.890625 239.128906 212.21875 241.664062 210.003906 247.761719 Z M 239.539062 238.496094 C 239.140625 238.023438 238.667969 237.863281 238.191406 237.707031 C 236.765625 237.070312 235.261719 236.675781 233.757812 236.121094 C 229.402344 234.617188 225.046875 233.035156 220.613281 231.84375 C 217.683594 231.054688 214.832031 230.023438 211.746094 229.945312 C 208.578125 229.945312 205.648438 230.578125 202.875 232.164062 C 201.449219 232.953125 200.578125 234.140625 200.339844 235.804688 C 200.023438 237.546875 200.023438 239.289062 200.339844 241.03125 C 200.738281 243.960938 201.210938 246.96875 201.132812 249.980469 C 201.132812 251.40625 201.210938 252.828125 201.449219 254.253906 C 201.765625 256.867188 202.558594 259.242188 204.460938 261.144531 C 205.648438 262.253906 206.753906 263.441406 208.417969 263.757812 C 208.417969 263.28125 208.101562 263.125 207.941406 262.886719 C 207.230469 262.171875 206.675781 261.300781 206.28125 260.429688 C 204.695312 256.550781 205.011719 252.671875 206.992188 249.027344 C 208.101562 247.050781 209.289062 245.148438 210.398438 243.25 C 211.03125 242.21875 211.746094 241.269531 212.695312 240.554688 C 217.128906 237.308594 222.117188 235.882812 227.582031 236.359375 C 231.222656 236.675781 234.785156 237.46875 238.351562 238.339844 C 238.746094 238.417969 239.0625 238.65625 239.539062 238.417969 Z M 193.609375 424.265625 C 195.351562 427.988281 197.015625 431.550781 198.996094 434.957031 C 200.816406 438.203125 203.113281 441.132812 205.882812 443.667969 C 206.992188 444.695312 208.339844 445.488281 209.449219 446.515625 C 210.714844 447.785156 212.140625 448.257812 213.960938 448.101562 C 215.386719 447.941406 216.257812 447.386719 216.8125 446.121094 C 217.367188 444.933594 217.761719 443.746094 217.921875 442.476562 C 218.160156 440.65625 218.710938 438.992188 219.503906 437.332031 C 220.058594 436.222656 220.613281 435.113281 220.929688 433.847656 C 218.316406 433.925781 216.097656 433.132812 214.121094 431.550781 C 212.933594 430.601562 211.664062 429.808594 210.398438 428.9375 C 208.972656 427.90625 207.46875 427.589844 205.648438 427.828125 C 203.746094 428.144531 201.925781 427.828125 200.339844 426.640625 C 200.023438 426.402344 199.628906 426.167969 199.234375 425.929688 C 197.570312 424.742188 195.667969 424.503906 193.609375 424.265625 Z M 294.96875 467.816406 C 294.175781 468.609375 293.382812 469.480469 292.433594 470.035156 C 288.394531 472.570312 283.960938 474.152344 279.367188 475.183594 C 275.328125 476.050781 271.210938 476.371094 267.015625 476.527344 C 262.265625 476.765625 257.59375 476.527344 252.921875 475.816406 C 248.25 475.101562 243.734375 473.675781 239.222656 472.332031 C 235.976562 471.378906 233.125 469.71875 230.511719 467.578125 C 228.925781 466.234375 227.421875 464.808594 226.234375 462.90625 C 225.679688 464.097656 225.679688 465.203125 225.917969 466.234375 C 226.394531 467.976562 227.421875 469.320312 228.453125 470.667969 C 228.925781 471.300781 229.5625 471.617188 230.433594 471.699219 C 232.175781 471.855469 233.757812 472.332031 235.421875 472.964844 C 236.371094 473.359375 236.6875 473.992188 236.609375 474.945312 C 236.609375 475.261719 236.449219 475.5 236.449219 475.816406 C 236.292969 476.921875 236.210938 477.003906 237.320312 477.398438 C 239.695312 478.269531 242.070312 479.140625 244.527344 479.695312 C 248.644531 480.722656 252.921875 480.804688 257.117188 481.121094 C 261.949219 481.4375 266.777344 481.121094 271.609375 480.644531 C 280.160156 479.695312 288 477.082031 294.730469 471.460938 C 295.441406 470.828125 295.757812 470.273438 295.523438 469.402344 C 295.363281 468.847656 295.363281 468.292969 294.890625 467.738281 Z M 144.359375 450.316406 C 144.039062 450.316406 143.804688 450.316406 143.644531 450.316406 C 140.714844 450.316406 138.101562 451.425781 135.566406 452.773438 C 133.984375 453.644531 132.636719 454.832031 131.449219 456.257812 C 130.976562 456.730469 130.816406 457.285156 130.976562 458 C 131.6875 461.640625 133.191406 464.730469 136.597656 466.628906 C 140.792969 469.003906 145.308594 470.351562 150.058594 471.222656 C 154.414062 472.015625 158.847656 472.25 163.28125 472.332031 C 164.707031 472.332031 166.210938 472.332031 167.71875 472.015625 C 167.242188 470.746094 166.847656 469.640625 166.371094 468.609375 C 165.976562 467.660156 165.976562 467.660156 164.945312 467.816406 C 162.964844 468.214844 160.988281 468.449219 159.007812 468.371094 C 157.660156 468.292969 156.234375 468.214844 154.890625 468.132812 C 151.40625 467.898438 148 467.261719 145.464844 464.332031 C 144.359375 462.988281 143.566406 461.640625 143.566406 459.898438 C 143.566406 458.472656 143.566406 457.046875 143.804688 455.621094 C 144.121094 453.960938 144.277344 452.21875 144.4375 450.398438 Z M 339.3125 427.988281 C 337.570312 426.640625 335.828125 426.246094 333.925781 426.246094 C 332.105469 426.246094 330.285156 426.167969 328.542969 425.769531 C 326.40625 425.375 324.1875 425.296875 322.050781 425.691406 C 318.644531 426.246094 315.320312 426.878906 312.46875 429.097656 C 311.121094 430.125 309.617188 430.757812 307.953125 431.234375 C 306.210938 431.628906 304.628906 432.261719 303.042969 433.054688 C 300.75 434.164062 298.453125 435.191406 296.550781 436.855469 C 294.890625 438.28125 293.148438 439.3125 290.851562 438.835938 C 290.613281 438.835938 290.296875 438.835938 290.296875 439.074219 C 290.214844 439.628906 289.898438 440.339844 290.535156 440.816406 C 291.640625 441.605469 292.75 442.398438 294.253906 442.398438 C 296.472656 442.398438 298.609375 442.003906 300.75 441.605469 C 302.171875 441.371094 303.519531 440.816406 304.707031 440.101562 C 306.132812 439.3125 307.636719 438.441406 309.0625 437.648438 C 313.179688 435.273438 317.21875 432.898438 321.335938 430.679688 C 324.425781 429.097656 327.671875 428.144531 331.234375 428.304688 C 333.054688 428.382812 334.957031 428.144531 336.777344 428.304688 C 337.492188 428.304688 338.28125 428.304688 339.3125 427.988281 Z M 162.175781 300.421875 C 162.808594 300.421875 163.363281 300.101562 163.917969 299.785156 C 165.816406 298.757812 167.796875 297.726562 169.777344 296.855469 C 175.554688 294.402344 180.941406 291.394531 185.929688 287.433594 C 188.066406 285.691406 190.523438 284.34375 193.054688 283.15625 C 197.964844 280.941406 203.035156 279.515625 208.261719 278.328125 C 211.585938 277.535156 214.992188 276.980469 218.238281 275.792969 C 219.265625 275.398438 220.136719 275 220.929688 274.289062 C 221.40625 273.8125 221.5625 273.417969 221.324219 272.785156 C 221.089844 272.152344 220.613281 271.992188 219.980469 271.992188 C 218.238281 271.992188 216.496094 272.230469 214.753906 272.386719 C 211.824219 272.785156 209.050781 273.578125 206.519531 275.082031 C 205.171875 275.871094 203.824219 276.585938 202.480469 277.296875 C 197.726562 279.671875 192.738281 281.335938 187.75 283 C 184.109375 284.1875 180.546875 285.453125 177.140625 287.195312 C 173.894531 288.859375 170.804688 290.757812 168.589844 293.769531 C 168.351562 294.164062 167.953125 294.480469 167.558594 294.71875 C 165.894531 295.828125 164.390625 297.171875 162.886719 298.441406 C 162.492188 298.757812 162.175781 299.230469 161.859375 299.628906 C 161.699219 299.785156 161.539062 300.023438 161.699219 300.261719 C 161.859375 300.5 162.09375 300.421875 162.332031 300.5 Z M 147.84375 353.632812 C 148.394531 356.957031 149.03125 360.203125 149.347656 363.453125 C 149.582031 366.222656 151.324219 367.726562 154.097656 368.125 C 155.285156 368.28125 156.550781 368.359375 157.738281 368.597656 C 159.878906 369.074219 161.859375 368.675781 163.835938 367.964844 C 165.421875 367.332031 165.578125 367.09375 165.421875 365.429688 C 165.105469 362.976562 165.105469 360.523438 165.261719 358.066406 C 165.261719 357.273438 165.421875 356.5625 165.5 355.769531 C 165.5 355.136719 165.421875 354.820312 164.628906 354.820312 C 163.046875 354.820312 161.382812 354.742188 159.796875 354.742188 C 158.769531 354.742188 157.738281 354.820312 156.632812 354.742188 C 153.859375 354.660156 151.167969 354.425781 148.476562 353.632812 C 148.316406 353.632812 148.160156 353.632812 147.84375 353.632812 Z M 162.570312 318.632812 C 162.964844 320.058594 163.441406 321.324219 163.757812 322.59375 C 164.945312 327.5 166.132812 332.488281 166.765625 337.558594 C 167.242188 340.960938 167.953125 344.289062 167.636719 347.773438 C 167.402344 350.859375 167.003906 354.027344 166.6875 357.117188 C 166.53125 358.9375 166.449219 360.679688 166.292969 362.660156 C 166.765625 362.183594 166.765625 361.789062 166.925781 361.3125 C 167.636719 358.382812 168.429688 355.53125 169.460938 352.683594 C 169.933594 351.414062 170.648438 350.226562 170.882812 348.800781 C 171.597656 344.921875 172.152344 341.042969 172.308594 337.082031 C 172.390625 334.390625 172.308594 331.777344 171.835938 329.085938 C 170.964844 324.886719 169.222656 321.085938 167.558594 317.128906 C 167.558594 317.128906 167.402344 317.050781 167.320312 316.96875 C 165.894531 317.839844 164.472656 318.632812 162.570312 318.554688 Z M 269.3125 29.132812 C 269.867188 29.132812 270.183594 28.894531 270.578125 28.734375 C 272.082031 28.101562 273.035156 26.992188 273.191406 25.332031 C 273.429688 22.957031 273.269531 20.578125 272.875 18.203125 C 272.480469 15.589844 271.609375 13.136719 271.054688 10.601562 C 270.65625 8.859375 270.261719 7.039062 269.46875 5.457031 C 269.3125 5.21875 269.390625 4.742188 268.835938 4.820312 C 268.28125 5.929688 267.808594 7.039062 267.175781 8.148438 C 266.066406 10.128906 264.5625 11.871094 263.292969 13.769531 C 261.394531 16.621094 260.523438 19.789062 260.601562 23.191406 C 260.601562 23.746094 260.601562 24.222656 260.917969 24.695312 C 262.105469 26.675781 263.691406 28.339844 265.90625 29.132812 C 266.222656 29.289062 266.621094 29.367188 266.9375 29.132812 C 266.9375 27.074219 266.9375 25.015625 266.9375 22.957031 C 266.9375 21.765625 267.332031 20.738281 268.125 19.867188 C 268.996094 20.738281 269.3125 21.53125 269.234375 22.957031 C 269.234375 25.015625 268.996094 26.992188 269.234375 29.050781 Z M 151.722656 102.773438 C 152.355469 102.457031 152.75 102.21875 153.226562 102.0625 C 154.730469 101.347656 155.363281 100.238281 155.523438 98.578125 C 155.679688 96.359375 155.445312 94.222656 154.335938 92.242188 C 153.859375 91.371094 153.464844 90.578125 152.910156 89.789062 C 151.324219 87.09375 149.820312 84.324219 147.523438 82.105469 C 146.652344 81.234375 145.941406 80.207031 145.464844 79.019531 C 145.308594 78.78125 145.308594 78.382812 144.910156 78.226562 C 144.277344 78.9375 144.199219 79.808594 144.039062 80.523438 C 143.167969 84.5625 142.773438 88.601562 142.933594 92.71875 C 143.089844 95.488281 143.488281 98.179688 144.59375 100.792969 C 145.308594 102.535156 146.734375 103.25 148.554688 103.40625 C 149.425781 103.40625 149.425781 103.40625 149.265625 102.535156 C 148.871094 100.320312 148.238281 98.179688 147.605469 96.042969 C 147.289062 94.777344 146.972656 93.507812 147.128906 92.242188 C 147.128906 91.449219 147.289062 90.660156 147.921875 89.945312 C 148.710938 91.054688 149.265625 92.164062 149.503906 93.351562 C 150.136719 96.4375 151.40625 99.449219 151.722656 102.851562 Z M 170.410156 478.191406 C 169.855469 476.921875 169.300781 475.734375 168.746094 474.46875 C 168.589844 473.992188 168.273438 473.992188 167.875 473.992188 C 161.777344 474.46875 155.679688 474.3125 149.664062 473.359375 C 144.832031 472.570312 140.238281 471.144531 135.964844 468.609375 C 132.480469 466.550781 130.578125 463.460938 130.023438 459.503906 C 130.023438 459.265625 130.023438 458.949219 129.707031 458.789062 C 128.363281 460.453125 128.363281 463.699219 129.152344 465.441406 C 130.105469 467.421875 131.292969 469.164062 132.953125 470.511719 C 135.726562 472.804688 138.894531 474.230469 142.300781 475.261719 C 147.289062 476.765625 152.433594 477.714844 157.660156 478.191406 C 161.859375 478.585938 166.054688 478.191406 170.410156 478.03125 Z M 156.394531 320.453125 C 156.867188 320.214844 157.027344 319.898438 157.265625 319.582031 C 158.769531 317.839844 160.511719 316.496094 162.964844 316.496094 C 163.917969 316.496094 164.789062 315.941406 165.578125 315.464844 C 166.6875 314.753906 167.003906 313.722656 166.609375 312.535156 C 166.371094 311.585938 165.816406 310.792969 165.261719 310.082031 C 164.390625 308.894531 163.679688 307.546875 163.28125 306.121094 C 162.964844 305.011719 162.492188 303.984375 162.015625 302.953125 C 161.699219 302.242188 161.144531 301.925781 160.351562 301.925781 C 161.066406 304.457031 162.253906 306.835938 161.9375 309.765625 C 160.589844 307.863281 159.957031 306.042969 159.480469 304.140625 C 159.246094 303.191406 159.007812 302.320312 158.609375 301.449219 C 158.453125 301.132812 158.214844 300.738281 157.898438 301.054688 C 157.105469 301.84375 155.996094 302.242188 155.761719 303.585938 C 155.523438 305.011719 155.207031 306.4375 155.207031 307.941406 C 155.207031 309.527344 154.96875 311.03125 154.414062 312.535156 C 154.175781 313.089844 154.019531 313.644531 153.859375 314.199219 C 153.621094 315.148438 153.621094 316.179688 154.019531 317.128906 C 154.574219 318.394531 155.363281 319.503906 156.394531 320.53125 Z M 263.691406 266.609375 C 265.828125 266.292969 267.09375 265.183594 267.492188 263.28125 C 267.886719 261.300781 268.363281 259.324219 268.996094 257.34375 C 269.3125 256.394531 269.390625 255.363281 268.757812 254.414062 C 267.808594 253.066406 266.539062 251.878906 265.113281 251.085938 C 264.242188 250.613281 263.769531 250.769531 263.53125 251.722656 C 263.136719 253.382812 262.265625 254.886719 261.3125 256.3125 C 260.761719 257.183594 260.207031 257.976562 259.890625 258.925781 C 259.253906 260.828125 258.382812 262.570312 257.039062 264.152344 C 256.246094 265.023438 255.929688 266.132812 255.929688 267.320312 C 255.929688 268.191406 256.5625 268.667969 257.195312 269.0625 C 257.910156 269.457031 258.382812 268.984375 258.859375 268.507812 C 261.550781 265.816406 263.691406 262.808594 264.007812 258.769531 C 264.007812 257.660156 264.324219 256.472656 265.195312 255.363281 C 266.699219 259.480469 265.667969 262.964844 263.769531 266.609375 Z M 158.609375 353.316406 C 159.71875 353.316406 160.90625 353.316406 162.015625 353.316406 C 163.046875 353.316406 164.074219 353.15625 165.105469 353 C 165.816406 353 165.660156 352.367188 165.660156 351.890625 C 165.660156 351.414062 165.578125 351.175781 165.023438 351.175781 C 161.9375 351.257812 158.847656 350.941406 155.761719 350.703125 C 153.859375 350.542969 152.117188 350.070312 150.453125 349.117188 C 149.664062 348.644531 148.949219 348.167969 148.554688 347.296875 C 148.316406 346.824219 148.238281 346.347656 147.445312 346.425781 C 146.734375 346.503906 146.179688 346.742188 145.941406 347.457031 C 145.703125 348.246094 145.386719 348.960938 145.070312 349.753906 C 144.675781 350.78125 144.675781 350.78125 145.625 351.257812 C 146.972656 351.96875 148.476562 352.367188 149.980469 352.683594 C 152.832031 353.316406 155.679688 353.238281 158.53125 353.238281 Z M 253 312.296875 C 252.523438 313.960938 252.605469 313.960938 253.792969 314.671875 C 254.503906 315.070312 255.375 315.386719 256.167969 315.625 C 257.671875 316.019531 259.175781 316.179688 260.679688 316.257812 C 265.273438 316.574219 269.785156 316.257812 274.222656 315.226562 C 276.597656 314.59375 276.042969 314.59375 275.09375 313.011719 C 275.09375 313.011719 274.933594 312.929688 275.011719 312.929688 C 271.371094 313.960938 267.648438 314.117188 263.925781 314.277344 C 260.125 314.4375 256.484375 313.960938 252.921875 312.457031 Z M 251.417969 282.761719 C 251.335938 282.921875 251.257812 283.078125 251.179688 283.238281 C 249.355469 287.273438 248.484375 291.394531 249.277344 295.828125 C 249.910156 299.3125 250.78125 302.714844 251.8125 306.121094 C 251.8125 298.359375 251.257812 290.523438 251.417969 282.683594 Z M 153.464844 306.753906 C 154.019531 304.695312 154.492188 302.875 155.363281 301.210938 C 155.601562 300.816406 155.363281 300.578125 155.046875 300.421875 C 154.019531 299.867188 152.988281 299.230469 151.960938 298.679688 C 151.40625 298.359375 150.773438 298.359375 150.136719 298.441406 C 149.664062 298.441406 149.109375 298.757812 149.03125 299.230469 C 149.03125 300.578125 148.632812 302.082031 149.820312 303.113281 C 151.089844 304.222656 152.195312 305.488281 153.464844 306.835938 Z M 272.242188 297.015625 C 273.667969 292.816406 274.300781 288.542969 272.242188 284.027344 Z M 174.84375 351.574219 C 175.875 351.414062 176.585938 351.019531 177.21875 350.464844 C 177.851562 349.910156 177.933594 349.199219 177.457031 348.566406 C 176.824219 347.773438 175.953125 347.375 175.003906 347.21875 C 174.6875 347.21875 174.367188 347.21875 174.449219 347.695312 C 174.6875 348.960938 174.367188 350.226562 174.765625 351.574219 Z M 274.222656 311.1875 C 273.667969 309.765625 273.191406 308.417969 272.558594 306.835938 C 272.558594 308.101562 272.480469 309.210938 272.636719 310.238281 C 272.875 311.347656 272.796875 311.347656 274.140625 311.269531 Z M 147.605469 343.8125 C 147.445312 344.445312 146.890625 344.84375 147.289062 345.398438 C 147.367188 345.554688 147.683594 345.554688 147.84375 345.398438 C 148.316406 345 148 344.527344 147.683594 343.8125 Z M 147.605469 343.8125 "/></g><path style=" stroke:none;fill-rule:nonzero;fill:#f4b8c4;fill-opacity:1;" d="M 277.308594 463.859375 C 275.171875 465.203125 272.875 465.757812 270.5 466.074219 C 265.035156 466.789062 259.652344 466.15625 254.347656 465.363281 C 251.335938 464.886719 248.40625 464.175781 245.476562 463.226562 C 243.65625 462.589844 241.675781 462.195312 239.855469 461.71875 C 238.984375 461.484375 238.269531 461.085938 238.113281 460.058594 C 238.113281 459.898438 238.113281 459.742188 238.269531 459.660156 C 238.824219 460.292969 239.617188 460.53125 240.410156 460.691406 C 242.785156 461.164062 245.003906 461.878906 247.21875 462.671875 C 249.515625 463.542969 251.890625 463.859375 254.347656 464.097656 C 257.277344 464.414062 260.207031 464.570312 263.136719 464.570312 C 266.460938 464.570312 269.628906 464.015625 272.875 463.542969 C 274.378906 463.304688 275.804688 463.382812 277.230469 463.777344 Z M 277.308594 463.859375 "/><path style=" stroke:none;fill-rule:nonzero;fill:#f4b8c4;fill-opacity:1;" d="M 304.785156 403.203125 C 304.390625 402.09375 304.234375 400.984375 304.234375 399.875 C 304.234375 397.261719 304.390625 394.648438 304.152344 392.039062 C 303.914062 389.265625 303.996094 386.414062 303.996094 383.644531 C 303.996094 382.058594 304.152344 380.554688 303.996094 378.972656 C 303.757812 376.121094 303.125 373.429688 301.9375 370.816406 C 300.195312 366.933594 299.085938 362.816406 297.976562 358.78125 C 297.820312 358.144531 297.820312 357.589844 297.820312 356.957031 C 297.820312 356.71875 297.820312 356.484375 298.136719 356.402344 C 298.453125 356.402344 298.53125 356.5625 298.609375 356.800781 C 299.164062 358.144531 299.640625 359.492188 300.195312 360.757812 C 301.382812 363.925781 302.570312 367.09375 304.074219 370.101562 C 305.5 373.03125 306.054688 376.199219 306.132812 379.367188 C 306.210938 383.40625 306.132812 387.367188 306.292969 391.402344 C 306.292969 393.460938 306.609375 395.441406 306.449219 397.5 C 306.292969 399.558594 305.65625 401.382812 304.785156 403.203125 Z M 304.785156 403.203125 "/><path style=" stroke:none;fill-rule:nonzero;fill:#f4b8c4;fill-opacity:1;" d="M 296.789062 335.261719 C 296.789062 334.707031 296.789062 334.230469 296.789062 333.757812 C 296.789062 328.609375 295.839844 323.699219 293.78125 318.949219 C 293.066406 317.285156 292.671875 315.542969 292.277344 313.644531 C 292.988281 313.644531 293.148438 314.199219 293.464844 314.59375 C 295.917969 317.523438 297.027344 321.085938 297.582031 324.730469 C 297.976562 327.34375 298.214844 329.875 297.976562 332.488281 C 297.976562 333.125 297.820312 333.835938 297.582031 334.46875 C 297.5 334.785156 297.34375 335.183594 296.710938 335.261719 Z M 296.789062 335.261719 "/><path style=" stroke:none;fill-rule:nonzero;fill:#f4b8c4;fill-opacity:1;" d="M 119.097656 426.71875 C 118.9375 428.699219 118.386719 430.601562 117.910156 432.421875 C 116.484375 438.597656 114.820312 444.773438 113.871094 451.109375 C 113.394531 454.515625 113 457.917969 112.605469 461.246094 C 111.652344 469.242188 109.675781 476.921875 105.792969 484.050781 C 104.84375 485.792969 103.894531 487.457031 102.390625 488.800781 C 101.519531 489.59375 101.28125 489.59375 100.488281 488.878906 C 100.488281 488.878906 100.488281 488.800781 100.488281 488.722656 C 102.074219 487.691406 102.945312 486.109375 103.734375 484.527344 C 106.824219 478.507812 108.722656 472.09375 109.832031 465.441406 C 110.546875 461.085938 110.941406 456.8125 111.417969 452.457031 C 112.367188 444.695312 114.265625 437.09375 117.515625 429.96875 C 117.988281 428.859375 118.386719 427.671875 119.175781 426.71875 Z M 119.097656 426.71875 "/><path style=" stroke:none;fill-rule:nonzero;fill:#f4b8c4;fill-opacity:1;" d="M 236.609375 399.796875 C 236.292969 398.132812 236.054688 396.472656 236.210938 394.808594 C 236.449219 392.195312 236.847656 389.503906 237.003906 386.890625 C 237.320312 381.585938 237.398438 376.199219 237.320312 370.894531 C 237.320312 369.867188 237.082031 368.835938 237.082031 367.804688 C 236.925781 365.746094 237.398438 363.769531 237.71875 361.710938 C 238.269531 358.066406 239.140625 354.503906 239.460938 350.859375 C 239.539062 349.988281 239.617188 349.039062 239.539062 348.167969 C 239.300781 343.8125 239.777344 339.539062 240.09375 335.183594 C 240.09375 335.183594 240.09375 335.101562 240.09375 335.023438 C 240.09375 334.546875 240.25 333.996094 240.804688 333.996094 C 241.28125 333.996094 241.4375 334.546875 241.519531 334.945312 C 241.597656 335.339844 241.597656 335.816406 241.597656 336.210938 C 241.597656 338.191406 241.519531 340.089844 241.359375 342.070312 C 241.199219 344.050781 241.359375 346.03125 241.4375 348.089844 C 241.597656 351.730469 240.964844 355.296875 240.25 358.859375 C 239.777344 361.234375 239.378906 363.609375 238.984375 365.984375 C 238.824219 366.9375 238.824219 367.886719 238.90625 368.835938 C 239.140625 374.539062 238.90625 380.238281 238.90625 386.019531 C 238.90625 389.265625 238.429688 392.589844 238.035156 395.839844 C 237.875 397.261719 237.480469 398.6875 236.609375 399.957031 Z M 236.609375 399.796875 "/><path style=" stroke:none;fill-rule:nonzero;fill:#f4b8c4;fill-opacity:1;" d="M 286.96875 260.035156 C 288.15625 259.640625 289.109375 259.71875 290.058594 259.796875 C 294.414062 260.511719 298.453125 259.558594 302.410156 257.820312 C 303.996094 257.105469 305.65625 256.550781 307.320312 255.917969 C 307.558594 255.839844 307.875 255.679688 308.351562 255.917969 C 306.054688 258.136719 303.519531 259.640625 300.511719 260.511719 C 296.550781 261.621094 290.058594 261.460938 287.128906 260.035156 Z M 286.96875 260.035156 "/><path style=" stroke:none;fill-rule:nonzero;fill:#f4b8c4;fill-opacity:1;" d="M 324.109375 236.753906 C 325.296875 243.25 319.277344 249.582031 314.683594 251.167969 C 314.921875 250.535156 315.320312 250.136719 315.636719 249.820312 C 316.980469 248.554688 318.328125 247.285156 319.59375 245.941406 C 320.625 244.910156 321.574219 243.722656 322.285156 242.457031 C 322.921875 241.347656 323.316406 240.238281 323.394531 238.972656 C 323.394531 238.257812 323.472656 237.546875 324.027344 236.753906 Z M 324.109375 236.753906 "/><path style=" stroke:none;fill-rule:nonzero;fill:#f4b8c4;fill-opacity:1;" d="M 315.636719 230.976562 C 316.03125 229.867188 316.347656 228.996094 316.585938 228.203125 C 316.980469 226.9375 316.824219 226.699219 315.476562 226.621094 C 313.734375 226.460938 312.070312 226.777344 310.410156 227.015625 C 309.933594 227.015625 309.457031 227.253906 308.90625 227.171875 C 308.984375 227.015625 309.0625 226.9375 309.0625 226.9375 C 311.28125 226.144531 313.578125 225.511719 316.03125 225.511719 C 317.929688 225.511719 318.722656 226.621094 318.089844 228.441406 C 317.773438 229.550781 317.21875 230.105469 315.636719 231.054688 Z M 315.636719 230.976562 "/><path style=" stroke:none;fill-rule:nonzero;fill:#f4b8c4;fill-opacity:1;" d="M 282.296875 249.898438 C 281.03125 251.007812 279.921875 251.957031 278.65625 252.59375 C 277.46875 253.226562 276.199219 253.78125 274.933594 254.414062 C 274.617188 254.570312 274.378906 254.730469 274.0625 254.414062 C 273.824219 254.097656 273.746094 253.699219 273.984375 253.382812 C 273.984375 253.382812 274.140625 253.226562 274.222656 253.226562 C 276.597656 251.640625 278.972656 250.136719 281.980469 249.898438 C 281.980469 249.898438 282.0625 249.898438 282.378906 249.980469 Z M 282.296875 249.898438 "/><path style=" stroke:none;fill-rule:nonzero;fill:#f4b8c4;fill-opacity:1;" d="M 111.019531 286.246094 C 111.574219 286.246094 111.972656 286.5625 112.367188 286.800781 C 116.324219 288.9375 120.128906 291.472656 123.929688 293.769531 C 129.472656 297.09375 135.410156 299.550781 141.664062 301.054688 C 143.25 301.449219 144.832031 301.449219 146.496094 301.609375 C 146.496094 302.160156 146.019531 302.003906 145.78125 302.082031 C 143.25 302.636719 140.875 302.082031 138.496094 301.449219 C 131.214844 299.628906 124.402344 296.777344 118.148438 292.660156 C 115.691406 291.078125 113.476562 289.015625 111.335938 286.957031 C 111.179688 286.800781 110.941406 286.640625 110.941406 286.402344 C 110.941406 286.402344 110.941406 286.324219 110.941406 286.167969 Z M 111.019531 286.246094 "/><path style=" stroke:none;fill-rule:nonzero;fill:#f4b8c4;fill-opacity:1;" d="M 102.863281 284.898438 C 105.636719 285.691406 108.171875 286.5625 110.386719 288.226562 C 113.078125 290.207031 115.535156 292.582031 118.066406 294.878906 C 118.226562 295.035156 118.386719 295.195312 118.542969 295.429688 C 118.621094 295.589844 118.703125 295.828125 118.542969 295.984375 C 118.386719 296.222656 118.148438 296.222656 117.910156 296.144531 C 117.117188 295.90625 116.324219 295.667969 115.691406 295.113281 C 111.8125 291.945312 107.457031 289.492188 103.65625 286.167969 C 103.339844 285.929688 102.945312 285.691406 102.785156 284.980469 Z M 102.863281 284.898438 "/><path style=" stroke:none;fill-rule:nonzero;fill:#f4b8c4;fill-opacity:1;" d="M 83.304688 488.089844 C 82.988281 487.929688 82.910156 487.773438 82.910156 487.535156 C 82.832031 485.792969 82.515625 484.128906 82.515625 482.464844 C 82.515625 479.378906 82.277344 476.289062 81.5625 473.28125 C 81.5625 473.121094 81.484375 472.886719 81.484375 472.726562 C 81.484375 472.332031 81.484375 471.777344 81.960938 471.617188 C 82.515625 471.539062 82.433594 472.09375 82.515625 472.410156 C 84.257812 477.160156 84.335938 481.992188 83.703125 486.902344 C 83.703125 487.136719 83.621094 487.375 83.542969 487.613281 C 83.542969 487.773438 83.464844 487.929688 83.386719 488.167969 Z M 83.304688 488.089844 "/><path style=" stroke:none;fill-rule:nonzero;fill:#f4b8c4;fill-opacity:1;" d="M 249.121094 256.234375 C 247.613281 255.996094 246.507812 255.363281 245.398438 254.570312 C 244.132812 253.699219 243.101562 252.511719 242.308594 251.246094 C 239.855469 247.367188 236.132812 245.148438 231.9375 243.566406 C 231.066406 243.25 230.273438 242.929688 229.402344 242.613281 C 229.246094 242.613281 229.085938 242.457031 229.085938 242.21875 C 229.085938 241.980469 229.324219 241.980469 229.480469 241.902344 C 229.957031 241.824219 230.433594 241.902344 230.90625 241.980469 C 233.835938 242.613281 236.609375 243.722656 239.140625 245.386719 C 240.171875 246.019531 241.121094 246.890625 241.835938 247.921875 C 243.65625 250.535156 245.875 252.828125 248.25 254.96875 C 248.484375 255.207031 248.722656 255.441406 248.960938 255.679688 C 248.960938 255.679688 248.960938 255.839844 249.121094 256.15625 Z M 249.121094 256.234375 "/></g></svg>